<?xml version="1.0" encoding="utf-8"?>
<!-- Generator: Adobe Illustrator 26.5.0, SVG Export Plug-In . SVG Version: 6.00 Build 0)  -->
<svg version="1.1" id="Layer_1" xmlns="http://www.w3.org/2000/svg" xmlns:xlink="http://www.w3.org/1999/xlink" x="0px" y="0px"
	 viewBox="0 0 1832.8 460.9" style="enable-background:new 0 0 1832.8 460.9;" xml:space="preserve">
<style type="text/css">
	.st0{fill:#0073AB;}
	.st1{fill:url(#SVGID_1_);}
	.st2{fill:url(#SVGID_00000022519284294541113380000006772792524193725092_);}
	.st3{fill:url(#SVGID_00000182491824119363754040000000346722313031203995_);}
</style>
<g>
	<path class="st0" d="M1334.2,317.9c307.7,0,489-20.2,489-75.2c0-54.9-199.7-72.2-215.3-73.7c-5.2,0-9.3,4.2-9.3,9.4
		c0,5.2,4.2,9.4,9.3,9.4c11.2,0.9,209.2,12.5,209.2,55c0,44.6-231.5,57.1-482.8,57.1c-251.3,0-482.9-12.5-482.9-57.1
		c0-42.5,198-54.1,209.2-55c5.2,0,9.4-4.2,9.4-9.4c0-5.2-4.2-9.4-9.4-9.4c-15.7,1.5-215.4,18.9-215.4,73.7
		C845.2,297.7,1026.5,317.9,1334.2,317.9"/>
	<polygon class="st0" points="1085.5,154 1112.8,153.3 1112.9,158.3 1092.2,158.8 1092.4,166.7 1112.3,166.2 1112.4,171.2 
		1092.5,171.6 1092.7,180.4 1113.8,179.9 1113.9,184.8 1086.2,185.5 	"/>
	<path class="st0" d="M1119.5,153l16.9-0.7c12.4-0.5,15.7,6.4,16.1,15.4c0.3,6.8-2.5,15.6-13.2,16l-18.5,0.8L1119.5,153z
		 M1127.2,179.3l9.3-0.4c4.8-0.2,9.8-1.9,9.4-11.2c-0.5-10.2-7-10.5-10.6-10.4l-8.9,0.4L1127.2,179.3z"/>
	<polygon class="st0" points="1158.9,151.4 1165.6,151.1 1166.9,182.6 1160.3,182.8 	"/>
	<polygon class="st0" points="1183.8,155.4 1172,155.9 1171.8,150.9 1202,149.7 1202.2,154.6 1190.4,155.1 1191.5,181.6 
		1184.9,181.8 	"/>
	<path class="st0" d="M1203.2,165.3c-0.3-8.9,4.7-16.8,17.9-17.2c13.3-0.4,18.8,7.2,19.1,16c0.3,8.9-4.6,16.8-18,17.2
		C1208.9,181.7,1203.5,174.2,1203.2,165.3 M1233.3,164.3c-0.2-6.9-4.6-11.6-12-11.3c-7.4,0.3-11.5,5.1-11.2,12.1
		c0.2,6.9,4.6,11.5,12,11.3C1229.5,176.1,1233.5,171.2,1233.3,164.3"/>
	<path class="st0" d="M1245.9,148.2l20-0.4c8-0.2,10.7,3.5,10.8,8.3c0.1,4.1-2.1,6.7-5.1,7.7v0.1c3.8,0.7,4.7,4,4.8,8.4
		c0,1.5,0.2,5.1,1.5,6.7l-7.2,0.2c-0.5-0.9-0.8-2.5-0.9-4.8c-0.1-4.5-0.8-7.7-5.6-7.5l-11.3,0.2l0.3,12.4l-6.6,0.2L1245.9,148.2z
		 M1264.2,161.9c3.7-0.1,5.6-1.3,5.6-4.7c-0.1-3.3-2.3-4.5-5.7-4.4l-11.5,0.3l0.2,9.2L1264.2,161.9z"/>
	<polygon class="st0" points="1283.4,147.5 1290,147.4 1290.4,178.8 1283.8,178.9 	"/>
	<path class="st0" d="M1308.4,147.2l7.8,0l14.1,31.4l-7.4,0l-3.3-7.8l-14.8,0l-3.3,7.8l-7.1,0L1308.4,147.2z M1317.6,165.9
		l-5.4-13.3l-5.4,13.3H1317.6z"/>
	<polygon class="st0" points="1334.8,147.3 1341.3,147.3 1341,173.6 1360.1,173.9 1360.1,179.1 1334.3,178.7 	"/>
	<polygon class="st0" points="1382.7,148 1392.2,148.3 1402.5,173 1414.1,148.9 1423.5,149.2 1422.7,180.6 1416.5,180.4 
		1417.4,154.5 1417.3,154.4 1405,180.1 1399.4,180 1388.5,153.7 1388.4,153.7 1388,179.7 1381.8,179.5 	"/>
	<polygon class="st0" points="1431.5,149.4 1458.7,150.4 1458.6,155.4 1437.9,154.6 1437.6,162.6 1457.5,163.3 1457.3,168.2 
		1437.4,167.5 1437.1,176.2 1458.2,177 1458,181.8 1430.3,180.9 	"/>
	<path class="st0" d="M1465.6,150.7l17,0.7c12.3,0.5,15.1,7.7,14.6,16.7c-0.3,6.7-3.7,15.3-14.4,14.9l-18.5-0.8L1465.6,150.7z
		 M1471,177.5l9.3,0.4c4.8,0.2,9.9-1.1,10.3-10.4c0.4-10.2-6-11.1-9.7-11.2l-8.9-0.4L1471,177.5z"/>
	<polygon class="st0" points="1504.5,152.4 1511.1,152.7 1509.7,184.1 1503,183.8 	"/>
	<path class="st0" d="M1544.2,165.9c-0.4-4.8-4.2-7.8-9.8-8.1c-6.1-0.3-10.8,3.5-11.2,11.7c-0.3,6.6,4,11.3,10.5,11.6
		c6.9,0.4,9.4-4.2,10.1-7.5l7.1,0.4c-1.3,6.2-5.7,12.6-18.6,12c-11.4-0.6-16.4-8.6-15.9-17.5c0.5-8.8,6-16.3,18.4-15.7
		c10.8,0.6,16.2,6.6,16.5,13.4L1544.2,165.9z"/>
	<path class="st0" d="M1569.1,155.7l7.8,0.4l12.2,32.3l-7.3-0.5l-2.9-8l-14.8-0.8l-3.7,7.6l-7.1-0.4L1569.1,155.7z M1577.2,174.9
		l-4.6-13.5l-6.2,12.9L1577.2,174.9z"/>
	<path class="st0" d="M1008.2,210.9c14,0,22.8,14.3,22.8,27c0,11.4-7.6,24.3-20.2,24.3c-6.9,0-12.7-3.3-17-8.5v3.6
		c0,3,0.3,6.4,0.7,8.7c1,3.3,6.2,3.8,6.2,6.8c0,3-3,3.4-5.4,3.4h-17.7c-2.2,0-5-0.3-5.2-3.1c0-3.4,3.7-3.1,5.2-5.3
		c1.2-1.6,1.5-6.5,1.5-10.2v-4.3v-21.5c0-9.4-6.9-5.3-6.9-9.9c0-1.5,1.4-2.3,2.6-3l13.3-7c0.7-0.3,1.3-0.6,2.2-0.7
		c3.4,0,3.6,3.5,3.6,6.3v1.4C997.6,214.7,1002.3,210.9,1008.2,210.9 M1006.4,218.6c-8.9,0-13.3,9.7-13.3,17.4
		c0,5.6,1.4,14.4,8.7,14.4c9,0,15.4-10.7,15.4-18.7C1017.2,225.6,1013.3,218.6,1006.4,218.6"/>
	<path class="st0" d="M1052.2,261.8c-8.9,0-18.5-4.8-18.5-14.8c0-11.9,14-17.1,23.9-17.1c2.4,0,4.7,0.1,7,0.2c-2-5.4-4.5-11-11.2-11
		c-6.9,0-9.7,4.9-12.9,4.9c-1.2,0-2.3-0.9-2.4-2.1c0-7.7,14.2-11.6,20.1-11.6c13.2,0,18.1,7.3,21.5,18.9l5.2,17
		c0.8,2.7,3.1,7.1,6.3,7.1c0.9,0,2-0.8,2.6-1.3c1.1,1.1,1.7,2.3,1.7,3.8c0,5-7,6-10.7,6c-5.6,0-9.1-1.9-12.3-6.3
		C1066.3,259.4,1059.5,261.8,1052.2,261.8 M1066.8,239.8c-1.1-2.9-3.4-3.6-6.3-3.6c-4.9,0-10.5,2.8-10.5,8.2c0,5.6,5.1,9.1,10.3,9.1
		c3.2,0,8.9-1.1,8.9-5.4C1069.2,245.7,1067.8,242,1066.8,239.8"/>
	<path class="st0" d="M1134.4,211.7c9.5,0,13.5,8,15.6,15.9l5,17.8c1.4,5.1,1.5,6.7,5.9,9.6c1,0.7,1.7,1.4,1.7,2.7
		c0,2.5-2.3,3.2-4.5,3.2h-19.8c-1.8,0-4-0.8-4-3c0-3.7,5.9-3.6,5.9-7.9c0-1-0.2-2.2-0.4-3.1l-3.9-14.9c-0.9-3.9-3-10.5-8-10.5
		c-5.8,0-6.9,7-6.9,11.3v7.3c0,3.7,0.1,7.3,0.7,10.8c0.8,3.1,5.7,3.6,5.7,7c0,2.5-3,3-5,3h-17.7c-1.9,0-4.9-0.5-4.9-3
		c0-4.1,6.5-1.8,6.5-14.8c0-3.4-0.1-7.1-0.1-10.5c0-9.1-6.7-5.6-6.7-9.5c0-1.1,1.1-2.5,2-3l15.2-8c0.4-0.4,1.1-0.6,1.7-0.7
		c2.1,0,2.7,2.5,2.7,4.3v3.4C1124.9,215.4,1128.6,211.7,1134.4,211.7"/>
	<path class="st0" d="M1182.1,261.8c-8.9,0-18.5-4.8-18.5-14.8c0-11.9,14-17.1,23.9-17.1c2.3,0,4.7,0.1,7,0.2c-2-5.4-4.4-11-11.2-11
		c-6.9,0-9.7,4.9-12.9,4.9c-1.2,0-2.3-0.9-2.4-2.1c0-7.7,14.3-11.6,20.2-11.6c13.1,0,18,7.3,21.5,18.9l5.2,17
		c0.8,2.7,3.1,7.1,6.2,7.1c0.9,0,2-0.8,2.6-1.3c1.1,1.1,1.7,2.3,1.7,3.8c0,5-7,6-10.7,6c-5.6,0-9.1-1.9-12.3-6.3
		C1196.3,259.4,1189.5,261.8,1182.1,261.8 M1194.4,239.8c-1.1-2.9-3.3-3.6-6.2-3.6c-4.9,0-10.4,2.8-10.4,8.2c0,5.6,5.1,9.1,10.2,9.1
		c3.3,0,8.9-1.1,8.9-5.4C1196.8,245.7,1195.4,242,1194.4,239.8"/>
	<path class="st0" d="M1291.5,211.5c7.2,0,12.1,4.5,14.3,11.4l6.9,22.6c0.7,2.2,1.3,4.5,2.6,6.5c1,1.6,2.3,2.4,3.9,3.3
		c1.1,0.7,1.9,1.5,1.9,2.8c0,2.2-2.1,2.9-3.9,2.9h-20.6c-2.2,0-5.4-0.5-5.4-3.2c0-3.4,6.7-3.7,6.8-6.7c0-1.8-0.4-3.9-1-5.6
		l-5.1-16.9c-1-3.3-3-6.4-6.7-6.4c-5.2,0-6.7,5.9-6.7,10.2v7.4c0,3.8,0.1,7.5,0.7,11.2c0.9,3.4,5.7,3.8,5.7,7c0,2.5-3,3-4.9,3h-17.7
		c-2,0-5-0.5-5-3c0-4.3,6.5-1.6,6.5-14.8c0-1.7-0.1-3.8-0.1-5.3c0-1.2,0.1-2.9,0.1-4.7c0-5.1-0.7-11.3-6.6-11.3
		c-5.5,0-9.1,5.5-9.1,10.6c0,2.8-0.1,5.6-0.1,8.5c0,3.5,0.1,6.8,0.9,10c0.7,3.2,5.6,3.6,5.6,7c0,2.5-2.9,3-4.9,3h-17.7
		c-1.9,0-4.9-0.5-4.9-3c0-4.1,6.5-1.8,6.5-14.8c0-3.2-0.1-6.7-0.1-9.9c0-10.6-7-5.8-7-10.7c0-1.7,1.4-2.6,2.8-3.3l14.7-7.6
		c0.6-0.2,1.6-0.7,2.2-0.7c1.9,0,2.1,2.5,2.1,5.1v3c4.3-4.2,9.4-7.9,15.5-7.9c6.2,0,11.2,2.4,14.3,7.9
		C1281.3,214.9,1285.5,211.5,1291.5,211.5"/>
	<path class="st0" d="M1354.4,252.7c9.1,0,14.9-8.2,16.9-8.3c1.3,0,2.7,1,2.7,2.6c0,2.9-3.3,5.7-5.2,7.4c-6.5,4.9-14.8,7.4-23,7.4
		c-15,0-26.4-10.3-26.4-25.7c0-13.9,12.7-25.4,26.4-25.4c7.6,0,14.8,3,19.7,8.9c0.8,1.1,4.7,6,4.7,8.2c0,1.3-5,3.5-6.9,4.1
		l-23.9,10.7C1342.2,248.8,1347.6,252.7,1354.4,252.7 M1349.7,231.6c0.9-0.5,2.6-1,3-2.1c0-0.1,0.1-0.6,0.1-0.7
		c0-4.7-6.1-10.9-10.9-10.9c-4.7,0-7.7,4.3-7.7,8.7c0,1.8,0.7,10.1,3.5,10.1c0.5,0,1.3-0.3,1.8-0.6L1349.7,231.6z"/>
	<path class="st0" d="M1415.2,211.1c1.7,0,5.9,0,6.1,2.4c0,0.8-0.1,1.6-0.4,2.4l-4.2,12.7c-0.4,1.3-1,2.8-2.7,2.9
		c-2.7,0-4-6.1-8.8-6.1c-7,0-8.6,7-8.6,12.6v6.2c0,2.5,0,5.3,1,7.6c1.2,2.6,5.8,2.6,5.8,5.9c0,2.7-2.9,3.4-5,3.4h-18
		c-2.4,0-5.1-0.3-5.3-3.1c0-3.3,3.7-3.1,5.3-5.3c1.2-1.6,1.5-6.6,1.5-10.2v-12c0-6.9-6.5-2.8-6.5-7.6c0.1-1.1,0.9-1.9,1.8-2.4
		l14.6-8.5c0.7-0.4,1.3-0.7,2.1-0.8c2.7,0,2.9,2.4,2.9,4.6c0.1,2.2,0.2,4.4,0.2,6.5C1402.3,216.1,1406.6,211.1,1415.2,211.1"/>
	<path class="st0" d="M1444.2,237.9v4.1c0,3,0.2,6.3,0.6,8.7c0.8,3.2,6,3.3,6,6.8c0,2.9-2.9,3.5-5.2,3.5h-17.8
		c-2.4,0-5.1-0.3-5.4-3.1c0-3.3,3.8-3.1,5.4-5.3c1.2-1.6,1.4-6.6,1.4-10.2V230c0-10.2-5.6-4.3-5.6-9.2c0-1.8,1.7-2.7,3.1-3.4
		l13.3-5.8c0.5-0.3,1.3-0.5,2-0.7c1.9,0,2.1,2.1,2.1,3.7V237.9z M1431.1,204.7c-2.9,0-5.4-2.4-5.4-5c0-5.6,8.5-9,13-9
		c2.7,0,5.4,1.9,5.4,4.6C1444.2,201.2,1436,204.7,1431.1,204.7"/>
	<path class="st0" d="M1497.4,230.1c-0.6,1.1-1.2,2.3-2.5,2.3c-3.7,0-3.6-15.7-14.5-15.7c-8.7,0-11,10.7-11,17.4
		c0,9.3,5,19.9,15.7,19.9c9.6,0,14.6-9.5,17.5-9.7c1.1,0,2.5,0.7,2.6,1.9c0,3.4-2.4,5.9-4.9,8.1c-5.5,5-12.2,7.4-19.6,7.4
		c-15,0-28.4-8.9-28.4-24.9c0-16.3,15.2-26.3,30.2-26.3c5.8,0,11.7,1.2,16.8,3.9c1.3,0.7,3.5,1.5,3.5,3.2c0,0.9-0.1,1.6-0.6,2.4
		L1497.4,230.1z"/>
	<path class="st0" d="M1525.7,261.8c-8.9,0-18.5-4.8-18.5-14.8c0-11.9,14-17.1,23.9-17.1c2.4,0,4.7,0.1,7,0.2c-2-5.4-4.5-11-11.2-11
		c-6.9,0-9.7,4.9-12.9,4.9c-1.2,0-2.4-0.9-2.5-2.1c0-7.7,14.3-11.6,20.2-11.6c13.1,0,18,7.3,21.5,18.9l5.2,17
		c0.8,2.7,3.1,7.1,6.2,7.1c0.9,0,2-0.8,2.5-1.3c1.1,1.1,1.7,2.3,1.7,3.8c0,5-7,6-10.7,6c-5.6,0-9.1-1.9-12.2-6.3
		C1539.9,259.4,1533.1,261.8,1525.7,261.8 M1542.6,239.8c-1.1-2.9-3.3-3.6-6.2-3.6c-4.9,0-10.4,2.8-10.4,8.2c0,5.6,5.1,9.1,10.2,9.1
		c3.2,0,8.9-1.1,8.9-5.4C1545.1,245.7,1543.6,242,1542.6,239.8"/>
	<path class="st0" d="M1608,211.7c9.4,0,13.5,8,15.6,15.9l5,17.8c1.5,5.1,1.6,6.7,5.9,9.6c1,0.7,1.7,1.4,1.7,2.7
		c0,2.5-2.3,3.2-4.5,3.2h-19.8c-1.8,0-4-0.8-4-3c0-3.7,5.9-3.6,5.9-7.9c0-1-0.2-2.2-0.4-3.1l-3.9-14.9c-0.9-3.9-3-10.5-8-10.5
		c-5.8,0-6.9,7-6.9,11.3v7.3c0,3.7,0.1,7.3,0.7,10.8c0.8,3.1,5.7,3.6,5.7,7c0,2.5-3,3-5,3h-17.7c-1.9,0-4.9-0.5-4.9-3
		c0-4.1,6.4-1.8,6.4-14.8c0-3.4-0.1-7.1-0.1-10.5c0-9.1-6.7-5.6-6.7-9.5c0-1.1,1.1-2.5,2-3l15.3-8c0.4-0.4,1.1-0.6,1.7-0.7
		c2.1,0,2.7,2.5,2.7,4.3v3.4C1598.5,215.4,1602.2,211.7,1608,211.7"/>
	<path class="st0" d="M1655.7,261.8c-8.9,0-18.5-4.8-18.5-14.8c0-11.9,14-17.1,23.9-17.1c2.3,0,4.7,0.1,7,0.2c-2-5.4-4.5-11-11.3-11
		c-6.9,0-9.7,4.9-12.9,4.9c-1.2,0-2.3-0.9-2.4-2.1c0-7.7,14.2-11.6,20.1-11.6c13.2,0,18.1,7.3,21.5,18.9l5.2,17
		c0.8,2.7,3.1,7.1,6.2,7.1c0.9,0,2-0.8,2.6-1.3c1.1,1.1,1.7,2.3,1.7,3.8c0,5-7,6-10.7,6c-5.6,0-9.2-1.9-12.3-6.3
		C1669.8,259.4,1663.1,261.8,1655.7,261.8 M1670.3,239.8c-1.1-2.9-3.3-3.6-6.2-3.6c-4.9,0-10.5,2.8-10.5,8.2c0,5.6,5.2,9.1,10.2,9.1
		c3.2,0,8.9-1.1,8.9-5.4C1672.7,245.7,1671.3,242,1670.3,239.8"/>
</g>
<g>
	<path class="st0" d="M676.3,67.4c2.7,105.9,2.6,213.5,0.3,319.4c0,0-0.3,10.3-0.3,10.3l-0.3-10.3
		C673.7,280.9,673.6,173.3,676.3,67.4L676.3,67.4z"/>
</g>
<linearGradient id="SVGID_1_" gradientUnits="userSpaceOnUse" x1="460.5053" y1="327.47" x2="272.0036" y2="138.9683">
	<stop  offset="0" style="stop-color:#C5A800"/>
	<stop  offset="0.2" style="stop-color:#FFD800"/>
	<stop  offset="0.8" style="stop-color:#FFD800"/>
	<stop  offset="0.9298" style="stop-color:#DCBA00"/>
	<stop  offset="1" style="stop-color:#C5A800"/>
</linearGradient>
<path class="st1" d="M363.4,368h0.1c75.6,0,137.1-61.8,137.1-137.4C500.7,155,439.2,93,363.6,93h-0.1c-21.1,0-41.1,4.8-58.9,13.4
	v2.9v1.4l-0.6,1.2l-19.9,41.4c20.2-20.2,48.1-32.7,78.9-32.7c61.6,0,111.7,50.1,111.7,111.7S424.6,344,363,344
	s-111.7-50.1-111.7-111.7c0-4.1,0.2-8.2,0.7-12.2l-21.3,44.3C245.8,323.8,299.5,368,363.4,368z"/>
<linearGradient id="SVGID_00000095340667312087267880000018079849500835515058_" gradientUnits="userSpaceOnUse" x1="477.8873" y1="347.1813" x2="257.946" y2="127.24">
	<stop  offset="0" style="stop-color:#C5A800"/>
	<stop  offset="0.2" style="stop-color:#FFD800"/>
	<stop  offset="0.8" style="stop-color:#FFD800"/>
	<stop  offset="0.9298" style="stop-color:#DCBA00"/>
	<stop  offset="1" style="stop-color:#C5A800"/>
</linearGradient>
<path style="fill:url(#SVGID_00000095340667312087267880000018079849500835515058_);" d="M512.7,169c-8.2-19.4-19.9-36.7-34.8-51.6
	c-14.9-14.9-32.3-26.6-51.6-34.8c-20.1-8.5-41.3-12.8-63.3-12.8c-20.2,0-39.8,3.6-58.4,10.8v20c1.2-0.5,2.4-1.1,3.6-1.6
	c17.5-7.4,36.2-11.3,55.4-11.3h0.1c19.2,0,37.8,3.9,55.4,11.4c16.9,7.2,32.1,17.5,45.2,30.6c13.1,13.1,23.3,28.3,30.5,45.3
	c7.4,17.5,11.2,36.2,11.1,55.4c0,19.2-3.8,37.8-11.2,55.4c-7.2,16.9-17.4,32.1-30.5,45.2c-13.1,13.1-28.3,23.1-45.2,30.3
	c-17.5,7.4-36.2,11-55.4,11h-0.1c-19.2,0-37.8-3.6-55.4-11c-16.9-7.2-32.1-17.3-45.2-30.4c-13.1-13.1-23.3-28.2-30.5-45.2
	c-1.9-4.6-3.6-9.3-5.1-14l-12.9,26.8c8.1,18.3,19.4,34.8,33.6,49c14.9,14.9,32.3,26.6,51.6,34.8c20.1,8.5,41.3,12.8,63.3,12.8
	s43.2-4.3,63.3-12.8c19.4-8.2,36.7-19.9,51.6-34.8c14.9-14.9,26.6-32.3,34.8-51.6c8.5-20.1,12.8-41.3,12.8-63.3
	C525.5,210.4,521.2,189.1,512.7,169z"/>
<linearGradient id="SVGID_00000116226007274459591560000018430476272472467350_" gradientUnits="userSpaceOnUse" x1="80.1114" y1="232.2762" x2="298.5836" y2="232.2762">
	<stop  offset="0" style="stop-color:#009BD3"/>
	<stop  offset="0.6461" style="stop-color:#0073AC"/>
	<stop  offset="1" style="stop-color:#006696"/>
</linearGradient>
<path style="fill:url(#SVGID_00000116226007274459591560000018430476272472467350_);" d="M80.1,69.8v51.2H233v0.9l-136.6,273h64.9
	l137.2-285.5V69.8H80.1z M279.2,97.2L137.8,375.6l0,0c0,0,0,0,0,0c-0.4,1-2.3,1.1-3.8,0.5c-1.5-0.6-2-2.2-1.6-3.2c0,0,0,0,0,0l0,0
	L272.1,98.1H96.4v-6h181.7c0,0,1.6,0.7,1.7,3C279.8,95.9,279.6,96.7,279.2,97.2L279.2,97.2z"/>
<path class="st0" d="M287,209h5.4l20.5,48.1h-6.7l-4.9-11.8h-24.1l-5,11.8h-6.5L287,209z M289.5,216.3h-0.1l-10,23.7h19.7
	L289.5,216.3z"/>
<path class="st0" d="M319.2,209h7.2l27.9,40h0.1v-40h5.7v48.1h-7.2l-27.9-40h-0.1v40h-5.7V209z M328.3,204.8
	c0.1-0.9,0.4-1.7,0.7-2.6c0.3-0.9,0.8-1.6,1.4-2.3s1.2-1.2,2-1.6c0.8-0.4,1.7-0.6,2.7-0.6s2,0.2,3,0.5c0.9,0.3,1.8,0.7,2.8,1.1
	c0.7,0.3,1.3,0.5,1.8,0.8c0.5,0.2,1.1,0.4,1.9,0.4c0.9,0,1.6-0.3,2.1-0.9c0.5-0.6,0.9-1.3,1.1-2.1h3.3c-0.1,0.9-0.4,1.7-0.6,2.5
	c-0.3,0.8-0.7,1.6-1.2,2.3c-0.5,0.7-1.1,1.2-1.9,1.6s-1.6,0.6-2.6,0.6c-1,0-1.9-0.1-2.8-0.4c-0.9-0.3-1.8-0.6-2.7-1
	c-0.7-0.3-1.4-0.6-2.2-0.9c-0.8-0.3-1.5-0.4-2.3-0.4c-0.9,0-1.5,0.3-2,0.9c-0.5,0.6-0.9,1.3-1.1,2.1H328.3z"/>
<path class="st0" d="M394.5,258.3c-3.7,0-7-0.6-10.1-1.9c-3.1-1.3-5.7-3-8-5.3s-4-4.9-5.2-8c-1.2-3.1-1.9-6.5-1.9-10.1
	c0-3.6,0.6-7,1.9-10.1c1.2-3.1,3-5.8,5.2-8s4.9-4,8-5.3c3.1-1.3,6.4-1.9,10.1-1.9c3.7,0,7,0.6,10.1,1.9c3.1,1.3,5.7,3,8,5.3
	s4,4.9,5.2,8c1.2,3.1,1.9,6.5,1.9,10.1c0,3.6-0.6,7-1.9,10.1c-1.2,3.1-3,5.8-5.2,8s-4.9,4-8,5.3
	C401.5,257.7,398.1,258.3,394.5,258.3z M394.5,253c2.8,0,5.4-0.5,7.7-1.6c2.3-1,4.3-2.5,6-4.3c1.7-1.8,3-3.9,3.9-6.4
	c0.9-2.4,1.4-5,1.4-7.8c0-2.8-0.5-5.4-1.4-7.8c-0.9-2.4-2.2-4.5-3.9-6.4c-1.7-1.8-3.7-3.2-6-4.3c-2.3-1-4.9-1.6-7.7-1.6
	c-2.8,0-5.4,0.5-7.7,1.6c-2.3,1-4.3,2.5-6,4.3c-1.7,1.8-3,3.9-3.9,6.4c-0.9,2.4-1.4,5-1.4,7.8c0,2.8,0.5,5.4,1.4,7.8
	c0.9,2.4,2.2,4.5,3.9,6.4c1.7,1.8,3.7,3.2,6,4.3C389.1,252.5,391.7,253,394.5,253z"/>
<path class="st0" d="M451.7,217.5c-1-1.5-2.2-2.7-3.8-3.4c-1.6-0.7-3.2-1.1-5-1.1c-1.3,0-2.5,0.2-3.7,0.5c-1.2,0.3-2.3,0.8-3.3,1.4
	c-1,0.6-1.8,1.5-2.3,2.5c-0.6,1-0.9,2.3-0.9,3.7c0,1.1,0.2,2.1,0.5,2.9c0.3,0.8,0.9,1.6,1.7,2.3c0.8,0.7,1.8,1.3,3.1,1.9
	c1.3,0.6,2.9,1.2,4.8,1.8c1.9,0.6,3.7,1.2,5.4,1.9c1.7,0.7,3.3,1.5,4.6,2.6s2.4,2.3,3.2,3.9c0.8,1.6,1.2,3.5,1.2,5.9
	c0,2.4-0.5,4.5-1.4,6.3c-1,1.8-2.2,3.2-3.8,4.4c-1.6,1.2-3.4,2-5.4,2.6c-2,0.6-4.1,0.8-6.3,0.8c-1.4,0-2.8-0.1-4.2-0.4
	c-1.4-0.2-2.8-0.6-4-1.2c-1.3-0.5-2.5-1.2-3.6-2c-1.1-0.8-2.1-1.9-2.9-3.1l4.9-4c1,1.8,2.5,3.1,4.4,4c1.9,0.9,3.8,1.4,5.9,1.4
	c1.2,0,2.5-0.2,3.7-0.5c1.2-0.4,2.4-0.9,3.4-1.6c1-0.7,1.8-1.6,2.4-2.6c0.6-1,1-2.2,1-3.6c0-1.5-0.2-2.7-0.7-3.6
	c-0.5-0.9-1.3-1.7-2.3-2.4c-1-0.7-2.4-1.3-3.9-1.8c-1.6-0.5-3.4-1.2-5.6-1.9c-1.7-0.5-3.3-1.2-4.8-1.9c-1.5-0.7-2.7-1.6-3.8-2.6
	c-1.1-1-1.9-2.2-2.5-3.7c-0.6-1.4-0.9-3.1-0.9-5.1c0-2.3,0.5-4.3,1.4-6.1c0.9-1.7,2.1-3.2,3.7-4.3s3.3-2,5.2-2.6
	c1.9-0.6,4-0.9,6.1-0.9c2.7,0,5.2,0.4,7.4,1.3c2.2,0.8,4.2,2.3,6,4.4L451.7,217.5z"/>
<path class="st0" d="M9.8,426.6h16.2v2.9H13v8.7h12.2v2.9H13v11.8H9.8V426.6z"/>
<path class="st0" d="M28.9,444.2c0-1.4,0.2-2.6,0.7-3.7c0.5-1.1,1.1-2.1,1.9-2.9c0.8-0.8,1.8-1.4,2.9-1.9c1.1-0.4,2.4-0.7,3.7-0.7
	s2.6,0.2,3.7,0.7c1.1,0.4,2.1,1.1,2.9,1.9c0.8,0.8,1.5,1.8,1.9,2.9c0.5,1.1,0.7,2.3,0.7,3.7c0,1.4-0.2,2.6-0.7,3.7
	c-0.5,1.1-1.1,2.1-1.9,2.9s-1.8,1.4-2.9,1.9c-1.1,0.4-2.4,0.7-3.7,0.7s-2.6-0.2-3.7-0.7c-1.1-0.4-2.1-1.1-2.9-1.9
	c-0.8-0.8-1.5-1.8-1.9-2.9C29.1,446.7,28.9,445.5,28.9,444.2z M32,444.2c0,0.9,0.1,1.8,0.4,2.5c0.3,0.8,0.7,1.5,1.2,2
	c0.5,0.6,1.2,1,1.9,1.4c0.8,0.3,1.6,0.5,2.5,0.5s1.8-0.2,2.5-0.5c0.8-0.3,1.4-0.8,1.9-1.4c0.5-0.6,1-1.3,1.2-2
	c0.3-0.8,0.4-1.6,0.4-2.5c0-0.9-0.1-1.8-0.4-2.5s-0.7-1.5-1.2-2c-0.5-0.6-1.2-1-1.9-1.4c-0.8-0.3-1.6-0.5-2.5-0.5s-1.8,0.2-2.5,0.5
	c-0.8,0.3-1.4,0.8-1.9,1.4c-0.5,0.6-1,1.3-1.2,2S32,443.2,32,444.2z"/>
<path class="st0" d="M51.9,439.6c0-0.8,0-1.5-0.1-2.2s-0.1-1.3-0.1-1.9h2.7c0,0.5,0,0.9,0,1.4c0,0.5,0,1,0,1.4h0.1
	c0.2-0.4,0.5-0.8,0.8-1.2c0.4-0.4,0.8-0.7,1.3-1.1c0.5-0.3,1-0.6,1.7-0.7c0.6-0.2,1.3-0.3,2-0.3c0.2,0,0.4,0,0.6,0
	c0.2,0,0.4,0.1,0.6,0.1l-0.2,2.9c-0.5-0.1-1-0.2-1.6-0.2c-1.8,0-3.1,0.6-3.9,1.7c-0.8,1.1-1.2,2.7-1.2,4.7v8.4h-2.9V439.6z"/>
<path class="st0" d="M64.9,439.6c0-0.8,0-1.5-0.1-2.2s-0.1-1.3-0.1-1.9h2.7c0,0.5,0,0.9,0,1.4c0,0.5,0,1,0,1.4h0.1
	c0.2-0.4,0.5-0.8,0.8-1.2c0.4-0.4,0.8-0.7,1.3-1.1c0.5-0.3,1-0.6,1.7-0.7c0.6-0.2,1.3-0.3,2-0.3c0.9,0,1.7,0.1,2.3,0.4
	c0.6,0.2,1.2,0.5,1.6,0.9s0.7,0.7,1,1.1c0.2,0.4,0.4,0.7,0.6,1c0.6-1,1.4-1.8,2.2-2.4c0.8-0.6,1.9-0.9,3.3-0.9
	c1.2,0,2.3,0.2,3.1,0.5c0.8,0.3,1.5,0.8,2,1.4s0.9,1.4,1.1,2.3c0.2,0.9,0.3,1.9,0.3,3v10.5h-2.9v-10.4c0-0.6-0.1-1.2-0.2-1.7
	s-0.3-1.1-0.7-1.5c-0.3-0.4-0.8-0.8-1.3-1.1c-0.5-0.3-1.2-0.4-2.1-0.4c-0.6,0-1.2,0.1-1.7,0.4c-0.5,0.2-1,0.6-1.4,1
	c-0.4,0.4-0.7,1-1,1.6c-0.2,0.6-0.4,1.3-0.4,2.1v10h-2.9V443c0-1.9-0.3-3.3-0.8-4.1c-0.5-0.8-1.4-1.2-2.6-1.2
	c-0.9,0-1.7,0.2-2.4,0.5c-0.7,0.3-1.2,0.8-1.7,1.4c-0.4,0.6-0.8,1.3-1,2.1c-0.2,0.8-0.3,1.7-0.3,2.7v8.4h-2.9V439.6z"/>
<path class="st0" d="M96.2,437.7c0.9-0.9,1.9-1.6,3.2-2c1.2-0.4,2.5-0.6,3.7-0.6c2.6,0,4.4,0.6,5.6,1.8c1.1,1.2,1.7,3,1.7,5.5v7.4
	c0,0.5,0,1,0.1,1.5s0.1,1,0.2,1.5h-2.8c-0.1-0.4-0.2-0.8-0.2-1.3c0-0.5,0-0.9,0-1.3h-0.1c-0.6,0.9-1.3,1.6-2.3,2.2
	c-1,0.6-2.1,0.9-3.4,0.9c-0.9,0-1.7-0.1-2.5-0.3c-0.8-0.2-1.5-0.5-2-1c-0.6-0.4-1-1-1.4-1.6s-0.5-1.4-0.5-2.2c0-1.4,0.4-2.6,1.1-3.4
	c0.7-0.8,1.7-1.4,2.8-1.8c1.1-0.4,2.3-0.6,3.6-0.7c1.3-0.1,2.4-0.1,3.5-0.1h1.1v-0.5c0-1.3-0.4-2.2-1.1-2.8c-0.8-0.6-1.8-1-3.2-1
	c-0.9,0-1.9,0.2-2.8,0.5s-1.7,0.8-2.4,1.4L96.2,437.7z M104.6,444.5c-1.8,0-3.3,0.3-4.4,0.8c-1.1,0.5-1.6,1.4-1.6,2.6
	c0,1.1,0.4,1.9,1.1,2.3c0.7,0.5,1.6,0.7,2.7,0.7c0.8,0,1.6-0.1,2.2-0.4s1.2-0.7,1.6-1.1c0.4-0.5,0.7-1,1-1.6c0.2-0.6,0.3-1.3,0.4-2
	v-1.1H104.6z"/>
<path class="st0" d="M115.6,439.6c0-0.8,0-1.5-0.1-2.2s-0.1-1.3-0.1-1.9h2.7c0,0.5,0,0.9,0,1.4c0,0.5,0,1,0,1.4h0.1
	c0.2-0.4,0.5-0.8,0.8-1.2c0.4-0.4,0.8-0.7,1.3-1.1c0.5-0.3,1-0.6,1.7-0.7c0.6-0.2,1.3-0.3,2-0.3c1.1,0,2.1,0.2,2.9,0.5
	c0.8,0.3,1.5,0.8,2.1,1.4c0.5,0.6,0.9,1.4,1.2,2.2c0.3,0.9,0.4,1.8,0.4,2.9v10.7h-2.9v-10.4c0-1.5-0.3-2.6-1-3.4
	c-0.6-0.8-1.6-1.3-3-1.3c-0.9,0-1.7,0.2-2.4,0.5c-0.7,0.3-1.2,0.8-1.7,1.4c-0.4,0.6-0.8,1.3-1,2.1c-0.2,0.8-0.3,1.7-0.3,2.7v8.4
	h-2.9V439.6z"/>
<path class="st0" d="M150.6,449.7L150.6,449.7c-0.6,1-1.5,1.8-2.6,2.5c-1.2,0.7-2.5,1-4.1,1c-1.2,0-2.3-0.2-3.4-0.7
	c-1.1-0.5-2-1.1-2.8-1.9c-0.8-0.8-1.4-1.8-1.8-2.9c-0.4-1.1-0.7-2.3-0.7-3.6c0-1.3,0.2-2.5,0.7-3.6c0.4-1.1,1.1-2.1,1.9-2.9
	c0.8-0.8,1.7-1.4,2.9-1.9c1.1-0.5,2.4-0.7,3.7-0.7c1.3,0,2.4,0.3,3.5,0.8c1,0.5,2,1.2,2.8,2.2h0.1v-13.2h2.9v28h-2.9V449.7z
	 M150.6,444.2c0-0.9-0.1-1.8-0.4-2.5c-0.3-0.8-0.7-1.5-1.2-2c-0.5-0.6-1.2-1-1.9-1.4c-0.8-0.3-1.6-0.5-2.5-0.5s-1.8,0.2-2.5,0.5
	c-0.8,0.3-1.4,0.8-1.9,1.4c-0.5,0.6-1,1.3-1.2,2c-0.3,0.8-0.4,1.6-0.4,2.5c0,0.9,0.1,1.8,0.4,2.5c0.3,0.8,0.7,1.5,1.2,2
	c0.5,0.6,1.2,1,1.9,1.4c0.8,0.3,1.6,0.5,2.5,0.5s1.8-0.2,2.5-0.5c0.8-0.3,1.4-0.8,1.9-1.4c0.5-0.6,1-1.3,1.2-2
	C150.5,445.9,150.6,445.1,150.6,444.2z"/>
<path class="st0" d="M157.8,444.2c0-1.4,0.2-2.6,0.7-3.7c0.5-1.1,1.1-2.1,1.9-2.9c0.8-0.8,1.8-1.4,2.9-1.9s2.4-0.7,3.7-0.7
	c1.3,0,2.6,0.2,3.7,0.7c1.1,0.4,2.1,1.1,2.9,1.9c0.8,0.8,1.5,1.8,1.9,2.9c0.5,1.1,0.7,2.3,0.7,3.7c0,1.4-0.2,2.6-0.7,3.7
	c-0.5,1.1-1.1,2.1-1.9,2.9c-0.8,0.8-1.8,1.4-2.9,1.9c-1.1,0.4-2.4,0.7-3.7,0.7c-1.3,0-2.6-0.2-3.7-0.7s-2.1-1.1-2.9-1.9
	c-0.8-0.8-1.5-1.8-1.9-2.9C158,446.7,157.8,445.5,157.8,444.2z M160.9,444.2c0,0.9,0.1,1.8,0.4,2.5c0.3,0.8,0.7,1.5,1.2,2
	c0.5,0.6,1.2,1,1.9,1.4c0.8,0.3,1.6,0.5,2.5,0.5s1.8-0.2,2.5-0.5s1.4-0.8,1.9-1.4c0.5-0.6,1-1.3,1.2-2c0.3-0.8,0.4-1.6,0.4-2.5
	c0-0.9-0.1-1.8-0.4-2.5s-0.7-1.5-1.2-2c-0.5-0.6-1.2-1-1.9-1.4s-1.6-0.5-2.5-0.5s-1.8,0.2-2.5,0.5c-0.8,0.3-1.4,0.8-1.9,1.4
	c-0.5,0.6-1,1.3-1.2,2C161.1,442.4,160.9,443.2,160.9,444.2z"/>
<path class="st0" d="M191.6,426.6h7.8c1.2,0,2.4,0.1,3.5,0.4c1.1,0.2,2.1,0.6,2.9,1.2c0.9,0.6,1.5,1.3,2,2.2s0.8,2.1,0.8,3.4
	c0,1.4-0.3,2.6-0.8,3.6c-0.5,0.9-1.2,1.7-2.1,2.2c-0.9,0.5-1.8,0.9-2.8,1.1s-2,0.3-2.9,0.3h-5.3v11.8h-3.1V426.6z M194.7,438.2h5.3
	c1.6,0,2.8-0.4,3.8-1.1s1.5-1.8,1.5-3.3c0-1.5-0.5-2.6-1.5-3.3c-1-0.7-2.2-1.1-3.8-1.1h-5.3V438.2z"/>
<path class="st0" d="M213,439.6c0-0.8,0-1.5-0.1-2.2s-0.1-1.3-0.1-1.9h2.7c0,0.5,0,0.9,0,1.4c0,0.5,0,1,0,1.4h0.1
	c0.2-0.4,0.5-0.8,0.8-1.2c0.4-0.4,0.8-0.7,1.3-1.1c0.5-0.3,1-0.6,1.7-0.7c0.6-0.2,1.3-0.3,2-0.3c0.2,0,0.4,0,0.6,0
	c0.2,0,0.4,0.1,0.6,0.1l-0.2,2.9c-0.5-0.1-1-0.2-1.6-0.2c-1.8,0-3.1,0.6-3.9,1.7c-0.8,1.1-1.2,2.7-1.2,4.7v8.4H213V439.6z"/>
<path class="st0" d="M224.4,444.2c0-1.4,0.2-2.6,0.7-3.7c0.5-1.1,1.1-2.1,1.9-2.9c0.8-0.8,1.8-1.4,2.9-1.9c1.1-0.4,2.4-0.7,3.7-0.7
	s2.6,0.2,3.7,0.7c1.1,0.4,2.1,1.1,2.9,1.9c0.8,0.8,1.5,1.8,1.9,2.9c0.5,1.1,0.7,2.3,0.7,3.7c0,1.4-0.2,2.6-0.7,3.7
	c-0.5,1.1-1.1,2.1-1.9,2.9s-1.8,1.4-2.9,1.9c-1.1,0.4-2.4,0.7-3.7,0.7s-2.6-0.2-3.7-0.7c-1.1-0.4-2.1-1.1-2.9-1.9s-1.5-1.8-1.9-2.9
	C224.6,446.7,224.4,445.5,224.4,444.2z M227.5,444.2c0,0.9,0.1,1.8,0.4,2.5c0.3,0.8,0.7,1.5,1.2,2c0.5,0.6,1.2,1,1.9,1.4
	c0.8,0.3,1.6,0.5,2.5,0.5s1.8-0.2,2.5-0.5c0.8-0.3,1.4-0.8,1.9-1.4c0.5-0.6,1-1.3,1.2-2c0.3-0.8,0.4-1.6,0.4-2.5
	c0-0.9-0.1-1.8-0.4-2.5s-0.7-1.5-1.2-2c-0.5-0.6-1.2-1-1.9-1.4c-0.8-0.3-1.6-0.5-2.5-0.5s-1.8,0.2-2.5,0.5c-0.8,0.3-1.4,0.8-1.9,1.4
	c-0.5,0.6-1,1.3-1.2,2S227.5,443.2,227.5,444.2z"/>
<path class="st0" d="M248.8,437.9h-3.8v-2.4h3.8v-3.9c0-1.1,0.1-2,0.3-2.9c0.2-0.9,0.5-1.6,1-2.3c0.5-0.6,1.1-1.1,1.9-1.5
	s1.8-0.5,2.9-0.5c0.4,0,0.8,0,1.2,0.1c0.4,0.1,0.8,0.2,1,0.3l-0.4,2.6c-0.7-0.2-1.3-0.4-2-0.4c-0.7,0-1.3,0.1-1.7,0.4
	c-0.4,0.3-0.7,0.6-0.9,1.1c-0.2,0.5-0.3,1-0.4,1.6s-0.1,1.3-0.1,2.1v3.3h4.2v2.4h-4.2v14.9h-2.9V437.9z"/>
<path class="st0" d="M274.5,449.7c-1,1.3-2.2,2.3-3.4,2.8c-1.2,0.5-2.7,0.8-4.3,0.8c-1.4,0-2.6-0.2-3.7-0.7c-1.1-0.5-2-1.1-2.8-1.9
	s-1.3-1.8-1.7-2.9c-0.4-1.1-0.6-2.3-0.6-3.6c0-1.3,0.2-2.6,0.7-3.7s1.1-2.1,1.9-2.9c0.8-0.8,1.7-1.4,2.8-1.9s2.3-0.7,3.6-0.7
	c1.2,0,2.3,0.2,3.3,0.6s1.9,1,2.6,1.8c0.7,0.8,1.3,1.7,1.7,2.8c0.4,1.1,0.6,2.4,0.6,3.8v0.9h-14c0,0.7,0.2,1.4,0.5,2.1
	c0.3,0.7,0.7,1.3,1.2,1.8c0.5,0.5,1.1,0.9,1.7,1.2s1.4,0.4,2.2,0.4c1.3,0,2.3-0.2,3.2-0.7c0.9-0.4,1.6-1.1,2.3-2L274.5,449.7z
	 M272,442.6c0-1.5-0.5-2.7-1.4-3.6c-0.9-0.9-2.2-1.3-3.8-1.3s-2.9,0.4-3.9,1.3s-1.6,2.1-1.8,3.6H272z"/>
<path class="st0" d="M279.9,448.3c0.6,0.7,1.2,1.3,1.9,1.7c0.7,0.4,1.5,0.6,2.6,0.6c0.4,0,0.9,0,1.4-0.1c0.5-0.1,0.9-0.3,1.2-0.5
	c0.4-0.2,0.7-0.5,0.9-0.8c0.2-0.3,0.3-0.7,0.3-1.2c0-0.5-0.1-0.9-0.3-1.1c-0.2-0.3-0.5-0.5-0.8-0.8c-0.3-0.2-0.7-0.4-1.2-0.5
	c-0.4-0.1-0.9-0.2-1.4-0.3c-0.8-0.2-1.6-0.4-2.3-0.6s-1.4-0.5-1.9-0.9c-0.6-0.4-1-0.8-1.3-1.4s-0.5-1.3-0.5-2.2
	c0-0.8,0.2-1.6,0.6-2.2c0.4-0.6,0.9-1.2,1.5-1.6c0.6-0.4,1.3-0.7,2.1-1s1.6-0.3,2.4-0.3c1.2,0,2.4,0.2,3.4,0.7s1.9,1.3,2.5,2.4
	l-2.4,1.6c-0.4-0.6-0.9-1.1-1.5-1.5c-0.6-0.4-1.3-0.6-2.2-0.6c-0.4,0-0.8,0-1.2,0.1c-0.4,0.1-0.8,0.2-1.1,0.4
	c-0.3,0.2-0.6,0.5-0.8,0.8c-0.2,0.3-0.3,0.7-0.3,1.1c0,0.4,0.1,0.7,0.4,0.9s0.6,0.5,1,0.7c0.4,0.2,0.9,0.4,1.4,0.5
	c0.5,0.1,1.1,0.3,1.6,0.4c0.8,0.1,1.5,0.3,2.2,0.6c0.7,0.2,1.3,0.5,1.8,0.9c0.5,0.4,0.9,0.9,1.2,1.5c0.3,0.6,0.4,1.3,0.4,2.2
	c0,1-0.2,1.8-0.6,2.5s-0.9,1.3-1.6,1.7c-0.7,0.4-1.4,0.7-2.2,0.9s-1.7,0.3-2.5,0.3c-1.5,0-2.8-0.2-3.8-0.7c-1.1-0.5-2-1.3-2.9-2.5
	L279.9,448.3z"/>
<path class="st0" d="M294.9,428.7c0-0.6,0.2-1.1,0.6-1.5c0.4-0.4,0.9-0.6,1.5-0.6c0.6,0,1.1,0.2,1.5,0.6c0.4,0.4,0.6,0.9,0.6,1.5
	c0,0.6-0.2,1.1-0.6,1.5s-0.9,0.6-1.5,0.6c-0.6,0-1.1-0.2-1.5-0.6S294.9,429.3,294.9,428.7z M295.6,435.5h2.9v17.3h-2.9V435.5z"/>
<path class="st0" d="M303.2,444.2c0-1.4,0.2-2.6,0.7-3.7c0.5-1.1,1.1-2.1,1.9-2.9c0.8-0.8,1.8-1.4,2.9-1.9s2.4-0.7,3.7-0.7
	c1.3,0,2.6,0.2,3.7,0.7s2.1,1.1,2.9,1.9c0.8,0.8,1.5,1.8,1.9,2.9c0.5,1.1,0.7,2.3,0.7,3.7c0,1.4-0.2,2.6-0.7,3.7
	c-0.5,1.1-1.1,2.1-1.9,2.9s-1.8,1.4-2.9,1.9s-2.4,0.7-3.7,0.7c-1.3,0-2.6-0.2-3.7-0.7s-2.1-1.1-2.9-1.9c-0.8-0.8-1.5-1.8-1.9-2.9
	C303.4,446.7,303.2,445.5,303.2,444.2z M306.3,444.2c0,0.9,0.1,1.8,0.4,2.5c0.3,0.8,0.7,1.5,1.2,2c0.5,0.6,1.2,1,1.9,1.4
	c0.8,0.3,1.6,0.5,2.5,0.5s1.8-0.2,2.5-0.5c0.8-0.3,1.4-0.8,1.9-1.4c0.5-0.6,1-1.3,1.2-2c0.3-0.8,0.4-1.6,0.4-2.5
	c0-0.9-0.1-1.8-0.4-2.5c-0.3-0.8-0.7-1.5-1.2-2c-0.5-0.6-1.2-1-1.9-1.4c-0.8-0.3-1.6-0.5-2.5-0.5s-1.8,0.2-2.5,0.5
	c-0.8,0.3-1.4,0.8-1.9,1.4c-0.5,0.6-1,1.3-1.2,2C306.5,442.4,306.3,443.2,306.3,444.2z"/>
<path class="st0" d="M326.2,439.6c0-0.8,0-1.5-0.1-2.2c-0.1-0.7-0.1-1.3-0.1-1.9h2.7c0,0.5,0,0.9,0,1.4c0,0.5,0,1,0,1.4h0.1
	c0.2-0.4,0.5-0.8,0.8-1.2c0.4-0.4,0.8-0.7,1.3-1.1c0.5-0.3,1-0.6,1.7-0.7c0.6-0.2,1.3-0.3,2-0.3c1.1,0,2.1,0.2,2.9,0.5
	c0.8,0.3,1.5,0.8,2.1,1.4c0.5,0.6,0.9,1.4,1.2,2.2c0.3,0.9,0.4,1.8,0.4,2.9v10.7h-2.9v-10.4c0-1.5-0.3-2.6-1-3.4
	c-0.6-0.8-1.6-1.3-3-1.3c-0.9,0-1.7,0.2-2.4,0.5c-0.7,0.3-1.2,0.8-1.7,1.4c-0.4,0.6-0.8,1.3-1,2.1c-0.2,0.8-0.3,1.7-0.3,2.7v8.4
	h-2.9V439.6z"/>
<path class="st0" d="M346.5,437.7c0.9-0.9,1.9-1.6,3.2-2c1.2-0.4,2.5-0.6,3.7-0.6c2.6,0,4.4,0.6,5.6,1.8c1.1,1.2,1.7,3,1.7,5.5v7.4
	c0,0.5,0,1,0.1,1.5s0.1,1,0.2,1.5h-2.8c-0.1-0.4-0.2-0.8-0.2-1.3c0-0.5,0-0.9,0-1.3h-0.1c-0.6,0.9-1.3,1.6-2.3,2.2
	c-1,0.6-2.1,0.9-3.4,0.9c-0.9,0-1.7-0.1-2.5-0.3c-0.8-0.2-1.5-0.5-2-1c-0.6-0.4-1-1-1.4-1.6s-0.5-1.4-0.5-2.2c0-1.4,0.4-2.6,1.1-3.4
	c0.7-0.8,1.7-1.4,2.8-1.8c1.1-0.4,2.3-0.6,3.6-0.7c1.3-0.1,2.4-0.1,3.5-0.1h1.1v-0.5c0-1.3-0.4-2.2-1.1-2.8c-0.8-0.6-1.8-1-3.2-1
	c-0.9,0-1.9,0.2-2.8,0.5s-1.7,0.8-2.4,1.4L346.5,437.7z M354.9,444.5c-1.8,0-3.3,0.3-4.4,0.8c-1.1,0.5-1.6,1.4-1.6,2.6
	c0,1.1,0.4,1.9,1.1,2.3c0.7,0.5,1.6,0.7,2.7,0.7c0.8,0,1.6-0.1,2.2-0.4s1.2-0.7,1.6-1.1c0.4-0.5,0.7-1,1-1.6c0.2-0.6,0.3-1.3,0.4-2
	v-1.1H354.9z"/>
<path class="st0" d="M366.2,424.8h2.9v28h-2.9V424.8z"/>
<path class="st0" d="M390.3,449.7c-1,1.3-2.2,2.3-3.4,2.8c-1.2,0.5-2.7,0.8-4.3,0.8c-1.4,0-2.6-0.2-3.7-0.7c-1.1-0.5-2-1.1-2.8-1.9
	s-1.3-1.8-1.7-2.9c-0.4-1.1-0.6-2.3-0.6-3.6c0-1.3,0.2-2.6,0.7-3.7c0.4-1.1,1.1-2.1,1.8-2.9c0.8-0.8,1.7-1.4,2.8-1.9
	s2.3-0.7,3.6-0.7c1.2,0,2.3,0.2,3.3,0.6c1,0.4,1.9,1,2.6,1.8c0.7,0.8,1.3,1.7,1.7,2.8c0.4,1.1,0.6,2.4,0.6,3.8v0.9h-14
	c0,0.7,0.2,1.4,0.5,2.1c0.3,0.7,0.7,1.3,1.2,1.8c0.5,0.5,1.1,0.9,1.7,1.2s1.4,0.4,2.2,0.4c1.3,0,2.3-0.2,3.2-0.7s1.6-1.1,2.3-2
	L390.3,449.7z M387.8,442.6c0-1.5-0.5-2.7-1.4-3.6s-2.2-1.3-3.8-1.3s-2.9,0.4-3.9,1.3c-1,0.9-1.6,2.1-1.8,3.6H387.8z"/>
<path class="st0" d="M395.8,448.3c0.6,0.7,1.2,1.3,1.9,1.7c0.7,0.4,1.5,0.6,2.6,0.6c0.4,0,0.9,0,1.4-0.1c0.5-0.1,0.9-0.3,1.2-0.5
	c0.4-0.2,0.7-0.5,0.9-0.8c0.2-0.3,0.3-0.7,0.3-1.2c0-0.5-0.1-0.9-0.3-1.1c-0.2-0.3-0.5-0.5-0.8-0.8s-0.7-0.4-1.2-0.5
	c-0.4-0.1-0.9-0.2-1.4-0.3c-0.8-0.2-1.6-0.4-2.3-0.6c-0.7-0.2-1.4-0.5-1.9-0.9s-1-0.8-1.3-1.4s-0.5-1.3-0.5-2.2
	c0-0.8,0.2-1.6,0.6-2.2c0.4-0.6,0.9-1.2,1.5-1.6c0.6-0.4,1.3-0.7,2.1-1c0.8-0.2,1.6-0.3,2.4-0.3c1.2,0,2.4,0.2,3.4,0.7
	c1,0.5,1.9,1.3,2.5,2.4l-2.4,1.6c-0.4-0.6-0.9-1.1-1.5-1.5c-0.6-0.4-1.3-0.6-2.2-0.6c-0.4,0-0.8,0-1.2,0.1c-0.4,0.1-0.8,0.2-1.1,0.4
	c-0.3,0.2-0.6,0.5-0.8,0.8c-0.2,0.3-0.3,0.7-0.3,1.1c0,0.4,0.1,0.7,0.4,0.9c0.2,0.3,0.6,0.5,1,0.7c0.4,0.2,0.9,0.4,1.4,0.5
	c0.5,0.1,1.1,0.3,1.6,0.4c0.8,0.1,1.5,0.3,2.2,0.6c0.7,0.2,1.3,0.5,1.8,0.9c0.5,0.4,0.9,0.9,1.2,1.5c0.3,0.6,0.4,1.3,0.4,2.2
	c0,1-0.2,1.8-0.6,2.5c-0.4,0.7-0.9,1.3-1.6,1.7c-0.7,0.4-1.4,0.7-2.2,0.9c-0.8,0.2-1.7,0.3-2.5,0.3c-1.5,0-2.8-0.2-3.8-0.7
	c-1.1-0.5-2-1.3-2.9-2.5L395.8,448.3z"/>
<path class="st0" d="M435.9,449.7L435.9,449.7c-0.6,1-1.5,1.8-2.6,2.5c-1.2,0.7-2.5,1-4.1,1c-1.2,0-2.3-0.2-3.4-0.7
	c-1.1-0.5-2-1.1-2.8-1.9c-0.8-0.8-1.4-1.8-1.8-2.9c-0.4-1.1-0.7-2.3-0.7-3.6c0-1.3,0.2-2.5,0.7-3.6c0.4-1.1,1.1-2.1,1.9-2.9
	c0.8-0.8,1.7-1.4,2.9-1.9c1.1-0.5,2.4-0.7,3.7-0.7c1.3,0,2.4,0.3,3.5,0.8c1,0.5,2,1.2,2.8,2.2h0.1v-13.2h2.9v28h-2.9V449.7z
	 M435.9,444.2c0-0.9-0.1-1.8-0.4-2.5s-0.7-1.5-1.2-2c-0.5-0.6-1.2-1-1.9-1.4s-1.6-0.5-2.5-0.5s-1.8,0.2-2.5,0.5
	c-0.8,0.3-1.4,0.8-1.9,1.4c-0.5,0.6-1,1.3-1.2,2c-0.3,0.8-0.4,1.6-0.4,2.5c0,0.9,0.1,1.8,0.4,2.5c0.3,0.8,0.7,1.5,1.2,2
	c0.5,0.6,1.2,1,1.9,1.4c0.8,0.3,1.6,0.5,2.5,0.5s1.8-0.2,2.5-0.5s1.4-0.8,1.9-1.4c0.5-0.6,1-1.3,1.2-2
	C435.7,445.9,435.9,445.1,435.9,444.2z"/>
<path class="st0" d="M459.5,449.7c-1,1.3-2.2,2.3-3.4,2.8c-1.2,0.5-2.7,0.8-4.3,0.8c-1.4,0-2.6-0.2-3.7-0.7c-1.1-0.5-2-1.1-2.8-1.9
	s-1.3-1.8-1.7-2.9c-0.4-1.1-0.6-2.3-0.6-3.6c0-1.3,0.2-2.6,0.7-3.7c0.4-1.1,1.1-2.1,1.8-2.9c0.8-0.8,1.7-1.4,2.8-1.9
	s2.3-0.7,3.6-0.7c1.2,0,2.3,0.2,3.3,0.6c1,0.4,1.9,1,2.6,1.8c0.7,0.8,1.3,1.7,1.7,2.8c0.4,1.1,0.6,2.4,0.6,3.8v0.9h-14
	c0,0.7,0.2,1.4,0.5,2.1c0.3,0.7,0.7,1.3,1.2,1.8c0.5,0.5,1.1,0.9,1.7,1.2s1.4,0.4,2.2,0.4c1.3,0,2.3-0.2,3.2-0.7s1.6-1.1,2.3-2
	L459.5,449.7z M457.1,442.6c0-1.5-0.5-2.7-1.4-3.6s-2.2-1.3-3.8-1.3s-2.9,0.4-3.9,1.3c-1,0.9-1.6,2.1-1.8,3.6H457.1z"/>
<path class="st0" d="M475.2,424.8h2.9v28h-2.9V424.8z"/>
<path class="st0" d="M483.6,437.7c0.9-0.9,1.9-1.6,3.2-2s2.5-0.6,3.7-0.6c2.6,0,4.4,0.6,5.6,1.8c1.1,1.2,1.7,3,1.7,5.5v7.4
	c0,0.5,0,1,0.1,1.5c0,0.5,0.1,1,0.2,1.5h-2.8c-0.1-0.4-0.2-0.8-0.2-1.3c0-0.5,0-0.9,0-1.3h-0.1c-0.6,0.9-1.3,1.6-2.3,2.2
	c-0.9,0.6-2.1,0.9-3.4,0.9c-0.9,0-1.7-0.1-2.5-0.3s-1.5-0.5-2-1s-1-1-1.4-1.6c-0.3-0.6-0.5-1.4-0.5-2.2c0-1.4,0.4-2.6,1.1-3.4
	c0.7-0.8,1.7-1.4,2.8-1.8s2.3-0.6,3.6-0.7c1.3-0.1,2.4-0.1,3.5-0.1h1.1v-0.5c0-1.3-0.4-2.2-1.1-2.8c-0.8-0.6-1.8-1-3.2-1
	c-0.9,0-1.9,0.2-2.8,0.5s-1.7,0.8-2.4,1.4L483.6,437.7z M492,444.5c-1.9,0-3.3,0.3-4.4,0.8c-1.1,0.5-1.6,1.4-1.6,2.6
	c0,1.1,0.4,1.9,1.1,2.3c0.7,0.5,1.6,0.7,2.7,0.7c0.8,0,1.6-0.1,2.2-0.4s1.2-0.7,1.6-1.1c0.4-0.5,0.7-1,1-1.6s0.3-1.3,0.4-2v-1.1H492
	z"/>
<path class="st0" d="M526.2,431.2c-0.5-0.8-1.2-1.4-2.1-1.8c-0.9-0.4-1.8-0.6-2.7-0.6c-0.7,0-1.4,0.1-2,0.3
	c-0.7,0.2-1.3,0.4-1.8,0.8s-1,0.8-1.3,1.4s-0.5,1.2-0.5,2c0,0.6,0.1,1.1,0.3,1.6c0.2,0.5,0.5,0.9,0.9,1.2c0.4,0.4,1,0.7,1.7,1
	c0.7,0.3,1.6,0.6,2.6,1c1,0.3,2,0.7,2.9,1c0.9,0.4,1.8,0.8,2.5,1.4s1.3,1.3,1.7,2.1c0.4,0.9,0.6,1.9,0.6,3.2c0,1.3-0.3,2.4-0.8,3.4
	c-0.5,1-1.2,1.8-2.1,2.4c-0.9,0.6-1.8,1.1-2.9,1.4c-1.1,0.3-2.3,0.5-3.4,0.5c-0.8,0-1.5-0.1-2.3-0.2c-0.8-0.1-1.5-0.3-2.2-0.6
	s-1.4-0.7-2-1.1c-0.6-0.5-1.1-1-1.6-1.7l2.7-2.2c0.6,1,1.4,1.7,2.4,2.2c1,0.5,2.1,0.7,3.2,0.7c0.7,0,1.3-0.1,2-0.3s1.3-0.5,1.8-0.9
	c0.5-0.4,1-0.9,1.3-1.4s0.5-1.2,0.5-2c0-0.8-0.1-1.5-0.4-2s-0.7-0.9-1.3-1.3c-0.6-0.4-1.3-0.7-2.1-1s-1.9-0.6-3-1
	c-0.9-0.3-1.8-0.6-2.6-1c-0.8-0.4-1.5-0.9-2.1-1.4c-0.6-0.6-1-1.2-1.4-2c-0.3-0.8-0.5-1.7-0.5-2.8c0-1.3,0.2-2.4,0.7-3.3
	s1.2-1.7,2-2.3s1.8-1.1,2.8-1.4c1.1-0.3,2.2-0.5,3.3-0.5c1.5,0,2.8,0.2,4.1,0.7c1.2,0.5,2.3,1.3,3.3,2.4L526.2,431.2z"/>
<path class="st0" d="M533.6,437.7c0.9-0.9,1.9-1.6,3.2-2c1.2-0.4,2.5-0.6,3.7-0.6c2.6,0,4.4,0.6,5.6,1.8c1.1,1.2,1.7,3,1.7,5.5v7.4
	c0,0.5,0,1,0.1,1.5s0.1,1,0.2,1.5h-2.8c-0.1-0.4-0.2-0.8-0.2-1.3c0-0.5,0-0.9,0-1.3H545c-0.6,0.9-1.3,1.6-2.3,2.2
	c-1,0.6-2.1,0.9-3.4,0.9c-0.9,0-1.7-0.1-2.5-0.3c-0.8-0.2-1.5-0.5-2-1c-0.6-0.4-1-1-1.4-1.6s-0.5-1.4-0.5-2.2c0-1.4,0.4-2.6,1.1-3.4
	c0.7-0.8,1.7-1.4,2.8-1.8c1.1-0.4,2.3-0.6,3.6-0.7c1.3-0.1,2.4-0.1,3.5-0.1h1.1v-0.5c0-1.3-0.4-2.2-1.1-2.8c-0.8-0.6-1.8-1-3.2-1
	c-0.9,0-1.9,0.2-2.8,0.5s-1.7,0.8-2.4,1.4L533.6,437.7z M542,444.5c-1.8,0-3.3,0.3-4.4,0.8c-1.1,0.5-1.6,1.4-1.6,2.6
	c0,1.1,0.4,1.9,1.1,2.3c0.7,0.5,1.6,0.7,2.7,0.7c0.8,0,1.6-0.1,2.2-0.4s1.2-0.7,1.6-1.1c0.4-0.5,0.7-1,1-1.6c0.2-0.6,0.3-1.3,0.4-2
	v-1.1H542z"/>
<path class="st0" d="M553.3,424.8h2.9v28h-2.9V424.8z"/>
<path class="st0" d="M577.1,448.7c0,0.8,0,1.5,0.1,2.2c0,0.7,0.1,1.3,0.1,1.9h-2.7c0-0.5,0-0.9,0-1.4c0-0.5,0-1,0-1.4h-0.1
	c-0.2,0.4-0.5,0.8-0.8,1.2c-0.4,0.4-0.8,0.7-1.3,1.1c-0.5,0.3-1,0.6-1.7,0.7c-0.6,0.2-1.3,0.3-2,0.3c-1.1,0-2.1-0.2-2.9-0.5
	c-0.8-0.3-1.5-0.8-2.1-1.4c-0.5-0.6-0.9-1.4-1.2-2.2c-0.3-0.9-0.4-1.8-0.4-2.9v-10.7h2.9v10.4c0,1.5,0.3,2.6,1,3.4
	c0.6,0.8,1.6,1.3,3,1.3c0.9,0,1.7-0.2,2.4-0.5c0.7-0.3,1.2-0.8,1.7-1.4c0.4-0.6,0.8-1.3,1-2.1c0.2-0.8,0.3-1.7,0.3-2.7v-8.4h2.9
	V448.7z"/>
<path class="st0" d="M596.9,449.7L596.9,449.7c-0.6,1-1.5,1.8-2.6,2.5s-2.5,1-4.1,1c-1.2,0-2.3-0.2-3.4-0.7s-2-1.1-2.8-1.9
	c-0.8-0.8-1.4-1.8-1.8-2.9c-0.4-1.1-0.7-2.3-0.7-3.6c0-1.3,0.2-2.5,0.7-3.6c0.4-1.1,1.1-2.1,1.8-2.9c0.8-0.8,1.7-1.4,2.9-1.9
	c1.1-0.5,2.4-0.7,3.7-0.7c1.3,0,2.4,0.3,3.5,0.8c1,0.5,2,1.2,2.8,2.2h0.1v-13.2h2.9v28h-2.9V449.7z M596.9,444.2
	c0-0.9-0.1-1.8-0.4-2.5c-0.3-0.8-0.7-1.5-1.2-2c-0.5-0.6-1.2-1-1.9-1.4s-1.6-0.5-2.5-0.5s-1.8,0.2-2.5,0.5s-1.4,0.8-1.9,1.4
	c-0.5,0.6-1,1.3-1.2,2s-0.4,1.6-0.4,2.5c0,0.9,0.1,1.8,0.4,2.5c0.3,0.8,0.7,1.5,1.2,2c0.5,0.6,1.2,1,1.9,1.4s1.6,0.5,2.5,0.5
	s1.8-0.2,2.5-0.5s1.4-0.8,1.9-1.4c0.5-0.6,1-1.3,1.2-2C596.8,445.9,596.9,445.1,596.9,444.2z"/>
<path class="st0" d="M207.5,10.3h10.1c0.9,0,1.8,0.1,2.7,0.3c1,0.2,1.9,0.5,2.9,0.9c0.9,0.4,1.9,1,2.7,1.7c0.9,0.7,1.6,1.5,2.3,2.5
	s1.2,2.1,1.6,3.4s0.6,2.7,0.6,4.3s-0.2,3-0.6,4.3s-0.9,2.4-1.6,3.4c-0.7,1-1.4,1.8-2.3,2.5c-0.9,0.7-1.8,1.3-2.7,1.7
	c-1,0.4-1.9,0.7-2.9,0.9c-1,0.2-1.9,0.3-2.7,0.3h-10.1V10.3z M210.6,33.6h5.9c1.5,0,2.9-0.2,4.2-0.6c1.3-0.4,2.4-1,3.3-1.8
	c0.9-0.8,1.7-1.9,2.2-3.2c0.5-1.3,0.8-2.8,0.8-4.6s-0.3-3.3-0.8-4.6c-0.5-1.3-1.3-2.3-2.2-3.2c-0.9-0.8-2-1.4-3.3-1.8
	c-1.3-0.4-2.7-0.6-4.2-0.6h-5.9V33.6z"/>
<path class="st0" d="M250.4,33.4c-1,1.3-2.2,2.3-3.4,2.8c-1.2,0.5-2.7,0.8-4.3,0.8c-1.4,0-2.6-0.2-3.7-0.7c-1.1-0.5-2-1.1-2.8-1.9
	c-0.8-0.8-1.3-1.8-1.7-2.9c-0.4-1.1-0.6-2.3-0.6-3.6c0-1.3,0.2-2.6,0.7-3.7c0.4-1.1,1.1-2.1,1.8-2.9c0.8-0.8,1.7-1.4,2.8-1.9
	c1.1-0.4,2.3-0.7,3.6-0.7c1.2,0,2.3,0.2,3.3,0.6c1,0.4,1.9,1,2.6,1.8c0.7,0.8,1.3,1.7,1.7,2.8c0.4,1.1,0.6,2.4,0.6,3.8v0.9h-14
	c0,0.7,0.2,1.4,0.5,2.1c0.3,0.7,0.7,1.3,1.2,1.8c0.5,0.5,1.1,0.9,1.7,1.2s1.4,0.4,2.2,0.4c1.3,0,2.3-0.2,3.2-0.7
	c0.9-0.4,1.6-1.1,2.3-2L250.4,33.4z M247.9,26.3c0-1.5-0.5-2.7-1.4-3.6c-0.9-0.9-2.2-1.3-3.8-1.3s-2.9,0.4-3.9,1.3
	c-1,0.9-1.6,2.1-1.8,3.6H247.9z"/>
<path class="st0" d="M255.8,32c0.6,0.7,1.2,1.3,1.9,1.7c0.7,0.4,1.5,0.6,2.6,0.6c0.4,0,0.9,0,1.4-0.1c0.5-0.1,0.9-0.3,1.2-0.5
	c0.4-0.2,0.7-0.5,0.9-0.8c0.2-0.3,0.3-0.7,0.3-1.2c0-0.5-0.1-0.9-0.3-1.1c-0.2-0.3-0.5-0.5-0.8-0.8c-0.3-0.2-0.7-0.4-1.2-0.5
	c-0.4-0.1-0.9-0.2-1.4-0.3c-0.8-0.2-1.6-0.4-2.3-0.6c-0.7-0.2-1.4-0.5-1.9-0.9c-0.6-0.4-1-0.8-1.3-1.4s-0.5-1.3-0.5-2.2
	c0-0.8,0.2-1.6,0.6-2.2c0.4-0.6,0.9-1.2,1.5-1.6c0.6-0.4,1.3-0.7,2.1-1c0.8-0.2,1.6-0.3,2.4-0.3c1.2,0,2.4,0.2,3.4,0.7
	c1,0.5,1.9,1.3,2.5,2.4l-2.4,1.6c-0.4-0.6-0.9-1.1-1.5-1.5c-0.6-0.4-1.3-0.6-2.2-0.6c-0.4,0-0.8,0-1.2,0.1c-0.4,0.1-0.8,0.2-1.1,0.4
	s-0.6,0.5-0.8,0.8c-0.2,0.3-0.3,0.7-0.3,1.1c0,0.4,0.1,0.7,0.4,0.9c0.2,0.3,0.6,0.5,1,0.7c0.4,0.2,0.9,0.4,1.4,0.5
	c0.5,0.1,1.1,0.3,1.6,0.4c0.8,0.1,1.5,0.3,2.2,0.6c0.7,0.2,1.3,0.5,1.8,0.9c0.5,0.4,0.9,0.9,1.2,1.5c0.3,0.6,0.4,1.3,0.4,2.2
	c0,1-0.2,1.8-0.6,2.5c-0.4,0.7-0.9,1.3-1.6,1.7c-0.7,0.4-1.4,0.7-2.2,0.9c-0.8,0.2-1.7,0.3-2.5,0.3c-1.5,0-2.8-0.2-3.8-0.7
	c-1.1-0.5-2-1.3-2.9-2.5L255.8,32z"/>
<path class="st0" d="M285.6,33.5L285.6,33.5c-0.6,1-1.5,1.8-2.6,2.5c-1.2,0.7-2.5,1-4.1,1c-1.2,0-2.3-0.2-3.4-0.7s-2-1.1-2.8-1.9
	c-0.8-0.8-1.4-1.8-1.8-2.9c-0.4-1.1-0.7-2.3-0.7-3.6c0-1.3,0.2-2.5,0.7-3.6c0.4-1.1,1.1-2.1,1.8-2.9c0.8-0.8,1.7-1.4,2.9-1.9
	c1.1-0.5,2.4-0.7,3.7-0.7c1.3,0,2.4,0.3,3.5,0.8c1,0.5,2,1.2,2.8,2.2h0.1V8.6h2.9v28h-2.9V33.5z M285.6,27.9c0-0.9-0.1-1.8-0.4-2.5
	c-0.3-0.8-0.7-1.5-1.2-2c-0.5-0.6-1.2-1-1.9-1.4s-1.6-0.5-2.5-0.5s-1.8,0.2-2.5,0.5s-1.4,0.8-1.9,1.4c-0.5,0.6-1,1.3-1.2,2
	s-0.4,1.6-0.4,2.5c0,0.9,0.1,1.8,0.4,2.5c0.3,0.8,0.7,1.5,1.2,2c0.5,0.6,1.2,1,1.9,1.4s1.6,0.5,2.5,0.5s1.8-0.2,2.5-0.5
	s1.4-0.8,1.9-1.4c0.5-0.6,1-1.3,1.2-2C285.5,29.6,285.6,28.8,285.6,27.9z"/>
<path class="st0" d="M309.3,33.4c-1,1.3-2.2,2.3-3.4,2.8c-1.2,0.5-2.7,0.8-4.3,0.8c-1.4,0-2.6-0.2-3.7-0.7c-1.1-0.5-2-1.1-2.8-1.9
	c-0.8-0.8-1.3-1.8-1.7-2.9c-0.4-1.1-0.6-2.3-0.6-3.6c0-1.3,0.2-2.6,0.7-3.7c0.4-1.1,1.1-2.1,1.9-2.9c0.8-0.8,1.7-1.4,2.8-1.9
	c1.1-0.4,2.3-0.7,3.6-0.7c1.2,0,2.3,0.2,3.3,0.6s1.9,1,2.6,1.8c0.7,0.8,1.3,1.7,1.7,2.8c0.4,1.1,0.6,2.4,0.6,3.8v0.9h-14
	c0,0.7,0.2,1.4,0.5,2.1c0.3,0.7,0.7,1.3,1.2,1.8c0.5,0.5,1.1,0.9,1.7,1.2s1.4,0.4,2.2,0.4c1.3,0,2.3-0.2,3.2-0.7
	c0.9-0.4,1.6-1.1,2.3-2L309.3,33.4z M306.8,26.3c0-1.5-0.5-2.7-1.4-3.6c-0.9-0.9-2.2-1.3-3.8-1.3s-2.9,0.4-3.9,1.3
	c-1,0.9-1.6,2.1-1.8,3.6H306.8z"/>
<path class="st0" d="M335.3,36.5h-3.1V14.3h-0.1l-4.7,4l-1.8-2.3l7-5.7h2.7V36.5z"/>
<path class="st0" d="M355.6,25.6L355.6,25.6c-0.6,0.2-1.1,0.4-1.8,0.5c-0.7,0.1-1.3,0.2-1.8,0.2c-1.1,0-2.2-0.2-3.2-0.6
	s-1.8-1-2.5-1.7s-1.3-1.6-1.6-2.6s-0.6-2.1-0.6-3.3c0-1.3,0.2-2.4,0.7-3.4c0.4-1,1.1-1.9,1.8-2.6s1.7-1.2,2.8-1.6
	c1.1-0.4,2.2-0.6,3.5-0.6c1.2,0,2.4,0.2,3.5,0.6c1.1,0.4,2,0.9,2.8,1.6s1.4,1.6,1.9,2.6c0.4,1,0.7,2.2,0.7,3.4
	c0,0.8-0.1,1.5-0.2,2.1c-0.1,0.6-0.3,1.3-0.5,1.9s-0.5,1.2-0.8,1.7c-0.3,0.6-0.6,1.1-1,1.7l-7,11.1h-3.6L355.6,25.6z M352.8,23.7
	c0.8,0,1.5-0.1,2.2-0.4c0.7-0.3,1.3-0.6,1.8-1.1c0.5-0.5,0.9-1.1,1.2-1.7c0.3-0.7,0.4-1.4,0.4-2.3c0-0.8-0.1-1.6-0.4-2.3
	c-0.3-0.7-0.7-1.3-1.2-1.8s-1.1-0.9-1.8-1.1c-0.7-0.3-1.4-0.4-2.2-0.4c-0.8,0-1.5,0.1-2.2,0.4c-0.7,0.3-1.3,0.6-1.8,1.1
	s-0.9,1.1-1.2,1.8s-0.4,1.5-0.4,2.3c0,0.9,0.1,1.6,0.4,2.3s0.7,1.3,1.2,1.7c0.5,0.5,1.1,0.9,1.8,1.1C351.3,23.5,352,23.7,352.8,23.7
	z"/>
<path class="st0" d="M380.6,13.2h-10.7l-0.1,7.1c0.5-0.2,1-0.4,1.6-0.5c0.6-0.1,1.2-0.1,1.7-0.1c1.3,0,2.4,0.2,3.4,0.6
	s1.9,1,2.6,1.8c0.7,0.8,1.3,1.7,1.7,2.7c0.4,1,0.6,2.2,0.6,3.4c0,1.3-0.2,2.5-0.7,3.6c-0.5,1.1-1.1,2-1.9,2.7
	c-0.8,0.8-1.8,1.3-2.8,1.8c-1.1,0.4-2.3,0.6-3.6,0.6c-2,0-3.6-0.4-4.8-1.3c-1.2-0.9-2.2-2-2.9-3.5l3.1-1.2c0.4,1,1.1,1.8,1.9,2.4
	c0.9,0.6,1.8,0.9,2.9,0.9c0.8,0,1.5-0.1,2.2-0.4c0.7-0.3,1.3-0.7,1.8-1.2c0.5-0.5,0.9-1.2,1.2-1.9c0.3-0.7,0.4-1.6,0.4-2.5
	c0-1-0.2-1.8-0.5-2.6c-0.3-0.7-0.8-1.4-1.4-1.9c-0.6-0.5-1.3-0.9-2.1-1.1c-0.8-0.3-1.6-0.4-2.6-0.4c-0.9,0-1.8,0.2-2.7,0.5
	c-0.9,0.3-1.8,0.7-2.6,1.2l0.3-13.6h13.7V13.2z"/>
<path class="st0" d="M391.2,21.4h1c0.6,0,1.3,0,2-0.1c0.7-0.1,1.3-0.3,1.9-0.6c0.6-0.3,1.1-0.8,1.4-1.4c0.4-0.6,0.6-1.4,0.6-2.4
	c0-1.3-0.4-2.4-1.2-3.2s-1.9-1.2-3.2-1.2c-1.1,0-2.1,0.2-2.9,0.7c-0.8,0.5-1.5,1.2-1.9,2.2l-3-1.1c0.6-1.5,1.6-2.6,3-3.3
	c1.4-0.7,2.9-1.1,4.6-1.1c1,0,2,0.1,3,0.4s1.8,0.7,2.5,1.3c0.7,0.6,1.3,1.3,1.7,2.1s0.6,1.8,0.6,3c0,1.4-0.4,2.6-1.2,3.7
	c-0.8,1.1-1.9,1.9-3.2,2.3v0.1c0.8,0.1,1.6,0.4,2.2,0.8c0.7,0.4,1.2,0.9,1.7,1.5c0.5,0.6,0.8,1.2,1.1,2c0.2,0.7,0.4,1.5,0.4,2.3
	c0,1.3-0.2,2.4-0.7,3.3c-0.5,0.9-1.1,1.7-1.9,2.4c-0.8,0.6-1.7,1.1-2.8,1.4c-1,0.3-2.2,0.5-3.3,0.5c-2,0-3.7-0.4-5.2-1.3
	c-1.5-0.9-2.6-2.3-3.2-4.2l3.1-1c0.4,1.4,1.1,2.4,1.9,3c0.8,0.6,1.9,0.9,3.4,0.9c0.7,0,1.4-0.1,2.1-0.4c0.6-0.2,1.2-0.6,1.7-1.1
	c0.5-0.5,0.9-1,1.1-1.6s0.4-1.3,0.4-2.1c0-1-0.2-1.8-0.6-2.4s-0.9-1.2-1.5-1.6c-0.6-0.4-1.3-0.7-2.1-0.8s-1.6-0.3-2.4-0.3h-1V21.4z"
	/>
</svg>
