<?xml version="1.0" encoding="utf-8"?>
<!-- Generator: Adobe Illustrator 23.0.3, SVG Export Plug-In . SVG Version: 6.00 Build 0)  -->
<svg version="1.1" id="Capa_1" xmlns="http://www.w3.org/2000/svg" xmlns:xlink="http://www.w3.org/1999/xlink" x="0px" y="0px"
	 viewBox="0 0 560.3 21.9" style="enable-background:new 0 0 560.3 21.9;" xml:space="preserve">
<style type="text/css">
	.st0{fill:#0074AA;}
</style>
<g>
	<path class="st0" d="M3.7,14.4c0,3.2,2.4,4.5,5.3,4.5c3.2,0,4.4-1.6,4.4-3.2c0-1.6-0.9-2.3-1.7-2.6c-1.5-0.6-3.3-0.9-6.2-1.7
		c-3.6-0.9-4.6-3.1-4.6-5.3C0.8,1.9,4.7,0,8.4,0c4.3,0,8,2.3,8,6.7h-3.7C12.6,4,10.8,3,8.3,3C6.6,3,4.5,3.6,4.5,5.7
		c0,1.5,1,2.3,2.5,2.7c0.3,0.1,5,1.3,6,1.6c2.7,0.9,4.1,3.1,4.1,5.3c0,4.7-4.2,6.6-8.3,6.6c-4.8,0-8.6-2.3-8.7-7.5H3.7z"/>
	<path class="st0" d="M20.2,0.5h3.7v20.9h-3.7V0.5z"/>
	<path class="st0" d="M28.4,0.5h15.1v3.2H32.1v5.5h10.6v3H32.1v6.1h11.6v3.2H28.4V0.5z"/>
	<path class="st0" d="M46.8,0.5H52l5.8,16.4h0.1l5.6-16.4h5.1v20.9H65V5.3H65l-5.8,16.1h-3L50.3,5.3h-0.1v16.1h-3.5V0.5z"/>
	<path class="st0" d="M72.9,0.5h9.2c6,0,7.1,3.9,7.1,6.5s-1.1,6.4-7.1,6.4h-5.6v8h-3.7V0.5z M76.6,10.4h5.4c1.6,0,3.7-0.8,3.7-3.5
		c0-2.8-1.7-3.5-3.6-3.5h-5.4V10.4z"/>
	<path class="st0" d="M92.4,0.5h10c4.6,0,6.9,2.1,6.9,5.7c0,4-2.8,5-3.5,5.3v0.1c1.3,0.1,3.1,1.1,3.1,4.4c0,2.5,0.4,4.7,1.1,5.5
		h-3.9c-0.6-0.9-0.6-2.1-0.6-3.1c0-3.8-0.8-5.5-4.2-5.5h-5.4v8.6h-3.7V0.5z M96.1,10h6c2.3,0,3.6-1.1,3.6-3.3c0-2.7-1.7-3.2-3.6-3.2
		h-5.9V10z"/>
	<path class="st0" d="M113.1,0.5h15.1v3.2h-11.4v5.5h10.6v3h-10.6v6.1h11.6v3.2h-15.3V0.5z"/>
	<path class="st0" d="M153.8,7.2c-0.6-2.4-2.2-4.2-5.2-4.2c-4.5,0-6.4,4-6.4,8s1.9,8,6.4,8c3.3,0,5-2.4,5.3-5.5h3.6
		c-0.3,5-3.8,8.5-8.9,8.5c-6.2,0-10-5-10-11c0-5.9,3.8-11,10-11c4.7,0,8.4,2.6,8.9,7.2H153.8z"/>
	<path class="st0" d="M179.8,11c0,6-3.8,11-10,11s-10-5-10-11c0-5.9,3.8-11,10-11S179.8,5,179.8,11z M163.4,11c0,4,1.9,8,6.4,8
		c4.5,0,6.4-4,6.4-8s-1.9-8-6.4-8C165.3,3,163.4,6.9,163.4,11z"/>
	<path class="st0" d="M183,0.5h3.9l9.6,15.4h0.1V0.5h3.5v20.9h-3.9L186.5,6h-0.1v15.4H183V0.5z"/>
	<path class="st0" d="M204.3,0.5h15.1v3.2h-11.4v5.5h10.6v3h-10.6v6.1h11.6v3.2h-15.3V0.5z"/>
	<path class="st0" d="M236.8,7.2c-0.6-2.4-2.2-4.2-5.2-4.2c-4.5,0-6.4,4-6.4,8s1.9,8,6.4,8c3.3,0,5-2.4,5.3-5.5h3.6
		c-0.3,5-3.8,8.5-8.9,8.5c-6.2,0-10-5-10-11c0-5.9,3.8-11,10-11c4.7,0,8.4,2.6,8.9,7.2H236.8z"/>
	<path class="st0" d="M241.9,0.5h16.9v3.2h-6.7v17.8h-3.7V3.7h-6.6V0.5z"/>
	<path class="st0" d="M264.1,0.5h3.9l8.1,20.9h-3.9l-2-5.5h-8.4l-2,5.5h-3.8L264.1,0.5z M262.9,13.1h6.4l-3.1-9H266L262.9,13.1z"/>
	<path class="st0" d="M278.1,0.5h8.7c6.4,0,9.2,4.7,9.2,10.5c0,5.8-2.8,10.5-9.2,10.5h-8.7V0.5z M281.8,18.4h3.6c5.7,0,7-3.3,7-7.5
		s-1.2-7.5-7-7.5h-3.6V18.4z"/>
	<path class="st0" d="M318.2,11c0,6-3.8,11-10,11c-6.2,0-10-5-10-11c0-5.9,3.8-11,10-11C314.4,0,318.2,5,318.2,11z M301.8,11
		c0,4,1.9,8,6.4,8c4.5,0,6.4-4,6.4-8s-1.9-8-6.4-8C303.7,3,301.8,6.9,301.8,11z"/>
	<path class="st0" d="M323.9,14.4c0,3.2,2.4,4.5,5.3,4.5c3.2,0,4.4-1.6,4.4-3.2c0-1.6-0.9-2.3-1.7-2.6c-1.5-0.6-3.3-0.9-6.2-1.7
		c-3.6-0.9-4.6-3.1-4.6-5.3c0-4.2,3.9-6.2,7.6-6.2c4.3,0,8,2.3,8,6.7h-3.7c-0.2-2.7-2-3.7-4.5-3.7c-1.7,0-3.8,0.6-3.8,2.7
		c0,1.5,1,2.3,2.5,2.7c0.3,0.1,5,1.3,6,1.6c2.7,0.9,4.1,3.1,4.1,5.3c0,4.7-4.2,6.6-8.3,6.6c-4.8,0-8.6-2.3-8.7-7.5H323.9z"/>
	<path class="st0" d="M362.8,7.2c-0.6-2.4-2.2-4.2-5.2-4.2c-4.5,0-6.4,4-6.4,8s1.9,8,6.4,8c3.3,0,5-2.4,5.3-5.5h3.6
		c-0.3,5-3.8,8.5-8.9,8.5c-6.2,0-10-5-10-11c0-5.9,3.8-11,10-11c4.7,0,8.4,2.6,8.9,7.2H362.8z"/>
	<path class="st0" d="M388.7,11c0,6-3.8,11-10,11c-6.2,0-10-5-10-11c0-5.9,3.8-11,10-11C385,0,388.7,5,388.7,11z M372.4,11
		c0,4,1.9,8,6.4,8c4.5,0,6.4-4,6.4-8s-1.9-8-6.4-8C374.2,3,372.4,6.9,372.4,11z"/>
	<path class="st0" d="M391.9,0.5h3.9l9.6,15.4h0.1V0.5h3.5v20.9H405L395.5,6h-0.1v15.4h-3.5V0.5z"/>
	<path class="st0" d="M421.4,0.5h3.7v17.8h10.6v3.2h-14.3V0.5z"/>
	<path class="st0" d="M443.8,0.5h3.9l8.1,20.9h-3.9l-2-5.5h-8.4l-2,5.5h-3.8L443.8,0.5z M442.5,13.1h6.4l-3.1-9h-0.1L442.5,13.1z"/>
	<path class="st0" d="M468.3,14.4c0,3.2,2.4,4.5,5.3,4.5c3.2,0,4.4-1.6,4.4-3.2c0-1.6-0.9-2.3-1.7-2.6c-1.5-0.6-3.3-0.9-6.2-1.7
		c-3.6-0.9-4.6-3.1-4.6-5.3c0-4.2,3.9-6.2,7.6-6.2c4.3,0,8,2.3,8,6.7h-3.7c-0.2-2.7-2-3.7-4.5-3.7c-1.7,0-3.8,0.6-3.8,2.7
		c0,1.5,1,2.3,2.5,2.7c0.3,0.1,5,1.3,6,1.6c2.7,0.9,4.1,3.1,4.1,5.3c0,4.7-4.2,6.6-8.3,6.6c-4.8,0-8.6-2.3-8.7-7.5H468.3z"/>
	<path class="st0" d="M490.5,0.5h3.9l8.1,20.9h-3.9l-2-5.5h-8.4l-2,5.5h-3.8L490.5,0.5z M489.2,13.1h6.4l-3.1-9h-0.1L489.2,13.1z"/>
	<path class="st0" d="M504.4,0.5h3.7v17.8h10.6v3.2h-14.3V0.5z"/>
	<path class="st0" d="M521,0.5h3.7v12.2c0,2.8,0.2,6.1,4.9,6.1c4.7,0,4.9-3.3,4.9-6.1V0.5h3.7v13.4c0,5.4-3.4,8-8.6,8
		c-5.2,0-8.6-2.7-8.6-8V0.5z"/>
	<path class="st0" d="M542.4,0.5h8.7c6.4,0,9.2,4.7,9.2,10.5c0,5.8-2.8,10.5-9.2,10.5h-8.7V0.5z M546,18.4h3.6c5.7,0,7-3.3,7-7.5
		s-1.2-7.5-7-7.5H546V18.4z"/>
</g>
</svg>
