<?xml version="1.0" encoding="utf-8"?>
<!-- Generator: Adobe Illustrator 26.5.0, SVG Export Plug-In . SVG Version: 6.00 Build 0)  -->
<svg version="1.1" id="Capa_1" xmlns="http://www.w3.org/2000/svg" xmlns:xlink="http://www.w3.org/1999/xlink" x="0px" y="0px"
	 viewBox="0 0 507 129.6" style="enable-background:new 0 0 507 129.6;" xml:space="preserve">
<style type="text/css">
	.st0{fill:#FFFFFF;}
</style>
<g>
	<g>
		<path class="st0" d="M367.8,88c84,0,133.4-5.5,133.4-20.5c0-15-54.5-19.7-58.8-20.1c-1.4,0-2.5,1.1-2.5,2.6c0,1.4,1.1,2.6,2.5,2.6
			c3,0.2,57.1,3.4,57.1,15c0,12.2-63.2,15.6-131.7,15.6c-68.6,0-131.7-3.4-131.7-15.6c0-11.6,54-14.8,57.1-15c1.4,0,2.6-1.1,2.6-2.6
			c0-1.4-1.1-2.6-2.6-2.6c-4.3,0.4-58.8,5.1-58.8,20.1C234.4,82.5,283.9,88,367.8,88"/>
		<polygon class="st0" points="300,43.2 307.4,43.1 307.4,44.4 301.8,44.5 301.8,46.7 307.3,46.6 307.3,47.9 301.9,48.1 301.9,50.4 
			307.7,50.3 307.7,51.6 300.2,51.8 		"/>
		<path class="st0" d="M309.3,43l4.6-0.2c3.4-0.1,4.3,1.8,4.4,4.2c0.1,1.9-0.7,4.3-3.6,4.4l-5.1,0.2L309.3,43z M311.4,50.1l2.5-0.1
			c1.3,0,2.7-0.5,2.6-3c-0.1-2.8-1.9-2.9-2.9-2.8l-2.4,0.1L311.4,50.1z"/>
		<polygon class="st0" points="320,42.5 321.8,42.5 322.2,51 320.4,51.1 		"/>
		<polygon class="st0" points="326.8,43.6 323.6,43.7 323.5,42.4 331.8,42.1 331.8,43.4 328.6,43.5 328.9,50.8 327.1,50.8 		"/>
		<path class="st0" d="M332.1,46.3c-0.1-2.4,1.3-4.6,4.9-4.7c3.6-0.1,5.1,2,5.2,4.4c0.1,2.4-1.3,4.6-4.9,4.7
			C333.6,50.8,332.2,48.7,332.1,46.3 M340.3,46.1c-0.1-1.9-1.3-3.2-3.3-3.1c-2,0.1-3.1,1.4-3.1,3.3c0.1,1.9,1.3,3.1,3.3,3.1
			C339.3,49.3,340.4,47.9,340.3,46.1"/>
		<path class="st0" d="M343.7,41.7l5.4-0.1c2.2,0,2.9,0.9,2.9,2.3c0,1.1-0.6,1.8-1.4,2.1v0c1,0.2,1.3,1.1,1.3,2.3
			c0,0.4,0,1.4,0.4,1.8l-2,0.1c-0.1-0.2-0.2-0.7-0.2-1.3c0-1.2-0.2-2.1-1.5-2.1l-3.1,0.1l0.1,3.4l-1.8,0L343.7,41.7z M348.7,45.4
			c1,0,1.5-0.3,1.5-1.3c0-0.9-0.6-1.2-1.6-1.2l-3.1,0.1l0.1,2.5L348.7,45.4z"/>
		
			<rect x="354" y="41.4" transform="matrix(0.9999 -1.430867e-02 1.430867e-02 0.9999 -0.6181 5.0831)" class="st0" width="1.8" height="8.6"/>
		<path class="st0" d="M360.8,41.4l2.1,0l3.8,8.6l-2,0l-0.9-2.1l-4,0l-0.9,2.1l-1.9,0L360.8,41.4z M363.3,46.5l-1.5-3.6l-1.5,3.6
			H363.3z"/>
		<polygon class="st0" points="368,41.4 369.8,41.4 369.7,48.6 374.9,48.7 374.9,50.1 367.9,50 		"/>
		<polygon class="st0" points="381,41.6 383.6,41.7 386.5,48.4 389.6,41.8 392.2,41.9 392,50.5 390.3,50.5 390.5,43.4 390.5,43.4 
			387.1,50.4 385.6,50.3 382.6,43.1 382.6,43.1 382.5,50.2 380.8,50.2 		"/>
		<polygon class="st0" points="394.4,42 401.8,42.3 401.8,43.6 396.1,43.4 396,45.6 401.5,45.8 401.4,47.1 396,46.9 395.9,49.3 
			401.7,49.5 401.6,50.8 394.1,50.6 		"/>
		<path class="st0" d="M403.7,42.3l4.6,0.2c3.4,0.1,4.1,2.1,4,4.6c-0.1,1.8-1,4.2-3.9,4.1l-5.1-0.2L403.7,42.3z M405.2,49.6l2.5,0.1
			c1.3,0,2.7-0.3,2.8-2.8c0.1-2.8-1.6-3-2.6-3.1l-2.4-0.1L405.2,49.6z"/>
		<polygon class="st0" points="414.3,42.8 416.1,42.9 415.7,51.5 413.9,51.4 		"/>
		<path class="st0" d="M425.1,46.5c-0.1-1.3-1.1-2.1-2.7-2.2c-1.7-0.1-3,1-3.1,3.2c-0.1,1.8,1.1,3.1,2.9,3.2c1.9,0.1,2.6-1.1,2.7-2
			l1.9,0.1c-0.3,1.7-1.5,3.4-5.1,3.3c-3.1-0.2-4.5-2.3-4.3-4.8c0.1-2.4,1.6-4.5,5-4.3c3,0.2,4.4,1.8,4.5,3.7L425.1,46.5z"/>
		<path class="st0" d="M431.9,43.7l2.1,0.1l3.3,8.8l-2-0.1l-0.8-2.2l-4-0.2l-1,2.1l-1.9-0.1L431.9,43.7z M434.1,48.9l-1.3-3.7
			l-1.7,3.5L434.1,48.9z"/>
		<path class="st0" d="M278.9,58.8c3.8,0,6.2,3.9,6.2,7.4c0,3.1-2.1,6.6-5.5,6.6c-1.9,0-3.5-0.9-4.6-2.3v1c0,0.8,0.1,1.7,0.2,2.4
			c0.3,0.9,1.7,1,1.7,1.8c0,0.8-0.8,0.9-1.5,0.9h-4.8c-0.6,0-1.4-0.1-1.4-0.9c0-0.9,1-0.8,1.4-1.5c0.3-0.4,0.4-1.8,0.4-2.8v-1.2
			v-5.9c0-2.6-1.9-1.4-1.9-2.7c0-0.4,0.4-0.6,0.7-0.8l3.6-1.9c0.2-0.1,0.4-0.2,0.6-0.2c0.9,0,1,1,1,1.7v0.4
			C276,59.8,277.3,58.8,278.9,58.8 M278.4,60.9c-2.4,0-3.6,2.7-3.6,4.7c0,1.5,0.4,3.9,2.4,3.9c2.5,0,4.2-2.9,4.2-5.1
			C281.3,62.8,280.3,60.9,278.4,60.9"/>
		<path class="st0" d="M290.9,72.7c-2.4,0-5-1.3-5-4c0-3.3,3.8-4.7,6.5-4.7c0.7,0,1.3,0,1.9,0.1c-0.5-1.5-1.2-3-3.1-3
			c-1.9,0-2.6,1.3-3.5,1.3c-0.3,0-0.6-0.2-0.7-0.6c0-2.1,3.9-3.2,5.5-3.2c3.6,0,4.9,2,5.9,5.2l1.4,4.7c0.2,0.7,0.9,1.9,1.7,1.9
			c0.2,0,0.5-0.2,0.7-0.4c0.3,0.3,0.5,0.6,0.5,1c0,1.4-1.9,1.6-2.9,1.6c-1.5,0-2.5-0.5-3.3-1.7C294.7,72,292.9,72.7,290.9,72.7
			 M294.9,66.6c-0.3-0.8-0.9-1-1.7-1c-1.3,0-2.9,0.8-2.9,2.2c0,1.5,1.4,2.5,2.8,2.5c0.9,0,2.4-0.3,2.4-1.5
			C295.5,68.3,295.1,67.3,294.9,66.6"/>
		<path class="st0" d="M313.3,59c2.6,0,3.7,2.2,4.3,4.3l1.4,4.9c0.4,1.4,0.4,1.8,1.6,2.6c0.3,0.2,0.5,0.4,0.5,0.7
			c0,0.7-0.6,0.9-1.2,0.9h-5.4c-0.5,0-1.1-0.2-1.1-0.8c0-1,1.6-1,1.6-2.2c0-0.3-0.1-0.6-0.1-0.9l-1.1-4.1c-0.2-1.1-0.8-2.9-2.2-2.9
			c-1.6,0-1.9,1.9-1.9,3.1v2c0,1,0,2,0.2,2.9c0.2,0.9,1.5,1,1.5,1.9c0,0.7-0.8,0.8-1.4,0.8h-4.8c-0.5,0-1.3-0.1-1.3-0.8
			c0-1.1,1.8-0.5,1.8-4c0-0.9,0-1.9,0-2.9c0-2.5-1.8-1.5-1.8-2.6c0-0.3,0.3-0.7,0.5-0.8l4.2-2.2c0.1-0.1,0.3-0.2,0.5-0.2
			c0.6,0,0.7,0.7,0.7,1.2V61C310.7,60,311.7,59,313.3,59"/>
		<path class="st0" d="M326.3,72.7c-2.4,0-5-1.3-5-4c0-3.3,3.8-4.7,6.5-4.7c0.6,0,1.3,0,1.9,0.1c-0.5-1.5-1.2-3-3.1-3
			c-1.9,0-2.6,1.3-3.5,1.3c-0.3,0-0.6-0.2-0.7-0.6c0-2.1,3.9-3.2,5.5-3.2c3.6,0,4.9,2,5.9,5.2l1.4,4.7c0.2,0.7,0.8,1.9,1.7,1.9
			c0.2,0,0.5-0.2,0.7-0.4c0.3,0.3,0.5,0.6,0.5,1c0,1.4-1.9,1.6-2.9,1.6c-1.5,0-2.5-0.5-3.3-1.7C330.2,72,328.3,72.7,326.3,72.7
			 M329.7,66.6c-0.3-0.8-0.9-1-1.7-1c-1.3,0-2.9,0.8-2.9,2.2c0,1.5,1.4,2.5,2.8,2.5c0.9,0,2.4-0.3,2.4-1.5
			C330.4,68.3,330,67.3,329.7,66.6"/>
		<path class="st0" d="M356.2,58.9c2,0,3.3,1.2,3.9,3.1l1.9,6.2c0.2,0.6,0.4,1.2,0.7,1.8c0.3,0.4,0.6,0.6,1.1,0.9
			c0.3,0.2,0.5,0.4,0.5,0.8c0,0.6-0.6,0.8-1.1,0.8h-5.6c-0.6,0-1.5-0.1-1.5-0.9c0-0.9,1.8-1,1.9-1.8c0-0.5-0.1-1.1-0.3-1.5l-1.4-4.6
			c-0.3-0.9-0.8-1.7-1.8-1.7c-1.4,0-1.8,1.6-1.8,2.8v2c0,1,0,2,0.2,3c0.2,0.9,1.6,1,1.6,1.9c0,0.7-0.8,0.8-1.3,0.8h-4.8
			c-0.5,0-1.4-0.1-1.4-0.8c0-1.2,1.8-0.4,1.8-4c0-0.5,0-1,0-1.4c0-0.3,0-0.8,0-1.3c0-1.4-0.2-3.1-1.8-3.1c-1.5,0-2.5,1.5-2.5,2.9
			c0,0.8,0,1.5,0,2.3c0,0.9,0,1.9,0.2,2.7c0.2,0.9,1.5,1,1.5,1.9c0,0.7-0.8,0.8-1.3,0.8h-4.8c-0.5,0-1.3-0.1-1.3-0.8
			c0-1.1,1.8-0.5,1.8-4c0-0.9,0-1.8,0-2.7c0-2.9-1.9-1.6-1.9-2.9c0-0.5,0.4-0.7,0.8-0.9l4-2.1c0.2-0.1,0.4-0.2,0.6-0.2
			c0.5,0,0.6,0.7,0.6,1.4V61c1.2-1.2,2.6-2.2,4.2-2.2c1.7,0,3.1,0.6,3.9,2.2C353.4,59.8,354.5,58.9,356.2,58.9"/>
		<path class="st0" d="M373.4,70.2c2.5,0,4.1-2.2,4.6-2.3c0.4,0,0.7,0.3,0.7,0.7c0,0.8-0.9,1.6-1.4,2c-1.8,1.3-4,2-6.3,2
			c-4.1,0-7.2-2.8-7.2-7c0-3.8,3.5-6.9,7.2-6.9c2.1,0,4.1,0.8,5.4,2.4c0.2,0.3,1.3,1.6,1.3,2.2c0,0.3-1.4,0.9-1.9,1.1l-6.5,2.9
			C370,69.1,371.5,70.2,373.4,70.2 M372.1,64.4c0.2-0.1,0.7-0.3,0.8-0.6c0,0,0-0.2,0-0.2c0-1.3-1.7-3-3-3c-1.3,0-2.1,1.2-2.1,2.4
			c0,0.5,0.2,2.8,0.9,2.8c0.1,0,0.4-0.1,0.5-0.2L372.1,64.4z"/>
		<path class="st0" d="M389.9,58.8c0.5,0,1.6,0,1.7,0.7c0,0.2,0,0.4-0.1,0.6l-1.2,3.5c-0.1,0.4-0.3,0.8-0.7,0.8
			c-0.7,0-1.1-1.7-2.4-1.7c-1.9,0-2.4,1.9-2.4,3.4v1.7c0,0.7,0,1.5,0.3,2.1c0.3,0.7,1.6,0.7,1.6,1.6c0,0.7-0.8,0.9-1.4,0.9h-4.9
			c-0.6,0-1.4-0.1-1.5-0.9c0-0.9,1-0.8,1.5-1.5c0.3-0.4,0.4-1.8,0.4-2.8v-3.3c0-1.9-1.8-0.8-1.8-2.1c0-0.3,0.2-0.5,0.5-0.6l4-2.3
			c0.2-0.1,0.4-0.2,0.6-0.2c0.7,0,0.8,0.7,0.8,1.3c0,0.6,0.1,1.2,0.1,1.8C386.4,60.2,387.6,58.8,389.9,58.8"/>
		<path class="st0" d="M397.8,66.1v1.1c0,0.8,0.1,1.7,0.2,2.4c0.2,0.9,1.6,0.9,1.6,1.9c0,0.8-0.8,0.9-1.4,0.9h-4.9
			c-0.6,0-1.4-0.1-1.5-0.9c0-0.9,1-0.8,1.5-1.5c0.3-0.4,0.4-1.8,0.4-2.8V64c0-2.8-1.5-1.2-1.5-2.5c0-0.5,0.5-0.7,0.8-0.9l3.6-1.6
			c0.1-0.1,0.4-0.1,0.6-0.2c0.5,0,0.6,0.6,0.6,1V66.1z M394.3,57.1c-0.8,0-1.5-0.6-1.5-1.4c0-1.5,2.3-2.5,3.6-2.5
			c0.7,0,1.5,0.5,1.5,1.3C397.8,56.1,395.6,57.1,394.3,57.1"/>
		<path class="st0" d="M412.4,64c-0.2,0.3-0.3,0.6-0.7,0.6c-1,0-1-4.3-3.9-4.3c-2.4,0-3,2.9-3,4.7c0,2.5,1.4,5.4,4.3,5.4
			c2.6,0,4-2.6,4.8-2.6c0.3,0,0.7,0.2,0.7,0.5c0,0.9-0.7,1.6-1.3,2.2c-1.5,1.4-3.3,2-5.3,2c-4.1,0-7.8-2.4-7.8-6.8
			c0-4.4,4.1-7.2,8.2-7.2c1.6,0,3.2,0.3,4.6,1.1c0.4,0.2,1,0.4,1,0.9c0,0.2,0,0.4-0.2,0.6L412.4,64z"/>
		<path class="st0" d="M420.1,72.7c-2.4,0-5-1.3-5-4c0-3.3,3.8-4.7,6.5-4.7c0.6,0,1.3,0,1.9,0.1c-0.6-1.5-1.2-3-3.1-3
			c-1.9,0-2.6,1.3-3.5,1.3c-0.3,0-0.6-0.2-0.7-0.6c0-2.1,3.9-3.2,5.5-3.2c3.6,0,4.9,2,5.9,5.2l1.4,4.7c0.2,0.7,0.8,1.9,1.7,1.9
			c0.2,0,0.6-0.2,0.7-0.4c0.3,0.3,0.5,0.6,0.5,1c0,1.4-1.9,1.6-2.9,1.6c-1.5,0-2.5-0.5-3.3-1.7C423.9,72,422.1,72.7,420.1,72.7
			 M424.7,66.6c-0.3-0.8-0.9-1-1.7-1c-1.3,0-2.8,0.8-2.8,2.2c0,1.5,1.4,2.5,2.8,2.5c0.9,0,2.4-0.3,2.4-1.5
			C425.4,68.3,425,67.3,424.7,66.6"/>
		<path class="st0" d="M442.5,59c2.6,0,3.7,2.2,4.3,4.3l1.4,4.9c0.4,1.4,0.4,1.8,1.6,2.6c0.3,0.2,0.5,0.4,0.5,0.7
			c0,0.7-0.6,0.9-1.2,0.9h-5.4c-0.5,0-1.1-0.2-1.1-0.8c0-1,1.6-1,1.6-2.2c0-0.3-0.1-0.6-0.1-0.9l-1.1-4.1c-0.2-1.1-0.8-2.9-2.2-2.9
			c-1.6,0-1.9,1.9-1.9,3.1v2c0,1,0,2,0.2,2.9c0.2,0.9,1.5,1,1.5,1.9c0,0.7-0.8,0.8-1.4,0.8h-4.8c-0.5,0-1.3-0.1-1.3-0.8
			c0-1.1,1.8-0.5,1.8-4c0-0.9,0-1.9,0-2.9c0-2.5-1.8-1.5-1.8-2.6c0-0.3,0.3-0.7,0.5-0.8l4.2-2.2c0.1-0.1,0.3-0.2,0.5-0.2
			c0.6,0,0.7,0.7,0.7,1.2V61C439.9,60,440.9,59,442.5,59"/>
		<path class="st0" d="M455.6,72.7c-2.4,0-5.1-1.3-5.1-4c0-3.3,3.8-4.7,6.5-4.7c0.6,0,1.3,0,1.9,0.1c-0.6-1.5-1.2-3-3.1-3
			c-1.9,0-2.6,1.3-3.5,1.3c-0.3,0-0.6-0.2-0.7-0.6c0-2.1,3.9-3.2,5.5-3.2c3.6,0,4.9,2,5.9,5.2l1.4,4.7c0.2,0.7,0.8,1.9,1.7,1.9
			c0.2,0,0.5-0.2,0.7-0.4c0.3,0.3,0.5,0.6,0.5,1c0,1.4-1.9,1.6-2.9,1.6c-1.5,0-2.5-0.5-3.3-1.7C459.4,72,457.6,72.7,455.6,72.7
			 M459.5,66.6c-0.3-0.8-0.9-1-1.7-1c-1.3,0-2.9,0.8-2.9,2.2c0,1.5,1.4,2.5,2.8,2.5c0.9,0,2.4-0.3,2.4-1.5
			C460.2,68.3,459.8,67.3,459.5,66.6"/>
	</g>
	<g>
		<path class="st0" d="M188.3,19.6c1.6,14.7,1.9,30.1,2,45c-0.1,14.8-0.4,30.2-2,45c-1.6-14.7-1.9-30.1-2-45
			C186.4,49.8,186.7,34.4,188.3,19.6L188.3,19.6z"/>
	</g>
	<g>
		<g>
			<path class="st0" d="M103,101.6L103,101.6c20.6,0,37.4-16.9,37.4-37.5c0-20.6-16.8-37.5-37.4-37.5h0c-5.8,0-11.2,1.3-16.1,3.7V31
				v0.4l-0.2,0.3L81.3,43c5.5-5.5,13.1-8.9,21.5-8.9c16.8,0,30.5,13.7,30.5,30.5s-13.7,30.5-30.5,30.5S72.4,81.4,72.4,64.6
				c0-1.1,0.1-2.2,0.2-3.3l-5.8,12.1C70.9,89.6,85.5,101.6,103,101.6z"/>
			<path class="st0" d="M143.7,47.3c-2.2-5.3-5.4-10-9.5-14.1c-4.1-4.1-8.8-7.3-14.1-9.5c-5.5-2.3-11.3-3.5-17.3-3.5
				c-5.5,0-10.9,1-15.9,3v5.4c0.3-0.1,0.6-0.3,1-0.4c4.8-2,9.9-3.1,15.1-3.1h0c5.2,0,10.3,1.1,15.1,3.1c4.6,2,8.8,4.8,12.3,8.3
				c3.6,3.6,6.4,7.7,8.3,12.4c2,4.8,3,9.9,3,15.1c0,5.2-1,10.3-3.1,15.1c-2,4.6-4.8,8.8-8.3,12.3c-3.6,3.6-7.7,6.3-12.3,8.3
				c-4.8,2-9.9,3-15.1,3h0c-5.2,0-10.3-1-15.1-3c-4.6-2-8.8-4.7-12.3-8.3c-3.6-3.6-6.4-7.7-8.3-12.3c-0.5-1.3-1-2.5-1.4-3.8
				l-3.5,7.3c2.2,5,5.3,9.5,9.2,13.4c4.1,4.1,8.8,7.3,14.1,9.5c5.5,2.3,11.3,3.5,17.3,3.5c6,0,11.8-1.2,17.3-3.5
				c5.3-2.2,10-5.4,14.1-9.5c4.1-4.1,7.3-8.8,9.5-14.1c2.3-5.5,3.5-11.3,3.5-17.3C147.2,58.6,146,52.8,143.7,47.3z"/>
		</g>
		<path class="st0" d="M25.7,20.3v14h41.7v0.2l-37.3,74.5h17.7L85.3,31V20.3H25.7z M80,27.8l-38.6,75.9l0,0c0,0,0,0,0,0
			c-0.1,0.3-0.6,0.3-1,0.1c-0.4-0.2-0.5-0.6-0.4-0.9c0,0,0,0,0,0l0,0L78,28H30.1v-1.6h49.6c0,0,0.4,0.2,0.5,0.8
			C80.1,27.4,80.1,27.6,80,27.8L80,27.8z"/>
		<g>
			<path class="st0" d="M82.1,58.2h1.5l5.6,13.1h-1.8L86,68.1h-6.6l-1.4,3.2h-1.8L82.1,58.2z M82.8,60.2L82.8,60.2L80,66.7h5.4
				L82.8,60.2z"/>
			<path class="st0" d="M90.9,58.2h2l7.6,10.9h0V58.2h1.6v13.1h-2l-7.6-10.9h0v10.9h-1.6V58.2z M93.4,57.1c0-0.2,0.1-0.5,0.2-0.7
				c0.1-0.2,0.2-0.4,0.4-0.6c0.2-0.2,0.3-0.3,0.5-0.4c0.2-0.1,0.5-0.2,0.7-0.2c0.3,0,0.6,0,0.8,0.1c0.3,0.1,0.5,0.2,0.8,0.3
				c0.2,0.1,0.3,0.1,0.5,0.2c0.1,0.1,0.3,0.1,0.5,0.1c0.2,0,0.4-0.1,0.6-0.2c0.1-0.2,0.2-0.4,0.3-0.6h0.9c0,0.2-0.1,0.5-0.2,0.7
				c-0.1,0.2-0.2,0.4-0.3,0.6c-0.1,0.2-0.3,0.3-0.5,0.4C98.4,57,98.1,57,97.9,57c-0.3,0-0.5,0-0.8-0.1c-0.3-0.1-0.5-0.2-0.7-0.3
				c-0.2-0.1-0.4-0.2-0.6-0.2c-0.2-0.1-0.4-0.1-0.6-0.1c-0.2,0-0.4,0.1-0.6,0.3c-0.1,0.2-0.2,0.4-0.3,0.6H93.4z"/>
			<path class="st0" d="M111.4,71.7c-1,0-1.9-0.2-2.8-0.5c-0.8-0.3-1.6-0.8-2.2-1.4c-0.6-0.6-1.1-1.3-1.4-2.2
				c-0.3-0.8-0.5-1.8-0.5-2.8c0-1,0.2-1.9,0.5-2.8c0.3-0.8,0.8-1.6,1.4-2.2c0.6-0.6,1.3-1.1,2.2-1.4c0.8-0.3,1.8-0.5,2.8-0.5
				c1,0,1.9,0.2,2.8,0.5c0.8,0.3,1.6,0.8,2.2,1.4c0.6,0.6,1.1,1.3,1.4,2.2c0.3,0.8,0.5,1.8,0.5,2.8c0,1-0.2,1.9-0.5,2.8
				c-0.3,0.8-0.8,1.6-1.4,2.2c-0.6,0.6-1.3,1.1-2.2,1.4C113.4,71.5,112.4,71.7,111.4,71.7z M111.4,70.3c0.8,0,1.5-0.1,2.1-0.4
				c0.6-0.3,1.2-0.7,1.6-1.2c0.5-0.5,0.8-1.1,1.1-1.7c0.3-0.7,0.4-1.4,0.4-2.1c0-0.8-0.1-1.5-0.4-2.1c-0.3-0.7-0.6-1.2-1.1-1.7
				c-0.5-0.5-1-0.9-1.6-1.2c-0.6-0.3-1.3-0.4-2.1-0.4c-0.8,0-1.5,0.1-2.1,0.4c-0.6,0.3-1.2,0.7-1.6,1.2c-0.5,0.5-0.8,1.1-1.1,1.7
				c-0.3,0.7-0.4,1.4-0.4,2.1c0,0.8,0.1,1.5,0.4,2.1c0.3,0.7,0.6,1.2,1.1,1.7c0.5,0.5,1,0.9,1.6,1.2C110,70.1,110.7,70.3,111.4,70.3
				z"/>
			<path class="st0" d="M127,60.6c-0.3-0.4-0.6-0.7-1-0.9c-0.4-0.2-0.9-0.3-1.4-0.3c-0.3,0-0.7,0-1,0.1c-0.3,0.1-0.6,0.2-0.9,0.4
				c-0.3,0.2-0.5,0.4-0.6,0.7c-0.2,0.3-0.2,0.6-0.2,1c0,0.3,0,0.6,0.1,0.8c0.1,0.2,0.2,0.4,0.5,0.6c0.2,0.2,0.5,0.4,0.9,0.5
				c0.4,0.2,0.8,0.3,1.3,0.5c0.5,0.2,1,0.3,1.5,0.5c0.5,0.2,0.9,0.4,1.3,0.7c0.4,0.3,0.7,0.6,0.9,1.1c0.2,0.4,0.3,1,0.3,1.6
				c0,0.7-0.1,1.2-0.4,1.7c-0.3,0.5-0.6,0.9-1,1.2c-0.4,0.3-0.9,0.6-1.5,0.7c-0.6,0.2-1.1,0.2-1.7,0.2c-0.4,0-0.8,0-1.2-0.1
				c-0.4-0.1-0.8-0.2-1.1-0.3c-0.4-0.1-0.7-0.3-1-0.6c-0.3-0.2-0.6-0.5-0.8-0.8l1.3-1.1c0.3,0.5,0.7,0.8,1.2,1.1
				c0.5,0.2,1,0.4,1.6,0.4c0.3,0,0.7,0,1-0.1c0.3-0.1,0.6-0.2,0.9-0.4c0.3-0.2,0.5-0.4,0.7-0.7c0.2-0.3,0.3-0.6,0.3-1
				c0-0.4-0.1-0.7-0.2-1c-0.1-0.3-0.3-0.5-0.6-0.7c-0.3-0.2-0.6-0.4-1.1-0.5c-0.4-0.1-0.9-0.3-1.5-0.5c-0.5-0.1-0.9-0.3-1.3-0.5
				c-0.4-0.2-0.7-0.4-1-0.7c-0.3-0.3-0.5-0.6-0.7-1c-0.2-0.4-0.3-0.9-0.3-1.4c0-0.6,0.1-1.2,0.4-1.7c0.2-0.5,0.6-0.9,1-1.2
				c0.4-0.3,0.9-0.6,1.4-0.7c0.5-0.2,1.1-0.2,1.7-0.2c0.7,0,1.4,0.1,2,0.3c0.6,0.2,1.2,0.6,1.6,1.2L127,60.6z"/>
		</g>
		<g>
			<path class="st0" d="M6.5,117.6h4.4v0.8H7.3v2.4h3.3v0.8H7.3v3.2H6.5V117.6z"/>
			<path class="st0" d="M11.7,122.4c0-0.4,0.1-0.7,0.2-1c0.1-0.3,0.3-0.6,0.5-0.8c0.2-0.2,0.5-0.4,0.8-0.5c0.3-0.1,0.6-0.2,1-0.2
				s0.7,0.1,1,0.2c0.3,0.1,0.6,0.3,0.8,0.5c0.2,0.2,0.4,0.5,0.5,0.8c0.1,0.3,0.2,0.6,0.2,1c0,0.4-0.1,0.7-0.2,1
				c-0.1,0.3-0.3,0.6-0.5,0.8c-0.2,0.2-0.5,0.4-0.8,0.5c-0.3,0.1-0.6,0.2-1,0.2s-0.7-0.1-1-0.2c-0.3-0.1-0.6-0.3-0.8-0.5
				c-0.2-0.2-0.4-0.5-0.5-0.8C11.8,123.1,11.7,122.8,11.7,122.4z M12.5,122.4c0,0.2,0,0.5,0.1,0.7c0.1,0.2,0.2,0.4,0.3,0.6
				c0.1,0.2,0.3,0.3,0.5,0.4c0.2,0.1,0.4,0.1,0.7,0.1s0.5,0,0.7-0.1c0.2-0.1,0.4-0.2,0.5-0.4c0.1-0.2,0.3-0.3,0.3-0.6
				c0.1-0.2,0.1-0.4,0.1-0.7c0-0.2,0-0.5-0.1-0.7c-0.1-0.2-0.2-0.4-0.3-0.6c-0.1-0.2-0.3-0.3-0.5-0.4c-0.2-0.1-0.4-0.1-0.7-0.1
				s-0.5,0-0.7,0.1c-0.2,0.1-0.4,0.2-0.5,0.4c-0.1,0.2-0.3,0.3-0.3,0.6C12.6,121.9,12.5,122.2,12.5,122.4z"/>
			<path class="st0" d="M18,121.2c0-0.2,0-0.4,0-0.6c0-0.2,0-0.4,0-0.5h0.7c0,0.1,0,0.3,0,0.4c0,0.1,0,0.3,0,0.4h0
				c0.1-0.1,0.1-0.2,0.2-0.3c0.1-0.1,0.2-0.2,0.3-0.3c0.1-0.1,0.3-0.2,0.5-0.2c0.2-0.1,0.3-0.1,0.5-0.1c0.1,0,0.1,0,0.2,0
				c0.1,0,0.1,0,0.2,0l-0.1,0.8c-0.1,0-0.3-0.1-0.4-0.1c-0.5,0-0.8,0.2-1.1,0.5c-0.2,0.3-0.3,0.7-0.3,1.3v2.3H18V121.2z"/>
			<path class="st0" d="M21.5,121.2c0-0.2,0-0.4,0-0.6c0-0.2,0-0.4,0-0.5h0.7c0,0.1,0,0.3,0,0.4c0,0.1,0,0.3,0,0.4h0
				c0.1-0.1,0.1-0.2,0.2-0.3c0.1-0.1,0.2-0.2,0.3-0.3c0.1-0.1,0.3-0.2,0.5-0.2c0.2-0.1,0.3-0.1,0.5-0.1c0.3,0,0.5,0,0.6,0.1
				c0.2,0.1,0.3,0.1,0.4,0.2c0.1,0.1,0.2,0.2,0.3,0.3c0.1,0.1,0.1,0.2,0.2,0.3c0.2-0.3,0.4-0.5,0.6-0.7c0.2-0.2,0.5-0.2,0.9-0.2
				c0.3,0,0.6,0,0.8,0.1c0.2,0.1,0.4,0.2,0.6,0.4c0.1,0.2,0.2,0.4,0.3,0.6c0.1,0.2,0.1,0.5,0.1,0.8v2.9h-0.8v-2.8
				c0-0.2,0-0.3-0.1-0.5c0-0.2-0.1-0.3-0.2-0.4c-0.1-0.1-0.2-0.2-0.4-0.3c-0.1-0.1-0.3-0.1-0.6-0.1c-0.2,0-0.3,0-0.5,0.1
				c-0.1,0.1-0.3,0.2-0.4,0.3c-0.1,0.1-0.2,0.3-0.3,0.4c-0.1,0.2-0.1,0.4-0.1,0.6v2.7h-0.8v-2.7c0-0.5-0.1-0.9-0.2-1.1
				c-0.1-0.2-0.4-0.3-0.7-0.3c-0.3,0-0.5,0-0.7,0.1c-0.2,0.1-0.3,0.2-0.5,0.4c-0.1,0.2-0.2,0.4-0.3,0.6c-0.1,0.2-0.1,0.5-0.1,0.7
				v2.3h-0.8V121.2z"/>
			<path class="st0" d="M30.1,120.6c0.2-0.2,0.5-0.4,0.9-0.6c0.3-0.1,0.7-0.2,1-0.2c0.7,0,1.2,0.2,1.5,0.5c0.3,0.3,0.5,0.8,0.5,1.5
				v2c0,0.1,0,0.3,0,0.4s0,0.3,0.1,0.4h-0.8c0-0.1,0-0.2,0-0.4c0-0.1,0-0.2,0-0.3h0c-0.2,0.2-0.4,0.4-0.6,0.6
				c-0.3,0.2-0.6,0.2-0.9,0.2c-0.2,0-0.5,0-0.7-0.1c-0.2-0.1-0.4-0.1-0.6-0.3c-0.2-0.1-0.3-0.3-0.4-0.4c-0.1-0.2-0.1-0.4-0.1-0.6
				c0-0.4,0.1-0.7,0.3-0.9c0.2-0.2,0.5-0.4,0.8-0.5c0.3-0.1,0.6-0.2,1-0.2c0.3,0,0.7,0,1,0h0.3v-0.1c0-0.3-0.1-0.6-0.3-0.8
				c-0.2-0.2-0.5-0.3-0.9-0.3c-0.3,0-0.5,0-0.8,0.1c-0.2,0.1-0.5,0.2-0.7,0.4L30.1,120.6z M32.3,122.5c-0.5,0-0.9,0.1-1.2,0.2
				c-0.3,0.1-0.4,0.4-0.4,0.7c0,0.3,0.1,0.5,0.3,0.6c0.2,0.1,0.4,0.2,0.7,0.2c0.2,0,0.4,0,0.6-0.1c0.2-0.1,0.3-0.2,0.4-0.3
				c0.1-0.1,0.2-0.3,0.3-0.4c0.1-0.2,0.1-0.4,0.1-0.6v-0.3H32.3z"/>
			<path class="st0" d="M35.4,121.2c0-0.2,0-0.4,0-0.6c0-0.2,0-0.4,0-0.5h0.7c0,0.1,0,0.3,0,0.4c0,0.1,0,0.3,0,0.4h0
				c0.1-0.1,0.1-0.2,0.2-0.3c0.1-0.1,0.2-0.2,0.3-0.3c0.1-0.1,0.3-0.2,0.5-0.2c0.2-0.1,0.3-0.1,0.5-0.1c0.3,0,0.6,0,0.8,0.1
				c0.2,0.1,0.4,0.2,0.6,0.4c0.1,0.2,0.3,0.4,0.3,0.6c0.1,0.2,0.1,0.5,0.1,0.8v2.9h-0.8v-2.8c0-0.4-0.1-0.7-0.3-0.9
				c-0.2-0.2-0.4-0.3-0.8-0.3c-0.3,0-0.5,0-0.7,0.1c-0.2,0.1-0.3,0.2-0.5,0.4c-0.1,0.2-0.2,0.4-0.3,0.6c-0.1,0.2-0.1,0.5-0.1,0.7
				v2.3h-0.8V121.2z"/>
			<path class="st0" d="M44.9,123.9L44.9,123.9c-0.2,0.3-0.4,0.5-0.7,0.7c-0.3,0.2-0.7,0.3-1.1,0.3c-0.3,0-0.6-0.1-0.9-0.2
				c-0.3-0.1-0.5-0.3-0.8-0.5c-0.2-0.2-0.4-0.5-0.5-0.8c-0.1-0.3-0.2-0.6-0.2-1c0-0.4,0.1-0.7,0.2-1c0.1-0.3,0.3-0.6,0.5-0.8
				c0.2-0.2,0.5-0.4,0.8-0.5c0.3-0.1,0.6-0.2,1-0.2c0.3,0,0.7,0.1,0.9,0.2c0.3,0.1,0.5,0.3,0.8,0.6h0v-3.6h0.8v7.6h-0.8V123.9z
				 M44.9,122.4c0-0.2,0-0.5-0.1-0.7c-0.1-0.2-0.2-0.4-0.3-0.6c-0.1-0.2-0.3-0.3-0.5-0.4c-0.2-0.1-0.4-0.1-0.7-0.1s-0.5,0-0.7,0.1
				c-0.2,0.1-0.4,0.2-0.5,0.4c-0.1,0.2-0.3,0.3-0.3,0.6c-0.1,0.2-0.1,0.4-0.1,0.7c0,0.2,0,0.5,0.1,0.7c0.1,0.2,0.2,0.4,0.3,0.6
				c0.1,0.2,0.3,0.3,0.5,0.4c0.2,0.1,0.4,0.1,0.7,0.1s0.5,0,0.7-0.1c0.2-0.1,0.4-0.2,0.5-0.4c0.1-0.2,0.3-0.3,0.3-0.6
				C44.9,122.9,44.9,122.7,44.9,122.4z"/>
			<path class="st0" d="M46.9,122.4c0-0.4,0.1-0.7,0.2-1c0.1-0.3,0.3-0.6,0.5-0.8c0.2-0.2,0.5-0.4,0.8-0.5c0.3-0.1,0.6-0.2,1-0.2
				c0.4,0,0.7,0.1,1,0.2c0.3,0.1,0.6,0.3,0.8,0.5c0.2,0.2,0.4,0.5,0.5,0.8c0.1,0.3,0.2,0.6,0.2,1c0,0.4-0.1,0.7-0.2,1
				c-0.1,0.3-0.3,0.6-0.5,0.8c-0.2,0.2-0.5,0.4-0.8,0.5c-0.3,0.1-0.6,0.2-1,0.2c-0.4,0-0.7-0.1-1-0.2c-0.3-0.1-0.6-0.3-0.8-0.5
				c-0.2-0.2-0.4-0.5-0.5-0.8C46.9,123.1,46.9,122.8,46.9,122.4z M47.7,122.4c0,0.2,0,0.5,0.1,0.7c0.1,0.2,0.2,0.4,0.3,0.6
				c0.1,0.2,0.3,0.3,0.5,0.4c0.2,0.1,0.4,0.1,0.7,0.1c0.3,0,0.5,0,0.7-0.1c0.2-0.1,0.4-0.2,0.5-0.4c0.1-0.2,0.3-0.3,0.3-0.6
				c0.1-0.2,0.1-0.4,0.1-0.7c0-0.2,0-0.5-0.1-0.7c-0.1-0.2-0.2-0.4-0.3-0.6c-0.1-0.2-0.3-0.3-0.5-0.4c-0.2-0.1-0.4-0.1-0.7-0.1
				c-0.3,0-0.5,0-0.7,0.1c-0.2,0.1-0.4,0.2-0.5,0.4c-0.1,0.2-0.3,0.3-0.3,0.6C47.8,121.9,47.7,122.2,47.7,122.4z"/>
			<path class="st0" d="M56.1,117.6h2.1c0.3,0,0.6,0,0.9,0.1c0.3,0.1,0.6,0.2,0.8,0.3c0.2,0.2,0.4,0.4,0.6,0.6s0.2,0.6,0.2,0.9
				c0,0.4-0.1,0.7-0.2,1c-0.1,0.3-0.3,0.5-0.6,0.6c-0.2,0.1-0.5,0.3-0.8,0.3c-0.3,0.1-0.5,0.1-0.8,0.1h-1.4v3.2h-0.8V117.6z
				 M56.9,120.8h1.4c0.4,0,0.8-0.1,1-0.3c0.3-0.2,0.4-0.5,0.4-0.9c0-0.4-0.1-0.7-0.4-0.9c-0.3-0.2-0.6-0.3-1-0.3h-1.4V120.8z"/>
			<path class="st0" d="M61.9,121.2c0-0.2,0-0.4,0-0.6c0-0.2,0-0.4,0-0.5h0.7c0,0.1,0,0.3,0,0.4c0,0.1,0,0.3,0,0.4h0
				c0.1-0.1,0.1-0.2,0.2-0.3c0.1-0.1,0.2-0.2,0.3-0.3c0.1-0.1,0.3-0.2,0.5-0.2c0.2-0.1,0.3-0.1,0.5-0.1c0.1,0,0.1,0,0.2,0
				c0.1,0,0.1,0,0.2,0l-0.1,0.8c-0.1,0-0.3-0.1-0.4-0.1c-0.5,0-0.8,0.2-1.1,0.5c-0.2,0.3-0.3,0.7-0.3,1.3v2.3h-0.8V121.2z"/>
			<path class="st0" d="M65,122.4c0-0.4,0.1-0.7,0.2-1c0.1-0.3,0.3-0.6,0.5-0.8c0.2-0.2,0.5-0.4,0.8-0.5c0.3-0.1,0.6-0.2,1-0.2
				c0.4,0,0.7,0.1,1,0.2c0.3,0.1,0.6,0.3,0.8,0.5c0.2,0.2,0.4,0.5,0.5,0.8c0.1,0.3,0.2,0.6,0.2,1c0,0.4-0.1,0.7-0.2,1
				c-0.1,0.3-0.3,0.6-0.5,0.8c-0.2,0.2-0.5,0.4-0.8,0.5c-0.3,0.1-0.6,0.2-1,0.2c-0.4,0-0.7-0.1-1-0.2c-0.3-0.1-0.6-0.3-0.8-0.5
				c-0.2-0.2-0.4-0.5-0.5-0.8C65.1,123.1,65,122.8,65,122.4z M65.9,122.4c0,0.2,0,0.5,0.1,0.7c0.1,0.2,0.2,0.4,0.3,0.6
				c0.1,0.2,0.3,0.3,0.5,0.4c0.2,0.1,0.4,0.1,0.7,0.1s0.5,0,0.7-0.1c0.2-0.1,0.4-0.2,0.5-0.4c0.1-0.2,0.3-0.3,0.3-0.6
				c0.1-0.2,0.1-0.4,0.1-0.7c0-0.2,0-0.5-0.1-0.7c-0.1-0.2-0.2-0.4-0.3-0.6c-0.1-0.2-0.3-0.3-0.5-0.4c-0.2-0.1-0.4-0.1-0.7-0.1
				s-0.5,0-0.7,0.1c-0.2,0.1-0.4,0.2-0.5,0.4c-0.1,0.2-0.3,0.3-0.3,0.6C65.9,121.9,65.9,122.2,65.9,122.4z"/>
			<path class="st0" d="M71.7,120.7h-1V120h1V119c0-0.3,0-0.6,0.1-0.8c0.1-0.2,0.1-0.4,0.3-0.6c0.1-0.2,0.3-0.3,0.5-0.4
				s0.5-0.1,0.8-0.1c0.1,0,0.2,0,0.3,0c0.1,0,0.2,0.1,0.3,0.1l-0.1,0.7c-0.2-0.1-0.4-0.1-0.5-0.1c-0.2,0-0.4,0-0.5,0.1
				c-0.1,0.1-0.2,0.2-0.3,0.3c-0.1,0.1-0.1,0.3-0.1,0.4s0,0.4,0,0.6v0.9h1.2v0.7h-1.2v4.1h-0.8V120.7z"/>
			<path class="st0" d="M78.7,123.9c-0.3,0.4-0.6,0.6-0.9,0.8c-0.3,0.1-0.7,0.2-1.2,0.2c-0.4,0-0.7-0.1-1-0.2
				c-0.3-0.1-0.5-0.3-0.8-0.5c-0.2-0.2-0.4-0.5-0.5-0.8c-0.1-0.3-0.2-0.6-0.2-1c0-0.4,0.1-0.7,0.2-1c0.1-0.3,0.3-0.6,0.5-0.8
				c0.2-0.2,0.5-0.4,0.8-0.5c0.3-0.1,0.6-0.2,1-0.2c0.3,0,0.6,0.1,0.9,0.2c0.3,0.1,0.5,0.3,0.7,0.5c0.2,0.2,0.4,0.5,0.5,0.8
				c0.1,0.3,0.2,0.7,0.2,1v0.3h-3.8c0,0.2,0.1,0.4,0.1,0.6c0.1,0.2,0.2,0.3,0.3,0.5c0.1,0.1,0.3,0.2,0.5,0.3s0.4,0.1,0.6,0.1
				c0.3,0,0.6-0.1,0.9-0.2c0.2-0.1,0.4-0.3,0.6-0.5L78.7,123.9z M78,122c0-0.4-0.1-0.7-0.4-1c-0.2-0.2-0.6-0.4-1-0.4
				c-0.4,0-0.8,0.1-1.1,0.4s-0.4,0.6-0.5,1H78z"/>
			<path class="st0" d="M80.2,123.5c0.2,0.2,0.3,0.4,0.5,0.5c0.2,0.1,0.4,0.2,0.7,0.2c0.1,0,0.2,0,0.4,0c0.1,0,0.2-0.1,0.3-0.1
				c0.1-0.1,0.2-0.1,0.2-0.2c0.1-0.1,0.1-0.2,0.1-0.3c0-0.1,0-0.2-0.1-0.3c-0.1-0.1-0.1-0.1-0.2-0.2c-0.1-0.1-0.2-0.1-0.3-0.1
				c-0.1,0-0.2-0.1-0.4-0.1c-0.2,0-0.4-0.1-0.6-0.2c-0.2-0.1-0.4-0.1-0.5-0.2c-0.2-0.1-0.3-0.2-0.4-0.4c-0.1-0.2-0.1-0.4-0.1-0.6
				c0-0.2,0.1-0.4,0.2-0.6c0.1-0.2,0.2-0.3,0.4-0.4c0.2-0.1,0.4-0.2,0.6-0.3c0.2-0.1,0.4-0.1,0.6-0.1c0.3,0,0.6,0.1,0.9,0.2
				s0.5,0.4,0.7,0.7l-0.7,0.4c-0.1-0.2-0.2-0.3-0.4-0.4c-0.2-0.1-0.4-0.2-0.6-0.2c-0.1,0-0.2,0-0.3,0c-0.1,0-0.2,0.1-0.3,0.1
				c-0.1,0.1-0.2,0.1-0.2,0.2c-0.1,0.1-0.1,0.2-0.1,0.3c0,0.1,0,0.2,0.1,0.3c0.1,0.1,0.2,0.1,0.3,0.2c0.1,0.1,0.2,0.1,0.4,0.1
				c0.1,0,0.3,0.1,0.4,0.1c0.2,0,0.4,0.1,0.6,0.2c0.2,0.1,0.4,0.2,0.5,0.3c0.1,0.1,0.3,0.2,0.3,0.4c0.1,0.2,0.1,0.4,0.1,0.6
				c0,0.3-0.1,0.5-0.2,0.7c-0.1,0.2-0.3,0.3-0.4,0.5c-0.2,0.1-0.4,0.2-0.6,0.3c-0.2,0.1-0.5,0.1-0.7,0.1c-0.4,0-0.8-0.1-1-0.2
				c-0.3-0.1-0.6-0.4-0.8-0.7L80.2,123.5z"/>
			<path class="st0" d="M84.3,118.2c0-0.2,0.1-0.3,0.2-0.4c0.1-0.1,0.2-0.2,0.4-0.2c0.2,0,0.3,0.1,0.4,0.2c0.1,0.1,0.2,0.2,0.2,0.4
				c0,0.2-0.1,0.3-0.2,0.4s-0.2,0.2-0.4,0.2c-0.2,0-0.3-0.1-0.4-0.2S84.3,118.4,84.3,118.2z M84.5,120h0.8v4.7h-0.8V120z"/>
			<path class="st0" d="M86.5,122.4c0-0.4,0.1-0.7,0.2-1c0.1-0.3,0.3-0.6,0.5-0.8c0.2-0.2,0.5-0.4,0.8-0.5c0.3-0.1,0.6-0.2,1-0.2
				c0.4,0,0.7,0.1,1,0.2c0.3,0.1,0.6,0.3,0.8,0.5c0.2,0.2,0.4,0.5,0.5,0.8c0.1,0.3,0.2,0.6,0.2,1c0,0.4-0.1,0.7-0.2,1
				c-0.1,0.3-0.3,0.6-0.5,0.8c-0.2,0.2-0.5,0.4-0.8,0.5c-0.3,0.1-0.6,0.2-1,0.2c-0.4,0-0.7-0.1-1-0.2c-0.3-0.1-0.6-0.3-0.8-0.5
				c-0.2-0.2-0.4-0.5-0.5-0.8C86.6,123.1,86.5,122.8,86.5,122.4z M87.4,122.4c0,0.2,0,0.5,0.1,0.7c0.1,0.2,0.2,0.4,0.3,0.6
				c0.1,0.2,0.3,0.3,0.5,0.4c0.2,0.1,0.4,0.1,0.7,0.1s0.5,0,0.7-0.1c0.2-0.1,0.4-0.2,0.5-0.4c0.1-0.2,0.3-0.3,0.3-0.6
				c0.1-0.2,0.1-0.4,0.1-0.7c0-0.2,0-0.5-0.1-0.7c-0.1-0.2-0.2-0.4-0.3-0.6c-0.1-0.2-0.3-0.3-0.5-0.4c-0.2-0.1-0.4-0.1-0.7-0.1
				s-0.5,0-0.7,0.1c-0.2,0.1-0.4,0.2-0.5,0.4c-0.1,0.2-0.3,0.3-0.3,0.6C87.4,121.9,87.4,122.2,87.4,122.4z"/>
			<path class="st0" d="M92.8,121.2c0-0.2,0-0.4,0-0.6c0-0.2,0-0.4,0-0.5h0.7c0,0.1,0,0.3,0,0.4c0,0.1,0,0.3,0,0.4h0
				c0.1-0.1,0.1-0.2,0.2-0.3c0.1-0.1,0.2-0.2,0.3-0.3c0.1-0.1,0.3-0.2,0.5-0.2c0.2-0.1,0.3-0.1,0.5-0.1c0.3,0,0.6,0,0.8,0.1
				c0.2,0.1,0.4,0.2,0.6,0.4c0.1,0.2,0.3,0.4,0.3,0.6c0.1,0.2,0.1,0.5,0.1,0.8v2.9h-0.8v-2.8c0-0.4-0.1-0.7-0.3-0.9
				c-0.2-0.2-0.4-0.3-0.8-0.3c-0.3,0-0.5,0-0.7,0.1c-0.2,0.1-0.3,0.2-0.5,0.4c-0.1,0.2-0.2,0.4-0.3,0.6c-0.1,0.2-0.1,0.5-0.1,0.7
				v2.3h-0.8V121.2z"/>
			<path class="st0" d="M98.4,120.6c0.2-0.2,0.5-0.4,0.9-0.6c0.3-0.1,0.7-0.2,1-0.2c0.7,0,1.2,0.2,1.5,0.5c0.3,0.3,0.5,0.8,0.5,1.5
				v2c0,0.1,0,0.3,0,0.4c0,0.1,0,0.3,0.1,0.4h-0.8c0-0.1,0-0.2,0-0.4c0-0.1,0-0.2,0-0.3h0c-0.2,0.2-0.4,0.4-0.6,0.6
				c-0.3,0.2-0.6,0.2-0.9,0.2c-0.2,0-0.5,0-0.7-0.1c-0.2-0.1-0.4-0.1-0.6-0.3c-0.2-0.1-0.3-0.3-0.4-0.4c-0.1-0.2-0.1-0.4-0.1-0.6
				c0-0.4,0.1-0.7,0.3-0.9c0.2-0.2,0.5-0.4,0.8-0.5c0.3-0.1,0.6-0.2,1-0.2c0.3,0,0.7,0,1,0h0.3v-0.1c0-0.3-0.1-0.6-0.3-0.8
				c-0.2-0.2-0.5-0.3-0.9-0.3c-0.3,0-0.5,0-0.8,0.1c-0.2,0.1-0.5,0.2-0.7,0.4L98.4,120.6z M100.6,122.5c-0.5,0-0.9,0.1-1.2,0.2
				c-0.3,0.1-0.4,0.4-0.4,0.7c0,0.3,0.1,0.5,0.3,0.6c0.2,0.1,0.4,0.2,0.7,0.2c0.2,0,0.4,0,0.6-0.1c0.2-0.1,0.3-0.2,0.4-0.3
				c0.1-0.1,0.2-0.3,0.3-0.4c0.1-0.2,0.1-0.4,0.1-0.6v-0.3H100.6z"/>
			<path class="st0" d="M103.7,117.1h0.8v7.6h-0.8V117.1z"/>
			<path class="st0" d="M110.3,123.9c-0.3,0.4-0.6,0.6-0.9,0.8c-0.3,0.1-0.7,0.2-1.2,0.2c-0.4,0-0.7-0.1-1-0.2
				c-0.3-0.1-0.5-0.3-0.8-0.5c-0.2-0.2-0.4-0.5-0.5-0.8c-0.1-0.3-0.2-0.6-0.2-1c0-0.4,0.1-0.7,0.2-1c0.1-0.3,0.3-0.6,0.5-0.8
				c0.2-0.2,0.5-0.4,0.8-0.5s0.6-0.2,1-0.2c0.3,0,0.6,0.1,0.9,0.2c0.3,0.1,0.5,0.3,0.7,0.5c0.2,0.2,0.4,0.5,0.5,0.8
				c0.1,0.3,0.2,0.7,0.2,1v0.3h-3.8c0,0.2,0.1,0.4,0.1,0.6c0.1,0.2,0.2,0.3,0.3,0.5c0.1,0.1,0.3,0.2,0.5,0.3s0.4,0.1,0.6,0.1
				c0.3,0,0.6-0.1,0.9-0.2c0.2-0.1,0.4-0.3,0.6-0.5L110.3,123.9z M109.6,122c0-0.4-0.1-0.7-0.4-1s-0.6-0.4-1-0.4s-0.8,0.1-1.1,0.4
				c-0.3,0.2-0.4,0.6-0.5,1H109.6z"/>
			<path class="st0" d="M111.8,123.5c0.2,0.2,0.3,0.4,0.5,0.5c0.2,0.1,0.4,0.2,0.7,0.2c0.1,0,0.2,0,0.4,0c0.1,0,0.2-0.1,0.3-0.1
				c0.1-0.1,0.2-0.1,0.2-0.2c0.1-0.1,0.1-0.2,0.1-0.3c0-0.1,0-0.2-0.1-0.3c-0.1-0.1-0.1-0.1-0.2-0.2c-0.1-0.1-0.2-0.1-0.3-0.1
				c-0.1,0-0.2-0.1-0.4-0.1c-0.2,0-0.4-0.1-0.6-0.2c-0.2-0.1-0.4-0.1-0.5-0.2c-0.2-0.1-0.3-0.2-0.4-0.4c-0.1-0.2-0.1-0.4-0.1-0.6
				c0-0.2,0.1-0.4,0.2-0.6c0.1-0.2,0.2-0.3,0.4-0.4c0.2-0.1,0.4-0.2,0.6-0.3c0.2-0.1,0.4-0.1,0.6-0.1c0.3,0,0.6,0.1,0.9,0.2
				c0.3,0.1,0.5,0.4,0.7,0.7l-0.7,0.4c-0.1-0.2-0.2-0.3-0.4-0.4c-0.2-0.1-0.4-0.2-0.6-0.2c-0.1,0-0.2,0-0.3,0
				c-0.1,0-0.2,0.1-0.3,0.1c-0.1,0.1-0.2,0.1-0.2,0.2c-0.1,0.1-0.1,0.2-0.1,0.3c0,0.1,0,0.2,0.1,0.3c0.1,0.1,0.2,0.1,0.3,0.2
				c0.1,0.1,0.2,0.1,0.4,0.1c0.1,0,0.3,0.1,0.4,0.1c0.2,0,0.4,0.1,0.6,0.2c0.2,0.1,0.4,0.2,0.5,0.3c0.1,0.1,0.3,0.2,0.3,0.4
				c0.1,0.2,0.1,0.4,0.1,0.6c0,0.3-0.1,0.5-0.2,0.7c-0.1,0.2-0.3,0.3-0.4,0.5c-0.2,0.1-0.4,0.2-0.6,0.3c-0.2,0.1-0.5,0.1-0.7,0.1
				c-0.4,0-0.8-0.1-1-0.2c-0.3-0.1-0.6-0.4-0.8-0.7L111.8,123.5z"/>
			<path class="st0" d="M122.7,123.9L122.7,123.9c-0.2,0.3-0.4,0.5-0.7,0.7c-0.3,0.2-0.7,0.3-1.1,0.3c-0.3,0-0.6-0.1-0.9-0.2
				c-0.3-0.1-0.5-0.3-0.8-0.5c-0.2-0.2-0.4-0.5-0.5-0.8c-0.1-0.3-0.2-0.6-0.2-1c0-0.4,0.1-0.7,0.2-1c0.1-0.3,0.3-0.6,0.5-0.8
				c0.2-0.2,0.5-0.4,0.8-0.5c0.3-0.1,0.6-0.2,1-0.2c0.3,0,0.7,0.1,0.9,0.2c0.3,0.1,0.5,0.3,0.8,0.6h0v-3.6h0.8v7.6h-0.8V123.9z
				 M122.7,122.4c0-0.2,0-0.5-0.1-0.7c-0.1-0.2-0.2-0.4-0.3-0.6c-0.1-0.2-0.3-0.3-0.5-0.4c-0.2-0.1-0.4-0.1-0.7-0.1
				c-0.3,0-0.5,0-0.7,0.1c-0.2,0.1-0.4,0.2-0.5,0.4c-0.1,0.2-0.3,0.3-0.3,0.6c-0.1,0.2-0.1,0.4-0.1,0.7c0,0.2,0,0.5,0.1,0.7
				c0.1,0.2,0.2,0.4,0.3,0.6c0.1,0.2,0.3,0.3,0.5,0.4c0.2,0.1,0.4,0.1,0.7,0.1c0.3,0,0.5,0,0.7-0.1c0.2-0.1,0.4-0.2,0.5-0.4
				c0.1-0.2,0.3-0.3,0.3-0.6C122.7,122.9,122.7,122.7,122.7,122.4z"/>
			<path class="st0" d="M129.2,123.9c-0.3,0.4-0.6,0.6-0.9,0.8c-0.3,0.1-0.7,0.2-1.2,0.2c-0.4,0-0.7-0.1-1-0.2
				c-0.3-0.1-0.5-0.3-0.8-0.5c-0.2-0.2-0.4-0.5-0.5-0.8c-0.1-0.3-0.2-0.6-0.2-1c0-0.4,0.1-0.7,0.2-1c0.1-0.3,0.3-0.6,0.5-0.8
				c0.2-0.2,0.5-0.4,0.8-0.5s0.6-0.2,1-0.2c0.3,0,0.6,0.1,0.9,0.2c0.3,0.1,0.5,0.3,0.7,0.5c0.2,0.2,0.4,0.5,0.5,0.8
				c0.1,0.3,0.2,0.7,0.2,1v0.3h-3.8c0,0.2,0.1,0.4,0.1,0.6c0.1,0.2,0.2,0.3,0.3,0.5c0.1,0.1,0.3,0.2,0.5,0.3
				c0.2,0.1,0.4,0.1,0.6,0.1c0.3,0,0.6-0.1,0.9-0.2c0.2-0.1,0.4-0.3,0.6-0.5L129.2,123.9z M128.5,122c0-0.4-0.1-0.7-0.4-1
				s-0.6-0.4-1-0.4c-0.4,0-0.8,0.1-1.1,0.4c-0.3,0.2-0.4,0.6-0.5,1H128.5z"/>
			<path class="st0" d="M133.5,117.1h0.8v7.6h-0.8V117.1z"/>
			<path class="st0" d="M135.8,120.6c0.2-0.2,0.5-0.4,0.9-0.6s0.7-0.2,1-0.2c0.7,0,1.2,0.2,1.5,0.5c0.3,0.3,0.5,0.8,0.5,1.5v2
				c0,0.1,0,0.3,0,0.4c0,0.1,0,0.3,0.1,0.4h-0.8c0-0.1,0-0.2,0-0.4c0-0.1,0-0.2,0-0.3h0c-0.2,0.2-0.4,0.4-0.6,0.6
				c-0.3,0.2-0.6,0.2-0.9,0.2c-0.2,0-0.5,0-0.7-0.1c-0.2-0.1-0.4-0.1-0.6-0.3s-0.3-0.3-0.4-0.4c-0.1-0.2-0.1-0.4-0.1-0.6
				c0-0.4,0.1-0.7,0.3-0.9c0.2-0.2,0.5-0.4,0.8-0.5c0.3-0.1,0.6-0.2,1-0.2c0.3,0,0.7,0,1,0h0.3v-0.1c0-0.3-0.1-0.6-0.3-0.8
				c-0.2-0.2-0.5-0.3-0.9-0.3c-0.3,0-0.5,0-0.8,0.1c-0.2,0.1-0.5,0.2-0.7,0.4L135.8,120.6z M138,122.5c-0.5,0-0.9,0.1-1.2,0.2
				c-0.3,0.1-0.4,0.4-0.4,0.7c0,0.3,0.1,0.5,0.3,0.6c0.2,0.1,0.4,0.2,0.7,0.2c0.2,0,0.4,0,0.6-0.1s0.3-0.2,0.4-0.3
				c0.1-0.1,0.2-0.3,0.3-0.4c0.1-0.2,0.1-0.4,0.1-0.6v-0.3H138z"/>
			<path class="st0" d="M147.4,118.9c-0.1-0.2-0.3-0.4-0.6-0.5c-0.2-0.1-0.5-0.2-0.7-0.2c-0.2,0-0.4,0-0.6,0.1
				c-0.2,0-0.3,0.1-0.5,0.2c-0.1,0.1-0.3,0.2-0.3,0.4c-0.1,0.2-0.1,0.3-0.1,0.5c0,0.2,0,0.3,0.1,0.4c0.1,0.1,0.1,0.2,0.2,0.3
				c0.1,0.1,0.3,0.2,0.5,0.3c0.2,0.1,0.4,0.2,0.7,0.3c0.3,0.1,0.5,0.2,0.8,0.3c0.3,0.1,0.5,0.2,0.7,0.4c0.2,0.2,0.4,0.3,0.5,0.6
				c0.1,0.2,0.2,0.5,0.2,0.9c0,0.4-0.1,0.7-0.2,0.9c-0.1,0.3-0.3,0.5-0.6,0.7c-0.2,0.2-0.5,0.3-0.8,0.4c-0.3,0.1-0.6,0.1-0.9,0.1
				c-0.2,0-0.4,0-0.6-0.1c-0.2,0-0.4-0.1-0.6-0.2c-0.2-0.1-0.4-0.2-0.5-0.3c-0.2-0.1-0.3-0.3-0.4-0.5l0.7-0.6
				c0.2,0.3,0.4,0.5,0.6,0.6c0.3,0.1,0.6,0.2,0.9,0.2c0.2,0,0.4,0,0.6-0.1c0.2-0.1,0.4-0.1,0.5-0.2c0.1-0.1,0.3-0.2,0.4-0.4
				c0.1-0.2,0.1-0.3,0.1-0.5c0-0.2,0-0.4-0.1-0.5c-0.1-0.1-0.2-0.3-0.3-0.4c-0.2-0.1-0.4-0.2-0.6-0.3c-0.2-0.1-0.5-0.2-0.8-0.3
				c-0.3-0.1-0.5-0.2-0.7-0.3c-0.2-0.1-0.4-0.2-0.6-0.4c-0.2-0.2-0.3-0.3-0.4-0.5c-0.1-0.2-0.1-0.5-0.1-0.8c0-0.3,0.1-0.6,0.2-0.9
				s0.3-0.5,0.5-0.6c0.2-0.2,0.5-0.3,0.8-0.4c0.3-0.1,0.6-0.1,0.9-0.1c0.4,0,0.8,0.1,1.1,0.2c0.3,0.1,0.6,0.3,0.9,0.7L147.4,118.9z"
				/>
			<path class="st0" d="M149.4,120.6c0.2-0.2,0.5-0.4,0.9-0.6c0.3-0.1,0.7-0.2,1-0.2c0.7,0,1.2,0.2,1.5,0.5c0.3,0.3,0.5,0.8,0.5,1.5
				v2c0,0.1,0,0.3,0,0.4s0,0.3,0.1,0.4h-0.8c0-0.1,0-0.2,0-0.4c0-0.1,0-0.2,0-0.3h0c-0.2,0.2-0.4,0.4-0.6,0.6
				c-0.3,0.2-0.6,0.2-0.9,0.2c-0.2,0-0.5,0-0.7-0.1c-0.2-0.1-0.4-0.1-0.6-0.3c-0.2-0.1-0.3-0.3-0.4-0.4c-0.1-0.2-0.1-0.4-0.1-0.6
				c0-0.4,0.1-0.7,0.3-0.9c0.2-0.2,0.5-0.4,0.8-0.5c0.3-0.1,0.6-0.2,1-0.2c0.3,0,0.7,0,1,0h0.3v-0.1c0-0.3-0.1-0.6-0.3-0.8
				c-0.2-0.2-0.5-0.3-0.9-0.3c-0.3,0-0.5,0-0.8,0.1c-0.2,0.1-0.5,0.2-0.7,0.4L149.4,120.6z M151.7,122.5c-0.5,0-0.9,0.1-1.2,0.2
				c-0.3,0.1-0.4,0.4-0.4,0.7c0,0.3,0.1,0.5,0.3,0.6c0.2,0.1,0.4,0.2,0.7,0.2c0.2,0,0.4,0,0.6-0.1s0.3-0.2,0.4-0.3
				c0.1-0.1,0.2-0.3,0.3-0.4c0.1-0.2,0.1-0.4,0.1-0.6v-0.3H151.7z"/>
			<path class="st0" d="M154.8,117.1h0.8v7.6h-0.8V117.1z"/>
			<path class="st0" d="M161.3,123.6c0,0.2,0,0.4,0,0.6c0,0.2,0,0.4,0,0.5h-0.7c0-0.1,0-0.3,0-0.4c0-0.1,0-0.3,0-0.4h0
				c-0.1,0.1-0.1,0.2-0.2,0.3c-0.1,0.1-0.2,0.2-0.3,0.3c-0.1,0.1-0.3,0.2-0.5,0.2c-0.2,0.1-0.3,0.1-0.5,0.1c-0.3,0-0.6,0-0.8-0.1
				c-0.2-0.1-0.4-0.2-0.6-0.4c-0.1-0.2-0.3-0.4-0.3-0.6c-0.1-0.2-0.1-0.5-0.1-0.8V120h0.8v2.8c0,0.4,0.1,0.7,0.3,0.9
				c0.2,0.2,0.4,0.3,0.8,0.3c0.3,0,0.5,0,0.7-0.1c0.2-0.1,0.3-0.2,0.5-0.4c0.1-0.2,0.2-0.4,0.3-0.6c0.1-0.2,0.1-0.5,0.1-0.7V120h0.8
				V123.6z"/>
			<path class="st0" d="M166.7,123.9L166.7,123.9c-0.2,0.3-0.4,0.5-0.7,0.7c-0.3,0.2-0.7,0.3-1.1,0.3c-0.3,0-0.6-0.1-0.9-0.2
				s-0.5-0.3-0.8-0.5c-0.2-0.2-0.4-0.5-0.5-0.8c-0.1-0.3-0.2-0.6-0.2-1c0-0.4,0.1-0.7,0.2-1c0.1-0.3,0.3-0.6,0.5-0.8
				c0.2-0.2,0.5-0.4,0.8-0.5c0.3-0.1,0.6-0.2,1-0.2c0.3,0,0.7,0.1,0.9,0.2c0.3,0.1,0.5,0.3,0.8,0.6h0v-3.6h0.8v7.6h-0.8V123.9z
				 M166.7,122.4c0-0.2,0-0.5-0.1-0.7c-0.1-0.2-0.2-0.4-0.3-0.6c-0.1-0.2-0.3-0.3-0.5-0.4c-0.2-0.1-0.4-0.1-0.7-0.1s-0.5,0-0.7,0.1
				c-0.2,0.1-0.4,0.2-0.5,0.4c-0.1,0.2-0.3,0.3-0.3,0.6c-0.1,0.2-0.1,0.4-0.1,0.7c0,0.2,0,0.5,0.1,0.7c0.1,0.2,0.2,0.4,0.3,0.6
				c0.1,0.2,0.3,0.3,0.5,0.4c0.2,0.1,0.4,0.1,0.7,0.1s0.5,0,0.7-0.1c0.2-0.1,0.4-0.2,0.5-0.4c0.1-0.2,0.3-0.3,0.3-0.6
				C166.6,122.9,166.7,122.7,166.7,122.4z"/>
		</g>
		<g>
			<path class="st0" d="M60.4,4h2.7c0.2,0,0.5,0,0.7,0.1c0.3,0.1,0.5,0.1,0.8,0.3c0.3,0.1,0.5,0.3,0.7,0.5c0.2,0.2,0.4,0.4,0.6,0.7
				c0.2,0.3,0.3,0.6,0.4,0.9c0.1,0.3,0.2,0.7,0.2,1.2s-0.1,0.8-0.2,1.2c-0.1,0.3-0.3,0.7-0.4,0.9c-0.2,0.3-0.4,0.5-0.6,0.7
				c-0.2,0.2-0.5,0.3-0.7,0.5c-0.3,0.1-0.5,0.2-0.8,0.3c-0.3,0.1-0.5,0.1-0.7,0.1h-2.7V4z M61.3,10.4h1.6c0.4,0,0.8-0.1,1.1-0.2
				c0.3-0.1,0.7-0.3,0.9-0.5c0.3-0.2,0.5-0.5,0.6-0.9c0.1-0.3,0.2-0.8,0.2-1.3s-0.1-0.9-0.2-1.3c-0.1-0.3-0.4-0.6-0.6-0.9
				C64.7,5.3,64.4,5.1,64,5c-0.4-0.1-0.7-0.2-1.1-0.2h-1.6V10.4z"/>
			<path class="st0" d="M72.1,10.3c-0.3,0.4-0.6,0.6-0.9,0.8c-0.3,0.1-0.7,0.2-1.2,0.2c-0.4,0-0.7-0.1-1-0.2
				c-0.3-0.1-0.5-0.3-0.8-0.5c-0.2-0.2-0.4-0.5-0.5-0.8c-0.1-0.3-0.2-0.6-0.2-1c0-0.4,0.1-0.7,0.2-1c0.1-0.3,0.3-0.6,0.5-0.8
				c0.2-0.2,0.5-0.4,0.8-0.5c0.3-0.1,0.6-0.2,1-0.2c0.3,0,0.6,0.1,0.9,0.2c0.3,0.1,0.5,0.3,0.7,0.5c0.2,0.2,0.4,0.5,0.5,0.8
				c0.1,0.3,0.2,0.7,0.2,1v0.3h-3.8c0,0.2,0.1,0.4,0.1,0.6c0.1,0.2,0.2,0.3,0.3,0.5c0.1,0.1,0.3,0.2,0.5,0.3
				c0.2,0.1,0.4,0.1,0.6,0.1c0.3,0,0.6-0.1,0.9-0.2c0.2-0.1,0.4-0.3,0.6-0.5L72.1,10.3z M71.4,8.4c0-0.4-0.1-0.7-0.4-1
				c-0.2-0.2-0.6-0.4-1-0.4S69.2,7.2,69,7.4c-0.3,0.2-0.4,0.6-0.5,1H71.4z"/>
			<path class="st0" d="M73.6,9.9c0.2,0.2,0.3,0.3,0.5,0.5c0.2,0.1,0.4,0.2,0.7,0.2c0.1,0,0.2,0,0.4,0c0.1,0,0.2-0.1,0.3-0.1
				c0.1-0.1,0.2-0.1,0.2-0.2c0.1-0.1,0.1-0.2,0.1-0.3c0-0.1,0-0.2-0.1-0.3c-0.1-0.1-0.1-0.1-0.2-0.2c-0.1-0.1-0.2-0.1-0.3-0.1
				c-0.1,0-0.2-0.1-0.4-0.1c-0.2,0-0.4-0.1-0.6-0.2c-0.2-0.1-0.4-0.1-0.5-0.2c-0.2-0.1-0.3-0.2-0.4-0.4c-0.1-0.2-0.1-0.4-0.1-0.6
				c0-0.2,0.1-0.4,0.2-0.6c0.1-0.2,0.2-0.3,0.4-0.4c0.2-0.1,0.4-0.2,0.6-0.3c0.2-0.1,0.4-0.1,0.6-0.1c0.3,0,0.6,0.1,0.9,0.2
				c0.3,0.1,0.5,0.4,0.7,0.7l-0.7,0.4c-0.1-0.2-0.2-0.3-0.4-0.4c-0.2-0.1-0.4-0.2-0.6-0.2c-0.1,0-0.2,0-0.3,0
				c-0.1,0-0.2,0.1-0.3,0.1c-0.1,0.1-0.2,0.1-0.2,0.2C74,7.5,74,7.6,74,7.7c0,0.1,0,0.2,0.1,0.3c0.1,0.1,0.2,0.1,0.3,0.2
				c0.1,0.1,0.2,0.1,0.4,0.1c0.1,0,0.3,0.1,0.4,0.1c0.2,0,0.4,0.1,0.6,0.2c0.2,0.1,0.4,0.1,0.5,0.3c0.1,0.1,0.3,0.2,0.3,0.4
				c0.1,0.2,0.1,0.4,0.1,0.6c0,0.3-0.1,0.5-0.2,0.7c-0.1,0.2-0.3,0.3-0.4,0.5c-0.2,0.1-0.4,0.2-0.6,0.3c-0.2,0.1-0.5,0.1-0.7,0.1
				c-0.4,0-0.8-0.1-1-0.2c-0.3-0.1-0.6-0.4-0.8-0.7L73.6,9.9z"/>
			<path class="st0" d="M81.7,10.4L81.7,10.4c-0.2,0.3-0.4,0.5-0.7,0.7c-0.3,0.2-0.7,0.3-1.1,0.3c-0.3,0-0.6-0.1-0.9-0.2
				c-0.3-0.1-0.5-0.3-0.8-0.5c-0.2-0.2-0.4-0.5-0.5-0.8c-0.1-0.3-0.2-0.6-0.2-1c0-0.4,0.1-0.7,0.2-1c0.1-0.3,0.3-0.6,0.5-0.8
				c0.2-0.2,0.5-0.4,0.8-0.5c0.3-0.1,0.6-0.2,1-0.2c0.3,0,0.7,0.1,0.9,0.2c0.3,0.1,0.5,0.3,0.8,0.6h0V3.6h0.8v7.6h-0.8V10.4z
				 M81.7,8.8c0-0.2,0-0.5-0.1-0.7c-0.1-0.2-0.2-0.4-0.3-0.6c-0.1-0.2-0.3-0.3-0.5-0.4c-0.2-0.1-0.4-0.1-0.7-0.1
				c-0.3,0-0.5,0-0.7,0.1c-0.2,0.1-0.4,0.2-0.5,0.4c-0.1,0.2-0.3,0.3-0.3,0.6c-0.1,0.2-0.1,0.4-0.1,0.7c0,0.2,0,0.5,0.1,0.7
				c0.1,0.2,0.2,0.4,0.3,0.6c0.1,0.2,0.3,0.3,0.5,0.4c0.2,0.1,0.4,0.1,0.7,0.1c0.3,0,0.5,0,0.7-0.1s0.4-0.2,0.5-0.4
				c0.1-0.2,0.3-0.3,0.3-0.6C81.7,9.3,81.7,9.1,81.7,8.8z"/>
			<path class="st0" d="M88.2,10.3c-0.3,0.4-0.6,0.6-0.9,0.8c-0.3,0.1-0.7,0.2-1.2,0.2c-0.4,0-0.7-0.1-1-0.2
				c-0.3-0.1-0.5-0.3-0.8-0.5c-0.2-0.2-0.4-0.5-0.5-0.8c-0.1-0.3-0.2-0.6-0.2-1c0-0.4,0.1-0.7,0.2-1C84,7.5,84.2,7.3,84.4,7
				c0.2-0.2,0.5-0.4,0.8-0.5c0.3-0.1,0.6-0.2,1-0.2c0.3,0,0.6,0.1,0.9,0.2c0.3,0.1,0.5,0.3,0.7,0.5c0.2,0.2,0.4,0.5,0.5,0.8
				c0.1,0.3,0.2,0.7,0.2,1v0.3h-3.8c0,0.2,0.1,0.4,0.1,0.6c0.1,0.2,0.2,0.3,0.3,0.5c0.1,0.1,0.3,0.2,0.5,0.3
				c0.2,0.1,0.4,0.1,0.6,0.1c0.3,0,0.6-0.1,0.9-0.2c0.2-0.1,0.4-0.3,0.6-0.5L88.2,10.3z M87.5,8.4c0-0.4-0.1-0.7-0.4-1
				c-0.2-0.2-0.6-0.4-1-0.4c-0.4,0-0.8,0.1-1.1,0.4c-0.3,0.2-0.4,0.6-0.5,1H87.5z"/>
			<path class="st0" d="M95.3,11.2h-0.8V5.1h0l-1.3,1.1l-0.5-0.6L94.6,4h0.7V11.2z"/>
			<path class="st0" d="M100.8,8.2L100.8,8.2c-0.2,0.1-0.3,0.1-0.5,0.1c-0.2,0-0.3,0.1-0.5,0.1c-0.3,0-0.6-0.1-0.9-0.2
				c-0.3-0.1-0.5-0.3-0.7-0.5c-0.2-0.2-0.3-0.4-0.4-0.7c-0.1-0.3-0.2-0.6-0.2-0.9c0-0.3,0.1-0.7,0.2-0.9c0.1-0.3,0.3-0.5,0.5-0.7
				c0.2-0.2,0.5-0.3,0.8-0.4c0.3-0.1,0.6-0.2,0.9-0.2c0.3,0,0.7,0.1,0.9,0.2c0.3,0.1,0.5,0.3,0.8,0.4c0.2,0.2,0.4,0.4,0.5,0.7
				c0.1,0.3,0.2,0.6,0.2,0.9c0,0.2,0,0.4-0.1,0.6c0,0.2-0.1,0.3-0.1,0.5c-0.1,0.2-0.1,0.3-0.2,0.5c-0.1,0.2-0.2,0.3-0.3,0.5l-1.9,3
				h-1L100.8,8.2z M100.1,7.7c0.2,0,0.4,0,0.6-0.1c0.2-0.1,0.4-0.2,0.5-0.3c0.1-0.1,0.2-0.3,0.3-0.5c0.1-0.2,0.1-0.4,0.1-0.6
				c0-0.2,0-0.4-0.1-0.6c-0.1-0.2-0.2-0.3-0.3-0.5s-0.3-0.2-0.5-0.3c-0.2-0.1-0.4-0.1-0.6-0.1c-0.2,0-0.4,0-0.6,0.1
				c-0.2,0.1-0.4,0.2-0.5,0.3s-0.2,0.3-0.3,0.5c-0.1,0.2-0.1,0.4-0.1,0.6c0,0.2,0,0.4,0.1,0.6C98.7,7,98.8,7.1,99,7.3
				c0.1,0.1,0.3,0.2,0.5,0.3C99.7,7.6,99.9,7.7,100.1,7.7z"/>
			<path class="st0" d="M107.7,4.8h-2.9l0,1.9c0.1-0.1,0.3-0.1,0.4-0.1c0.2,0,0.3,0,0.5,0c0.3,0,0.7,0.1,0.9,0.2s0.5,0.3,0.7,0.5
				c0.2,0.2,0.4,0.5,0.5,0.7c0.1,0.3,0.2,0.6,0.2,0.9c0,0.4-0.1,0.7-0.2,1c-0.1,0.3-0.3,0.5-0.5,0.7c-0.2,0.2-0.5,0.4-0.8,0.5
				c-0.3,0.1-0.6,0.2-1,0.2c-0.5,0-1-0.1-1.3-0.4c-0.3-0.2-0.6-0.6-0.8-0.9l0.8-0.3c0.1,0.3,0.3,0.5,0.5,0.7
				c0.2,0.2,0.5,0.2,0.8,0.2c0.2,0,0.4,0,0.6-0.1c0.2-0.1,0.3-0.2,0.5-0.3c0.1-0.1,0.2-0.3,0.3-0.5c0.1-0.2,0.1-0.4,0.1-0.7
				c0-0.3,0-0.5-0.1-0.7c-0.1-0.2-0.2-0.4-0.4-0.5c-0.2-0.1-0.3-0.2-0.6-0.3c-0.2-0.1-0.4-0.1-0.7-0.1c-0.2,0-0.5,0-0.7,0.1
				c-0.3,0.1-0.5,0.2-0.7,0.3l0.1-3.7h3.7V4.8z"/>
			<path class="st0" d="M110.6,7.1h0.3c0.2,0,0.4,0,0.5,0c0.2,0,0.4-0.1,0.5-0.2c0.2-0.1,0.3-0.2,0.4-0.4c0.1-0.2,0.2-0.4,0.2-0.7
				c0-0.4-0.1-0.7-0.3-0.9c-0.2-0.2-0.5-0.3-0.9-0.3c-0.3,0-0.6,0.1-0.8,0.2c-0.2,0.1-0.4,0.3-0.5,0.6l-0.8-0.3
				c0.2-0.4,0.4-0.7,0.8-0.9c0.4-0.2,0.8-0.3,1.2-0.3c0.3,0,0.6,0,0.8,0.1c0.3,0.1,0.5,0.2,0.7,0.4c0.2,0.2,0.3,0.3,0.5,0.6
				c0.1,0.2,0.2,0.5,0.2,0.8c0,0.4-0.1,0.7-0.3,1c-0.2,0.3-0.5,0.5-0.9,0.6v0c0.2,0,0.4,0.1,0.6,0.2c0.2,0.1,0.3,0.2,0.5,0.4
				c0.1,0.2,0.2,0.3,0.3,0.5c0.1,0.2,0.1,0.4,0.1,0.6c0,0.3-0.1,0.6-0.2,0.9c-0.1,0.3-0.3,0.5-0.5,0.6c-0.2,0.2-0.5,0.3-0.8,0.4
				c-0.3,0.1-0.6,0.1-0.9,0.1c-0.5,0-1-0.1-1.4-0.4c-0.4-0.2-0.7-0.6-0.9-1.2l0.9-0.3c0.1,0.4,0.3,0.7,0.5,0.8
				c0.2,0.2,0.5,0.2,0.9,0.2c0.2,0,0.4,0,0.6-0.1c0.2-0.1,0.3-0.2,0.5-0.3c0.1-0.1,0.2-0.3,0.3-0.4c0.1-0.2,0.1-0.4,0.1-0.6
				c0-0.3-0.1-0.5-0.2-0.7c-0.1-0.2-0.2-0.3-0.4-0.4c-0.2-0.1-0.4-0.2-0.6-0.2c-0.2,0-0.4-0.1-0.7-0.1h-0.3V7.1z"/>
		</g>
	</g>
</g>
</svg>
