<?xml version="1.0" encoding="utf-8"?>
<!-- Generator: Adobe Illustrator 26.5.0, SVG Export Plug-In . SVG Version: 6.00 Build 0)  -->
<svg version="1.1" id="Capa_1" xmlns="http://www.w3.org/2000/svg" xmlns:xlink="http://www.w3.org/1999/xlink" x="0px" y="0px"
	 viewBox="0 0 11.1 10" style="enable-background:new 0 0 11.1 10;" xml:space="preserve">
<style type="text/css">
	.st0{fill:#FFFFFF;}
	.st1{fill:none;stroke:#DEE1E6;stroke-miterlimit:10;}
	.st2{fill:#577EBC;}
</style>

<path class="st2" d="M0.2,2c0.1-0.1,0.2-0.2,0.3-0.2c0.2,0,0.4,0,0.6,0c0-0.2,0-0.3,0-0.5c0-0.1,0.1-0.2,0.2-0.3
	c0.7-0.3,1.3-0.4,2-0.3c0.8,0.1,1.5,0.5,2.2,1c0.1,0,0.1,0,0.2,0c0.6-0.5,1.3-0.8,2.1-1c0.7-0.1,1.4,0,2.1,0.3C10,1.1,10,1.1,10,1.3
	c0,0.1,0,0.3,0,0.4c0,0,0,0,0,0c0.2,0,0.3,0,0.5,0c0.1,0,0.1,0,0.2,0c0.1,0,0.2,0.1,0.2,0.2c0,0.1,0,0.2,0,0.4V9
	c0,0.3-0.1,0.3-0.3,0.3c-3.4,0-6.7,0-10.1,0c-0.1,0-0.2,0-0.3-0.2V2z M5.3,8.6C5.3,8.6,5.3,8.5,5.3,8.6c0-2.1,0-4.2,0-6.3
	c0,0,0-0.1-0.1-0.1C5,2,4.7,1.8,4.4,1.6C3.5,1.1,2.6,1,1.6,1.4c-0.1,0-0.1,0.1-0.1,0.2c0,2.1,0,4.1,0,6.2v0.1
	C2.9,7.5,4.1,7.8,5.3,8.6 M5.8,8.6C7,7.8,8.2,7.5,9.6,7.9c0,0,0,0,0-0.1c0-2.1,0-4.2,0-6.3c0-0.1,0-0.1-0.1-0.1C9,1.2,8.5,1.1,8,1.2
	C7.2,1.3,6.5,1.6,5.9,2.1C5.8,2.2,5.8,2.2,5.8,2.3c0,2,0,4.1,0,6.1V8.6z M4.7,8.8C4.7,8.8,4.7,8.8,4.7,8.8C4.7,8.8,4.7,8.8,4.7,8.8
	c-0.6-0.3-1-0.5-1.6-0.6C2.6,8.2,2,8.2,1.4,8.5c-0.2,0.1-0.4,0-0.4-0.3c0-1.9,0-3.8,0-5.8V2.3H0.7v6.5H4.7z M6.4,8.8h4.1V2.3H10v0.1
	v5.8c0,0.2-0.1,0.4-0.3,0.3C9.1,8.3,8.5,8.2,7.9,8.3C7.4,8.3,6.9,8.5,6.4,8.8"/>
</svg>
