<svg id="Capa_1" data-name="Capa 1" xmlns="http://www.w3.org/2000/svg" viewBox="0 0 419.53 419.53">
<defs>
<style>
.cls-2{fill:#99d0dd;}
.cls-1{fill:#99d0dd;}
</style>
</defs>
<title>brain</title>
<g class="cls-1">
<path class="cls-2" 
d="M149.09,154.82a2,2,0,0,0-1.25-2.55A42.58,42.58,0,0,0,134.43,150h-.53l-.28-.45a15.27,15.27,0,0,1,3.73-20.39,2,2,0,0,0,.4-2.81,2,2,0,0,0-2.81-.4,19.26,19.26,0,0,0-6.1,23.12l.51,1.17-1.27.18a42.84,42.84,0,0,0-36.52,39l-.05.68-.66.18a15.28,15.28,0,0,1-17.92-21.25,2,2,0,1,0-3.63-1.71,19.27,19.27,0,0,0,21.08,27.2l1.08-.21.07,1.1a42.72,42.72,0,0,0,11.21,26.12,2.06,2.06,0,0,0,2.84.11,2,2,0,0,0,.11-2.84,38.64,38.64,0,0,1,40.85-62.78,2,2,0,0,0,2.55-1.25Z"/>
<path class="cls-2" d="M245.6,124.63a2,2,0,1,0,1.82-3.58h0a19.31,19.31,0,0,0-26,8.48c-.13.26-.25.53-.36.8l-.86,2-1-1.58a36.46,36.46,0,0,0-62.07.2,2,2,0,0,0,3.42,2.1,32.46,32.46,0,0,1,58.9,8.12c.06.21.11.42.16.64l.09.38c0,.21.09.38.13.56l0,.17a32.39,32.39,0,0,1,.77,8.82,2,2,0,0,0,1.9,2.11h.11a2,2,0,0,0,2-1.9,36.38,36.38,0,0,0-.48-8.08v-.17a2,2,0,0,0-.09-.63c0-.15-.09-.3-.12-.45l-.06-.21c-.1-.46-.19-.87-.3-1.27a15.28,15.28,0,0,1,21.94-16.45Z"/>
<path class="cls-2" d="M276.19,190.43a23.71,23.71,0,0,1,29.35-16.22,2,2,0,0,0,.61.07h.09l.09,0a33.93,33.93,0,0,0,35.5-17.36,2,2,0,0,0-.81-2.72h0a2,2,0,0,0-2.72.81,30,30,0,0,1-52.73-28.46,2,2,0,0,0-1.76-3,2,2,0,0,0-.58.08,2,2,0,0,0-1.19,1,34,34,0,0,0,10.17,43.79l1.69,1.2-2,.53a28,28,0,0,0-6.33,2.55,27.54,27.54,0,0,0-13.23,16.59,2,2,0,0,0,1.37,2.48A2,2,0,0,0,276.19,190.43Z"/><path class="cls-2" d="M209.9,201.1l1.12-.37.15,1.17a19.32,19.32,0,0,0,32,11.95,2,2,0,1,0-2.66-3h0A15.28,15.28,0,0,1,215,199.74v-.1l0-.1a2.07,2.07,0,0,0,0-.55,15.29,15.29,0,0,1,13.81-16.64,2,2,0,0,0,1.81-2.18,2,2,0,0,0-.72-1.39,1.9,1.9,0,0,0-1.23-.43h-.23a19.29,19.29,0,0,0-17.45,17.56l-.06.68-.65.18a36.45,36.45,0,0,0-25.84,43.69,2,2,0,0,0,3.9-.94A32.43,32.43,0,0,1,209.9,201.1Z"/>
</g>
<g class="cls-1">
<path class="cls-2" d="M221.39,281.49l.69-.13.34.61a54.17,54.17,0,0,0,99.3-11.48l.17-.59.6-.1.75-.15,1.32-.26q1.1-.23,2.18-.49l.29-.07a66.65,66.65,0,0,0,14-5.16l.32-.16.63-.31.51-.27.26-.14c.67-.36,1.33-.72,2-1.1a67.25,67.25,0,0,0,30.85-39,2,2,0,0,0,.06-.3l0-.14a67.26,67.26,0,0,0-28-75.62l-.41-.27,0-.49a67.48,67.48,0,0,0-83.83-61.37l-.8.2-.33-.75a39.83,39.83,0,0,0-69.82-5.88l-.6.91-.84-.69c-1-.87-2.16-1.71-3.3-2.5l-.08-.06c-.48-.33-1-.66-1.47-1l-.79-.49-.35-.21-.55-.33A47.6,47.6,0,0,0,176,69.88l-.17-.06c-.6-.2-1.22-.4-1.84-.58l-.67-.19-1.24-.33-1.17-.28-.56-.12a48,48,0,0,0-57.48,40.12l-.11.79-.8,0A74.38,74.38,0,1,0,149.4,249.75l.8-.41.47.77c.71,1.17,1.5,2.37,2.41,3.66,1.2,1.7,2.43,3.3,3.7,4.8l.88,1,.08.09c.31.35.61.7.93,1q.79.86,1.61,1.69l.4.42.09.07a67.53,67.53,0,0,0,47.92,19.82A68.24,68.24,0,0,0,221.39,281.49Zm-59.55-23.26q-.64-.69-1.25-1.39l-.75-.87c-.36-.43-.72-.86-1.07-1.29l-.22-.29a64.31,64.31,0,0,1-5.81-8.74l-.71-1.28a63.94,63.94,0,0,1,11.48-74.74,2,2,0,0,0-2.84-2.84A67.95,67.95,0,0,0,147.83,245l.43.86-.86.44a70.36,70.36,0,1,1-36-132.94l1-.06,0,1.05a47.77,47.77,0,0,0,3,17.53A2,2,0,0,0,118,133a2,2,0,0,0,1.18-2.58,43.69,43.69,0,0,1-2.68-17.6l.13-1.47a43.94,43.94,0,0,1,54.12-38.85l1.21.32.24.07.46.13a44.81,44.81,0,0,1,6,2.26c1.3.6,2.59,1.27,3.84,2a44.23,44.23,0,0,1,8.37,6.38l1,1a43.65,43.65,0,0,1,9.64,15.32,2,2,0,0,0,2.58,1.18,2,2,0,0,0,1.18-2.58,47.66,47.66,0,0,0-10-16.17l-.51-.54.39-.63a35.8,35.8,0,0,1,63,3.7l.45,1-1,.35a66.85,66.85,0,0,0-23.41,14,2,2,0,0,0,1.27,3.49,2,2,0,0,0,1.44-.52,63.56,63.56,0,0,1,89.68,4,2,2,0,0,0,.29.25l.14.13a63.6,63.6,0,0,1,16.16,40.1l0,1.07.91.56a63.13,63.13,0,0,1,30.22,54.07,63.79,63.79,0,0,1-32.1,55.13l-.33.19-.68.38-.66.35-.31.16c-.63.33-1.26.66-1.9,1l-.41.19c-.83.39-1.66.77-2.51,1.13a64.23,64.23,0,0,1-8.64,2.93l-.1,0c-.87.23-1.75.43-2.63.62l-.52.11c-.69.14-1.38.26-2.08.38l-.33.06-.81.13a62.72,62.72,0,0,1-27.74-2,2,2,0,1,0-1.16,3.84,67.34,67.34,0,0,0,19.38,2.86c1.68,0,3.42-.07,5.17-.2l1.48-.11-.48,1.4a50.15,50.15,0,0,1-90.52,9.2l-.56-.95,1-.44c8.9-3.89,22.24-12.52,35.22-31.52,15-21.94,46.94-17,53.19-15.78l.44.08.35.61.14.25a36.34,36.34,0,0,0,21,16.29,2,2,0,1,0,1.14-3.85,32.45,32.45,0,0,1-21.87-40.49,2,2,0,0,0-1.34-2.5,2,2,0,0,0-2.5,1.34,36.81,36.81,0,0,0,.42,22.36l.51,1.5-1.57-.22c-11.2-1.56-38.81-2.91-53.2,18.15-13.45,19.69-27.13,27.84-36.24,31.21l-.13,0a63.78,63.78,0,0,1-59.41-17.58Q162.48,258.91,161.85,258.23Z"/>
</g>
<path class="cls-1" d="M344.72,261.68c-.65.38-1.32.74-2,1.1l-.26.14-.51.27-.63.31-.32.16a66.65,66.65,0,0,1-14,5.16l-.29.07q-1.08.26-2.18.49l-1.32.26-.75.15-.6.1-.17.59A54.28,54.28,0,0,1,292,304.76l54.52,54.52a.58.58,0,0,0,1-.41V260Q346.15,260.85,344.72,261.68Z"/>
</svg>