<svg id="Capa_1" data-name="Capa 1" xmlns="http://www.w3.org/2000/svg" viewBox="0 0 419.53 419.53">
<defs>
    <style>
        .cls-2{fill:#99d0dd;}
        .cls-3{fill:#99d0dd;}
    </style>
</defs>
<title>clock</title>
    <g class="cls-1">
        <path class="cls-2" d="M90,325.21a2.3,2.3,0,0,1-1.65-.69A158.05,158.05,0,0,1,42.6,213c0-87.67,71.32-159,159-159a158.72,158.72,0,0,1,140.73,84.94,2.31,2.31,0,0,1-4.09,2.15A154.11,154.11,0,0,0,201.58,58.58C116.46,58.58,47.21,127.84,47.21,213A153.46,153.46,0,0,0,91.6,321.28,2.31,2.31,0,0,1,90,325.21Z"/>
    </g>
    <g class="cls-1">
        <path class="cls-2" d="M117.91,365.56a2.31,2.31,0,0,1-1.6-4l99.64-96a3.62,3.62,0,0,1,5.11.09l34.36,35.6L344.9,212a2.31,2.31,0,1,1,3.26,3.27l-90.19,90a3.53,3.53,0,0,1-2.59,1.06,3.59,3.59,0,0,1-2.57-1.11l-34.37-35.62-98.92,95.33A2.3,2.3,0,0,1,117.91,365.56Z"/>
    </g>
    <g class="cls-1">
        <polygon class="cls-2" points="190.09 77.32 201.22 60.64 212.35 77.32 190.09 77.32"/>
    </g>
    <g class="cls-1">
        <polygon class="cls-2" points="65.9 221.45 49.23 210.32 65.9 199.19 65.9 221.45"/>
    </g>
    <g class="cls-1">
        <polygon class="cls-2" points="111.16 315.27 91.22 317.33 96.95 298.13 111.16 315.27"/>
    </g>
    <g class="cls-1">
        <polygon class="cls-2" points="113 108.99 93.06 106.93 98.8 126.13 113 108.99"/>
    </g>
    <path class="cls-3" d="M270.2,143.34l-63,53.81a16.64,16.64,0,1,0,10.64,12.1l54.25-64.07A1.31,1.31,0,0,0,270.2,143.34Z"/>
    <g class="cls-1">
        <path class="cls-2" d="M332.36,189.44l46-9.17a1.31,1.31,0,0,1,1.54,1.54l-9.17,46a1.31,1.31,0,0,1-2.21.67l-36.83-36.83A1.31,1.31,0,0,1,332.36,189.44Z"/>
    </g>
</svg>