<svg id="Capa_1" data-name="Capa 1" xmlns="http://www.w3.org/2000/svg" viewBox="0 0 419.53 419.53">
    <defs>
        <style>
            .cls-2,.cls-3{fill:#99d0dd;}
            
        </style>
    </defs>
<title>computer</title>
    <g class="cls-1">
        <path class="cls-2" d="M348.62,289.11H70.91c-10,0-18.22-7.81-18.22-17.42V90.12c0-9.6,8.17-17.42,18.22-17.42H348.62c10,0,18.22,7.81,18.22,17.42V271.69C366.84,281.3,358.67,289.11,348.62,289.11ZM70.91,76.2c-8.12,0-14.72,6.24-14.72,13.92V271.69c0,7.67,6.6,13.92,14.72,13.92H348.62c8.12,0,14.72-6.24,14.72-13.92V90.12c0-7.67-6.6-13.92-14.72-13.92Z"/></g><g class="cls-1"><path class="cls-2" d="M311.41,119.35H190.08a2,2,0,0,1,0-4H311.41a2,2,0,0,1,0,4Z"/>
    </g>
    <g class="cls-1">
        <path class="cls-2" d="M311.41,130.35H190.08a2,2,0,0,1,0-4H311.41a2,2,0,1,1,0,4Z"/>
    </g>
    <g class="cls-1">
        <path class="cls-2" d="M311.41,181.35H190.08a2,2,0,0,1,0-4H311.41a2,2,0,0,1,0,4Z"/>
    </g>
    <g class="cls-1">
        <path class="cls-2" d="M311.41,192.35H190.08a2,2,0,0,1,0-4H311.41a2,2,0,0,1,0,4Z"/>
    </g>
    <g class="cls-1">
        <path class="cls-2" d="M311.41,242.35H190.08a2,2,0,0,1,0-4H311.41a2,2,0,0,1,0,4Z"/>
    </g>
    <g class="cls-1">
        <path class="cls-2" d="M311.41,253.35H190.08a2,2,0,0,1,0-4H311.41a2,2,0,0,1,0,4Z"/>
    </g>
    <path class="cls-3" d="M363.69,54.38H55.84A20.78,20.78,0,0,0,35.08,75.13V286.68a20.78,20.78,0,0,0,20.76,20.76H179l-11,47.81H134a2.5,2.5,0,0,0,0,5H285.51a2.5,2.5,0,0,0,0-5h-34l-11-47.81H363.69a20.78,20.78,0,0,0,20.76-20.76V75.13A20.78,20.78,0,0,0,363.69,54.38ZM184.05,307.44h51.42l11,47.81H173.08Zm195.39-20.76a15.77,15.77,0,0,1-15.76,15.76H55.84a15.77,15.77,0,0,1-15.76-15.76V75.13A15.77,15.77,0,0,1,55.84,59.38H363.69a15.77,15.77,0,0,1,15.76,15.76Z"/>
    <g class="cls-1">
        <path class="cls-2" d="M156.84,104.33l-26.49,33.8a1.5,1.5,0,0,1-2.24.14l-19.66-19.66a1.5,1.5,0,0,1,1.69-2.42l17,7.87a1.5,1.5,0,0,0,1.59-.21l25.94-21.6A1.5,1.5,0,0,1,156.84,104.33Z"/></g><g class="cls-1"><path class="cls-2" d="M156.84,162l-26.49,33.8a1.5,1.5,0,0,1-2.24.14l-19.66-19.66a1.5,1.5,0,0,1,1.69-2.42l17,7.87a1.5,1.5,0,0,0,1.59-.21l25.94-21.6A1.5,1.5,0,0,1,156.84,162Z"/></g><g class="cls-1"><path class="cls-2" d="M128.49,263.65a19.33,19.33,0,1,1,19.33-19.33A19.36,19.36,0,0,1,128.49,263.65Zm0-34.67a15.33,15.33,0,1,0,15.33,15.33A15.35,15.35,0,0,0,128.49,229Z"/>
    </g>
</svg>