<?xml version="1.0" encoding="utf-8"?>
<!-- Generator: Adobe Illustrator 26.5.0, SVG Export Plug-In . SVG Version: 6.00 Build 0)  -->
<svg version="1.1" id="Capa_1" xmlns="http://www.w3.org/2000/svg" xmlns:xlink="http://www.w3.org/1999/xlink" x="0px" y="0px"
	 viewBox="0 0 23 23" style="enable-background:new 0 0 23 23;" xml:space="preserve">
<style type="text/css">
	.st0{opacity:0.2;}
	.st1{fill:#0074A8;}
	.st2{fill:#FFFFFF;}
</style>
<g class="st0">
	<circle class="st1" cx="11.5" cy="11.5" r="10.2"/>
</g>
<g>
	<g>
		<polygon class="st2" points="4.9,13 12,6.3 16.5,6.3 16.3,10.7 9,17.7 4.8,13.3 		"/>
	</g>
	<g>
		<path class="st1" d="M11.9,5.9l-7.8,7.3l4.7,5l7.8-7.3l0.3-5L11.9,5.9z M5.3,13.3l1.1-1l3.6,3.8l-1.1,1L5.3,13.3z M15.8,10.5
			l-5.3,5l-3.6-3.8l5.3-5l3.8,0L15.8,10.5z"/>
	</g>
	<g>
		<path class="st1" d="M11.6,9.3c0,0.4,0.1,0.9,0.4,1.2c0.3,0.3,0.7,0.5,1.1,0.5c0.4,0,0.8-0.1,1.2-0.4c0.3-0.3,0.5-0.7,0.5-1.1
			c0-0.4-0.1-0.9-0.4-1.2c-0.6-0.6-1.7-0.7-2.3-0.1C11.8,8.5,11.6,8.9,11.6,9.3z M12.7,8.8c0.2-0.2,0.4-0.2,0.6-0.2s0.4,0.1,0.6,0.3
			C14,9,14.1,9.2,14.1,9.4c0,0.2-0.1,0.4-0.3,0.6c-0.3,0.3-0.9,0.3-1.2,0c-0.2-0.2-0.2-0.4-0.2-0.6C12.4,9.1,12.5,8.9,12.7,8.8z"/>
	</g>
</g>
<g>
	<path class="st1" d="M11.5,22C5.7,22,1,17.3,1,11.5S5.7,1,11.5,1S22,5.7,22,11.5S17.3,22,11.5,22z M11.5,1.7
		c-5.4,0-9.8,4.4-9.8,9.8s4.4,9.8,9.8,9.8c5.4,0,9.8-4.4,9.8-9.8S16.9,1.7,11.5,1.7z"/>
</g>
</svg>
