<?xml version="1.0" encoding="utf-8"?>
<!-- Generator: Adobe Illustrator 26.5.0, SVG Export Plug-In . SVG Version: 6.00 Build 0)  -->
<svg version="1.1" id="Capa_1" xmlns="http://www.w3.org/2000/svg" xmlns:xlink="http://www.w3.org/1999/xlink" x="0px" y="0px"
	 viewBox="0 0 11.1 10" style="enable-background:new 0 0 11.1 10;" xml:space="preserve">
<style type="text/css">
	.st0{fill:#577EBC;}
</style>
<g>
	<path class="st0" d="M8.5,4.6C8.3,4.5,8.1,4.5,8,4.6l-2.1,2V1.3c0-0.2-0.2-0.3-0.3-0.3c-0.2,0-0.3,0.1-0.3,0.3v5.4l-2.1-2
		C3,4.5,2.8,4.5,2.6,4.7C2.5,4.8,2.5,5,2.6,5.1l2.6,2.5c0.2,0.2,0.4,0.2,0.6,0l2.6-2.5C8.6,5,8.6,4.7,8.5,4.6"/>
	<path class="st0" d="M9.8,9.1H1.3V8c0-0.2,0.1-0.3,0.3-0.3C1.8,7.6,2,7.8,2,8v0.5h7.1V8c0-0.2,0.1-0.3,0.3-0.3
		c0.2,0,0.3,0.1,0.3,0.3V9.1z"/>
</g>
</svg>
