<?xml version="1.0" encoding="utf-8"?>
<!-- Generator: Adobe Illustrator 26.5.0, SVG Export Plug-In . SVG Version: 6.00 Build 0)  -->
<svg version="1.1" id="Capa_1" xmlns="http://www.w3.org/2000/svg" xmlns:xlink="http://www.w3.org/1999/xlink" x="0px" y="0px"
	 viewBox="0 0 9.6 9.7" style="enable-background:new 0 0 9.6 9.7;" xml:space="preserve">
<style type="text/css">
	.st0{opacity:0.5;}
	.st1{fill:#828383;}
</style>
<g class="st0">
	<g>
		<g>
			<path class="st1" d="M7.6,2.1c0.1,0.3,0,0.6-0.2,0.8C6.8,3.7,6.3,4.5,5.8,5.3c-0.5,0.8-1,1.5-1.5,2.3C4.2,7.7,4.1,7.7,4,7.8
				C3.5,8.1,2.9,8.3,2.4,8.6c0,0,0,0-0.1,0C2.1,8.7,2,8.6,2,8.4c0-0.7,0.1-1.3,0.1-2c0-0.1,0-0.1,0.1-0.2c1.1-1.6,2.1-3.2,3.2-4.8
				c0.3-0.5,1-0.6,1.5-0.3c0.1,0.1,0.2,0.1,0.3,0.2C7.4,1.6,7.5,1.8,7.6,2.1z M5.3,2.4C4.5,3.7,3.6,5.1,2.7,6.4
				c0.4,0.3,0.8,0.6,1.2,0.8c0.9-1.3,1.7-2.6,2.6-3.9C6.1,3,5.7,2.7,5.3,2.4z M6.8,2.9C6.9,2.8,7,2.7,7.1,2.5C7.2,2.3,7.1,2,6.9,1.8
				C6.8,1.7,6.6,1.6,6.5,1.6C6.3,1.4,6.1,1.5,5.9,1.6C5.8,1.7,5.7,1.9,5.6,2C6,2.3,6.4,2.6,6.8,2.9z M2.6,6.8c0,0.4-0.1,0.8-0.1,1.2
				c0.4-0.2,0.7-0.4,1.1-0.6C3.2,7.3,2.9,7.1,2.6,6.8z"/>
		</g>
	</g>
</g>
</svg>
