<?xml version="1.0" encoding="utf-8"?>
<!-- Generator: Adobe Illustrator 26.5.0, SVG Export Plug-In . SVG Version: 6.00 Build 0)  -->
<svg version="1.1" id="Capa_1" xmlns="http://www.w3.org/2000/svg" xmlns:xlink="http://www.w3.org/1999/xlink" x="0px" y="0px"
	 viewBox="0 0 679.7 425" style="enable-background:new 0 0 679.7 425;" xml:space="preserve">
<style type="text/css">
	.st0{fill:#F5F5F5;}
	.st1{fill:#E0E0E0;}
	.st2{fill:#EBEBEB;}
	.st3{fill:#263238;}
	.st4{fill:#FFBF9D;}
	.st5{fill:#FF9A6C;}
	.st6{fill:#FF725E;}
	.st7{opacity:0.3;}
	.st8{fill:#FFFFFF;}
	.st9{fill:#263238;stroke:#263238;stroke-miterlimit:10;}
	.st10{fill:#455A64;}
	.st11{fill:#FAFAFA;}
</style>
<g id="freepik--background-complete--inject-6">
	<path class="st0" d="M345.9,126.4l-9.8-8.5c-2-1.7-2.9-4.3-2.4-6.9l2.4-12.7c0.5-2.5,2.3-4.6,4.8-5.5l12.2-4.2
		c2.5-0.8,5.2-0.3,7.1,1.4l9.8,8.5c2,1.7,2.9,4.3,2.4,6.9l-2.5,12.7c-0.5,2.5-2.3,4.6-4.8,5.5l-12.2,4.2c-0.8,0.3-1.6,0.4-2.4,0.4
		C349,128.2,347.3,127.5,345.9,126.4z M364.6,104.2l-9.1-7.9l-11.4,4l-2.3,11.9l9.2,7.9l11.4-4L364.6,104.2z"/>
	<path class="st0" d="M203.1,89.4l-5-4.3c-2-1.7-2.9-4.3-2.4-6.9l1.2-6.4c0.5-2.5,2.3-4.6,4.8-5.5l6.2-2.2c2.5-0.8,5.2-0.3,7.1,1.4
		l5,4.3c2,1.7,2.9,4.3,2.4,6.9l-1.2,6.4c-0.5,2.5-2.3,4.6-4.8,5.5l-6.2,2.2c-0.8,0.3-1.6,0.4-2.4,0.4
		C206.1,91.2,204.4,90.6,203.1,89.4z M214.5,75.7l-4.3-3.8l-5.4,1.9l-1.1,5.6l4.3,3.7l5.4-1.9L214.5,75.7z"/>
	<path class="st1" d="M658.6,228.8l-13-2c-2.4-0.4-4.4-2-5.3-4.2l-4.7-12.2c-0.9-2.2-0.5-4.8,1-6.7l8.1-10.2
		c1.5-1.9,3.9-2.8,6.3-2.5l13,2c2.4,0.4,4.4,2,5.3,4.2l4.8,12.2c0.9,2.2,0.5,4.8-1,6.7l-8.2,10.2c-1.3,1.6-3.2,2.5-5.3,2.5
		C659.3,228.9,658.9,228.9,658.6,228.8z M662.9,199.9l-12.7-1.9l-8,10l4.7,12l12.7,1.9l8-10L662.9,199.9z"/>
	<path class="st2" d="M621.9,136.7l-3.9-6.7c-0.9-1.6-0.9-3.6,0-5.3l3.9-6.7c0.9-1.6,2.7-2.6,4.6-2.6h7.7c1.9,0,3.6,1,4.6,2.6
		l3.9,6.7c0.9,1.6,0.9,3.6,0,5.3l-3.9,6.7c-0.9,1.6-2.7,2.6-4.6,2.6h-7.7C624.6,139.3,622.8,138.3,621.9,136.7z M626.4,119.4
		c-0.5,0-0.9,0.2-1.1,0.6l-3.9,6.7c-0.2,0.4-0.2,0.9,0,1.3l3.9,6.7c0.2,0.4,0.7,0.6,1.1,0.6h7.7c0.5,0,0.9-0.2,1.1-0.6l3.9-6.7
		c0.2-0.4,0.2-0.9,0-1.3l-3.9-6.7c-0.2-0.4-0.6-0.6-1.1-0.6L626.4,119.4z"/>
	<polygon class="st2" points="502.7,77.5 515.8,70.3 548.1,26.9 556.2,16 558.8,12.5 553.9,7.1 528.1,22.9 509.6,54.1 494.5,63.6 	
		"/>
	<polygon class="st2" points="527.8,93.7 534,76.8 561.5,49.8 571.5,21.3 565.2,17.5 517.8,71.7 513.5,86.1 	"/>
	<path class="st1" d="M497.7,83.7c0,0-62.7,36.8-67.8,41.3s-23.8,32.9-29.6,38s-7.8,4.4-10.3-0.9s22.7-46.6,33.4-56.5
		s64.3-39.3,64.3-39.3L497.7,83.7z"/>
	<circle class="st2" cx="524.1" cy="61.9" r="17"/>
	<path class="st1" d="M528.1,78.5l-0.8,0.2c-0.4,0.1-0.9,0.2-1.3,0.2c-0.6,0.1-1.2,0.1-1.8,0.1c-1.6,0-3.3-0.2-4.9-0.6
		c-2.1-0.6-4.1-1.6-5.8-2.9c-4.6-3.6-7.1-9.3-6.5-15.1c0.1-1.7,0.5-3.3,1.2-4.8c0.3-0.8,0.7-1.6,1.1-2.3c0.5-0.7,1-1.5,1.5-2.1
		c4.7-5.8,12.7-7.9,19.7-5.1c1.6,0.6,3.1,1.5,4.5,2.6c1.3,1,2.4,2.3,3.4,3.6c1.7,2.5,2.8,5.5,3,8.6c0.3,4.9-1.5,9.7-5,13.2
		c-1.2,1.2-2.5,2.2-4,2.9c-0.5,0.3-1.1,0.5-1.6,0.8c-0.4,0.2-0.8,0.3-1.2,0.4l-0.8,0.2c-0.1,0-0.2,0-0.3,0c1.3-0.4,2.6-1,3.8-1.6
		c1.4-0.8,2.7-1.8,3.8-3c3.4-3.4,5.1-8.2,4.8-13c-0.2-3-1.2-5.9-2.9-8.3c-0.9-1.3-2-2.5-3.3-3.5c-0.6-0.5-1.3-1-2-1.4
		c-0.7-0.4-1.5-0.8-2.3-1.1c-6.8-2.7-14.5-0.7-19.1,5c-0.5,0.7-1,1.3-1.5,2.1c-0.4,0.7-0.8,1.5-1.1,2.2c-0.7,1.5-1.1,3.1-1.2,4.7
		c-0.8,8,4.3,15.4,12,17.7c1.6,0.5,3.2,0.7,4.8,0.7c1.4,0,2.8-0.2,4.1-0.4C528.2,78.4,528.2,78.4,528.1,78.5z"/>
	<path class="st1" d="M514.8,64.3C514.8,64.3,514.8,64.3,514.8,64.3c-1.3-5.1,1.7-10.4,6.9-11.7c5.1-1.3,10.3,1.8,11.7,6.9
		c1.3,5.1-1.8,10.3-6.9,11.7C521.4,72.5,516.2,69.5,514.8,64.3z"/>
	<path class="st1" d="M524.1,71.6c-2.2,0.1-4.4-0.7-6.1-2c-1.2-0.9-2.2-2.1-2.8-3.5c-0.8-1.6-1.1-3.3-0.9-5.1c0.2-1.9,1-3.8,2.2-5.3
		c2.7-3.3,7.3-4.5,11.2-2.9c0.9,0.4,1.8,0.9,2.5,1.5c0.7,0.6,1.4,1.3,1.9,2.1c1,1.5,1.6,3.1,1.7,4.9c0.1,1.5-0.2,3-0.8,4.4
		c-0.9,2-2.4,3.7-4.4,4.7c-0.7,0.4-1.5,0.7-2.2,0.8c0.7-0.3,1.4-0.6,2.1-1c1.9-1.1,3.3-2.7,4.1-4.7c0.6-1.3,0.8-2.8,0.7-4.3
		c-0.1-1.7-0.7-3.3-1.6-4.6c-0.5-0.8-1.1-1.4-1.8-2c-0.7-0.6-1.5-1.1-2.4-1.4c-3.8-1.5-8.1-0.4-10.7,2.8c-1.2,1.4-1.9,3.2-2.1,5
		c-0.2,1.7,0.1,3.3,0.8,4.9c1.6,3.3,4.9,5.4,8.5,5.5c1.5,0,2.3-0.3,2.3-0.2C525.7,71.5,524.9,71.6,524.1,71.6z"/>
	<path class="st2" d="M502.4,85.2l-0.7,0.4c-3.5,2-8,0.8-10.1-2.7l-6.9-12.1c-2-3.5-0.8-8,2.7-10.1l0.7-0.4c3.5-2,8-0.8,10.1,2.7
		l6.9,12.1C507.2,78.6,506,83.2,502.4,85.2z"/>
	<path class="st1" d="M505.5,75.7c0.8,1.8,0.9,3.8,0.3,5.6c-0.2,0.7-0.6,1.4-1,2c-0.5,0.7-1.1,1.2-1.8,1.7c-0.7,0.5-1.6,1-2.4,1.3
		c-0.9,0.3-2,0.5-3,0.4c-2.2-0.2-4.3-1.3-5.6-3.1c-2.4-3.9-4.8-8.2-7.4-12.8c-1.3-2.3-1.3-5.2,0-7.5c0.6-1.1,1.5-2,2.5-2.7
		c1-0.7,2.1-1.1,3.2-1.4c2.2-0.4,4.4,0.1,6.2,1.5c0.8,0.6,1.4,1.4,1.9,2.3l1.3,2.3c1.7,2.9,3,5.3,4,7.1c0.4,0.8,0.8,1.4,1.1,1.9
		c0.1,0.2,0.2,0.5,0.3,0.7c-0.2-0.2-0.3-0.4-0.4-0.6l-1.1-1.9l-4.1-7c-0.9-1.5-1.6-3.3-3.2-4.5c-1.7-1.3-3.8-1.8-5.9-1.4
		c-1.1,0.2-2.1,0.7-3.1,1.4c-1,0.7-1.7,1.5-2.3,2.6c-1.2,2.2-1.2,4.8,0,7c2.6,4.5,5.1,8.9,7.4,12.7c1.8,2.5,5.1,3.6,8.1,2.6
		c0.8-0.3,1.6-0.7,2.3-1.2c0.7-0.4,1.3-1,1.7-1.6c0.4-0.6,0.8-1.2,1-1.9c0.4-1.1,0.6-2.2,0.4-3.4c-0.1-1-0.4-1.9-0.8-2.8
		C505.3,75.3,505.4,75.5,505.5,75.7z"/>
	<path class="st1" d="M507.1,95.3c0,0-26.1,67.9-29.8,73.6s-28.6,28.9-32.7,35.4s-3.1,8.3,2.5,10s42.3-29.9,50.3-42.2
		c8-12.3,28.3-69.9,28.3-69.9L507.1,95.3z"/>
	<path class="st2" d="M531.7,100.9l-0.3,0.7c-1.4,3.8-5.7,5.8-9.5,4.3l-13-4.9c-3.8-1.4-5.8-5.7-4.3-9.5l0.3-0.7
		c1.4-3.8,5.7-5.8,9.5-4.3l13,4.9C531.2,92.8,533.1,97.1,531.7,100.9z"/>
	<path class="st1" d="M511.4,86.1c-1.1,0.1-2.3,0.4-3.2,1c-0.6,0.4-1.2,0.8-1.7,1.3c-0.5,0.6-1,1.3-1.3,2c-0.4,0.8-0.6,1.6-0.8,2.5
		c-0.5,3.1,1.1,6.1,3.9,7.5c4.2,1.6,8.9,3.3,13.8,5.2c2.4,0.9,5,0.5,7-1.1c0.9-0.7,1.6-1.7,2.1-2.8c0.5-1,0.8-2.1,0.9-3.2
		c0.1-2.1-0.8-4.1-2.3-5.6c-1.4-1.3-3.3-1.7-4.9-2.4l-7.6-2.9l-2-0.8c-0.2-0.1-0.5-0.2-0.7-0.3c0.3,0.1,0.5,0.1,0.7,0.2l2.1,0.7
		l7.6,2.8l2.5,0.9c0.9,0.3,1.8,0.8,2.6,1.5c1.7,1.5,2.6,3.7,2.5,5.9c-0.1,1.2-0.3,2.4-0.9,3.4c-0.5,1.2-1.3,2.2-2.2,3
		c-2.1,1.7-4.9,2.1-7.5,1.2c-4.9-1.9-9.5-3.5-13.8-5.2c-2-1-3.5-2.9-4-5.1c-0.2-1-0.3-2-0.1-3c0.2-0.9,0.5-1.8,0.9-2.6
		c0.4-0.8,0.8-1.5,1.4-2.1c0.5-0.5,1.1-1,1.8-1.3c1-0.6,2.2-0.9,3.4-0.9c0.7,0,1.5,0.1,2.2,0.3c0.2,0.1,0.5,0.2,0.7,0.3
		C513.4,86.2,512.4,86.1,511.4,86.1z"/>
</g>
<path class="st3" d="M73,139.1c-0.7-10.6-2.6-21.2-5.7-31.4c-3.2-10.5-8.8-20.5-17.5-27.3c-0.9-0.7-1.7-10.6-2.8-10.2
	c-1.5,0.4-2.2,11.6-2.2,13.2c0.3,10.6,4,20.9,9.3,30.1S66.2,131,73,139.1"/>
<path class="st4" d="M148.9,202.1L106,215.4L57,101.9c-10.7-24.4-5.3-50.8,19.3-60.8l2.3-0.8c23.5-7.9,49.1,3.5,58.9,26.3
	c9.1,21.2,18.9,44.7,22.7,56.4c7.9,24.3-14.9,36.2-15,36.2s13.2,35,15.9,42L148.9,202.1z"/>
<path class="st5" d="M147.6,165.6c-23.4,10.3-37-5.1-37-5.1c19.7,4.7,34.6-1.3,34.6-1.3L147.6,165.6z"/>
<path class="st3" d="M137.5,89.8c-0.8-1.8-2.8-2.6-4.6-1.8c-1.8,0.7-2.8,2.7-2.2,4.6c0,0,0,0,0,0.1c0.8,1.8,2.8,2.6,4.6,1.8
	C137.3,93.8,138.2,91.8,137.5,89.8C137.6,89.9,137.6,89.8,137.5,89.8z"/>
<path class="st3" d="M133.9,76.9c-2-0.6-4.1-0.6-6,0.1c-2,0.6-3.7,1.9-4.9,3.5c-0.9,1.3-1.1,2.2-0.8,2.4c0.5,0.3,2.6-2.5,6.4-3.7
	c3.7-1.3,7-0.2,7.3-0.8C135.9,78.1,135.3,77.4,133.9,76.9z"/>
<path class="st3" d="M105,102.9c-0.8-1.8-2.8-2.6-4.6-1.8c-1.8,0.7-2.8,2.7-2.2,4.6c0,0,0,0.1,0,0.1c0.8,1.8,2.8,2.6,4.6,1.8
	C104.7,106.9,105.6,104.9,105,102.9C105,103,105,103,105,102.9z"/>
<path class="st3" d="M98,90.7c-2-0.6-4.1-0.6-6,0.1c-2,0.6-3.7,1.9-4.9,3.5c-0.9,1.3-1,2.2-0.8,2.4c0.6,0.3,2.6-2.5,6.4-3.7
	s7-0.2,7.3-0.8C100,91.9,99.4,91.2,98,90.7z"/>
<path class="st3" d="M129,114.1c0.5-0.2,1.1-0.5,1.5-0.8c0.6-0.4,1-1.1,1.1-1.9c0-1.6-1-2.6-1.8-3.6c-1.6-2-3.4-4.1-5.1-6.4
	c-7.4-9-13.6-16-14-15.7s5.3,7.8,12.7,16.8l5.3,6.3c0.8,0.9,1.5,1.9,1.6,2.6s-0.8,1.2-1.7,1.6c-3.6,1.7-5.8,2.9-5.7,3.1
	C123,116.4,125.3,115.6,129,114.1z"/>
<path class="st3" d="M113.1,125.3c1,2.2,2.9,3.8,5.1,4.7c2.3,0.9,4.9,0.9,7.3,0.1c1.8-0.7,2.6-1.5,2.5-1.8c-0.2-0.6-4.4,1.3-8.8-0.4
	s-5.8-5.7-6.4-5.5C112.5,122.5,112.4,123.7,113.1,125.3z"/>
<path class="st3" d="M91.7,75.9c-4.8-0.1-9.4,2-12.4,5.8c-1.1,1.5-1.4,2.7-1,3c0.9,0.7,4-1.7,8.2-3.7s8.1-2.8,8.1-3.9
	C94.6,76.6,93.5,76.1,91.7,75.9z"/>
<path class="st3" d="M128.2,64.7c-3.7-1.1-7.8,0.1-10.2,3.1c-0.9,1.2-1,2.2-0.6,2.5c0.9,0.7,3.3-0.8,6.4-1.8s5.9-0.9,6.3-2
	C130.2,66,129.6,65.2,128.2,64.7z"/>
<path class="st4" d="M74,142.5c0.2,0.5-15,9.9-21.1-6.4s11.7-17,12.2-17C65,119.2,73.8,142.1,74,142.5z"/>
<path class="st5" d="M66.5,139.3c-0.6,0.8-1.5,1.3-2.5,1.4c-2.6,0.2-5.4-2.3-6.8-5.5c-0.6-1.6-0.9-3.3-0.7-4.9c0-1.5,0.7-2.9,2-3.6
	c0.5-0.3,1.2-0.3,1.7-0.2c0.4,0.1,0.8,0.4,1,0.8c0.4,0.6,0.2,1,0.1,1s-0.1-0.4-0.5-0.7c-0.5-0.5-1.4-0.6-2-0.1
	c-0.9,0.7-1.4,1.8-1.3,3c-0.1,1.5,0.2,3,0.7,4.4c1.2,2.9,3.6,5.1,5.6,5.1c0.8,0,1.5-0.3,2.1-0.8c0.4-0.4,0.5-0.7,0.6-0.7
	C66.8,138.3,66.8,138.7,66.5,139.3z"/>
<path class="st3" d="M112.1,41.4c0,0-0.3,3.5-4.5,10.2c-2.8,4.7-20.4,5.9-30.8,6.1c-6.6,0.2-12.5,3.9-15.6,9.7
	c-0.3,0.6-0.6,1.2-0.8,1.8c-0.8,2.9,0.3,6.1,2,8.6c1.7,2.5,4,4.6,5.8,7c3.4,4.4,5.2,9.8,7,15.1c2.5,7.5,5,15.2,3.9,23
	c-0.5,3.6-3,8-7.2,6c-1.7-0.9-3-2.5-3.6-4.3c-1.7-5-7-5.6-10.6-8.4c-3-2.2-4.7-5.7-6.1-9.1c-4.6-11.2-7-23.5-5.4-35.5
	s8.6-20.9,18.3-28.1c8-6,24-9,35.5-8.3c7.6,0.4,18.8,6,16.7,8.4L112.1,41.4z"/>
<path class="st6" d="M114.1,32.1c3.2,0.8,2.6,3.4,2.6,3.4l16,11.3l5.1,1.6c0,0,23.8,1.2,26.6,1.8c3.7,0.8,1.8,3.6-5.8,5.3l-26.2,9.4
	c-34.7,10.8-65.1,22.5-87.1,43c-3.2,1.9-7-3.8-6.3-5.5c0.5-1.2,1.2-2.3,2-3.4c0,0-4.1-5.4-4.2-27.6s24.4-37.3,25.5-37.9
	C83,23.1,110.9,31.2,114.1,32.1z"/>
<g class="st7">
	<path d="M81.1,36.8c13.4-0.1,21.9,3.5,21.9,3.5c-1.6,1.7-4.3,1.7-6.7,1.5l-14-1.2l1.8,0.2C69.1,39.2,42,53.7,42,53.7
		C48,41.7,67.7,36.9,81.1,36.8z"/>
</g>
<g class="st7">
	<path d="M37.2,80.6c0,1.7,0.2,3.3,0.4,5C49.7,80.5,57.2,75.4,68,68.1c1.9-1.3,6.4-4.9,7.4-6.9c1.1-1.9,1-4.3-0.1-6.2
		c-1.6,3.9-6.1,6.5-9.8,9c-4.9,3.3-10,6.1-15,9.2C45.7,76.1,42.3,78.7,37.2,80.6"/>
</g>
<path class="st6" d="M36.9,68.9c9.5-6.2,19.3-11.6,30.1-15.1c1.9-0.7,3.9-1.2,5.8-0.7s3.6,2.6,2.9,4.5c-0.6,1.2-1.5,2.1-2.7,2.6
	L39.9,79.7c-0.6,0.4-1.3,0.7-2,0.9C35.5,81,34,78.3,33.3,76C32.5,73.1,34.1,71.5,36.9,68.9"/>
<polygon class="st8" points="127.5,43 103.3,51.9 99.3,46.2 121.8,39 "/>
<path class="st6" d="M47.2,220l23.1,40.5l42,64l69.1,74l93.1-62.1l-39.5-116.5l-37.7-66l-18.6,9.2l-18.6,8l-11.2-7
	c0,1.4-9.3,31.8-9.3,31.8L88.8,177l0.3,14.8L47.2,220z"/>
<path class="st9" d="M143.8,194.1c0-1-0.1-2.4-0.1-4.1v-0.2l0.2,0.1c5.7,2.6,10.9,6.1,15.4,10.3l-0.4,0.2c0-0.7,0.1-1.4,0.1-2.1
	c0.4-7.2,0.8-13.8,1.1-18.6c0.2-2.3,0.3-4.2,0.4-5.6c0.1-0.6,0.1-1.1,0.1-1.5c-0.1,0-0.2-0.1-0.2-0.2c0-0.1,0.1-0.3,0.2-0.3
	c0.1,0,0.3,0.1,0.3,0.2c0,0.1-0.1,0.3-0.2,0.3c0,0.4,0,0.9,0,1.5c-0.1,1.4-0.1,3.3-0.2,5.6c-0.2,4.8-0.6,11.3-1,18.6
	c0,0.7-0.1,1.4-0.1,2.1v0.6l-0.4-0.4c-4.5-4.2-9.7-7.7-15.2-10.4l0.2-0.1c-0.1,1.7-0.1,3.1-0.1,4.1c0,0.5,0,1-0.1,1.5
	C143.8,195.1,143.8,194.6,143.8,194.1z"/>
<path class="st9" d="M94.4,192.8l1.7,0.7l6.3,2.7l20.8,9.1l9.8,4.4l-0.3,0.3c-0.8-4.7-1.1-9.5-1-14.3v-0.3l0.2,0.1l4.6,2.4l1.2,0.7
	c0.1,0.1,0.3,0.2,0.4,0.2c0,0-0.2,0-0.4-0.2l-1.2-0.6l-4.7-2.3l0.2-0.1c-0.1,4.8,0.3,9.5,1.1,14.2l0.1,0.4l-0.4-0.2l-9.9-4.4
	l-20.8-9.3l-6.3-2.9L94.4,192.8c-0.3,0-0.5-0.1-0.6-0.3C94,192.6,94.2,192.7,94.4,192.8z"/>
<path class="st10" d="M577.7,133.1v263.7c0,8-6.5,14.6-14.6,14.6H182.2c-8,0-14.6-6.5-14.6-14.6V133.1c0-8,6.5-14.6,14.6-14.6h380.9
	C571.2,118.6,577.7,125.1,577.7,133.1z"/>
<path class="st10" d="M593.7,392.5v7.8c0,9.8-8,17.8-17.8,17.8H167.3c-9.8,0-17.8-8-17.8-17.8v-7.8l0,0H593.7
	C593.7,392.5,593.7,392.5,593.7,392.5z"/>
<rect x="179.8" y="130.2" class="st3" width="386.9" height="247.3"/>
<polygon class="st3" points="324.9,389.8 330,399.2 407.6,399.2 413.1,389.8 "/>
<path class="st2" d="M558.7,141.8v231.6c0,1.8-1.5,3.3-3.3,3.3H190.2c-1.8,0-3.3-1.5-3.3-3.3V141.8c0-1.8,1.5-3.3,3.3-3.3h365.2
	C557.2,138.6,558.7,140,558.7,141.8z"/>
<polygon class="st11" points="187.4,156.4 558.7,156.4 559.1,377.1 187.4,377.1 "/>
<path class="st3" d="M530.5,144.6c1.6,0,3,1.3,3.1,2.9c0.1,1.7-1.2,3.1-2.9,3.2c-1.7,0.1-3.1-1.2-3.2-2.9
	C527.4,146,528.8,144.6,530.5,144.6z"/>
<path class="st3" d="M549.1,144.6c1.6,0,3,1.3,3.1,2.9c0.1,1.7-1.2,3.1-2.9,3.2c-1.7,0.1-3.1-1.2-3.2-2.9
	C546,146,547.4,144.6,549.1,144.6z"/>
<path class="st3" d="M539.5,144.6c1.6,0,3,1.3,3.1,2.9c0.1,1.7-1.2,3.1-2.9,3.2c-1.7,0.1-3.1-1.2-3.2-2.9
	C536.4,146,537.8,144.6,539.5,144.6z"/>
<path class="st3" d="M374.4,389.5c112.3,0,203.3,0.1,203.3,0.3s-91,0.3-203.3,0.3s-203.2-0.1-203.2-0.3S262.1,389.5,374.4,389.5z"/>
<path class="st1" d="M429.4,188.6l22.5,23.3l-10.7,16.4c3.4,6.2,6,12.8,7.7,19.6l19,4.7l-0.6,32.3l-19.1,4
	c-1.9,6.8-4.8,13.3-8.4,19.4l10.1,16.7l-23.3,22.5l-16.4-10.7c-6.2,3.4-12.7,6-19.6,7.7l-4.6,19l-32.4-0.6l-4-19.1
	c-6.8-1.9-13.3-4.7-19.4-8.4l-16.7,10.1L291.2,322l10.7-16.4c-3.4-6.1-6-12.7-7.7-19.6l-19-4.7l0.6-32.3l19.1-4
	c1.9-6.8,4.7-13.3,8.4-19.4L293.2,209l23.3-22.5l16.4,10.7c6.2-3.4,12.8-6,19.6-7.7l4.7-19l32.3,0.6l4,19.1
	c6.8,1.9,13.3,4.8,19.3,8.4L429.4,188.6z M395.5,241.8C395.5,241.8,395.5,241.8,395.5,241.8c-13.3-13.8-35.3-14.2-49.1-0.9
	c-13.8,13.3-14.2,35.3-0.9,49.1c13.3,13.8,35.3,14.2,49.1,0.9C408.5,277.5,408.8,255.5,395.5,241.8L395.5,241.8z"/>
<path class="st1" d="M527.1,322.7l7.2,3.5l-3,12.8l-8-0.1c-1.3,2.5-3,4.9-5,7l2.6,7.5l-11.2,6.9l-5.6-5.7c-2.7,0.9-5.6,1.3-8.4,1.4
	l-3.5,7.1l-12.8-3l0.1-8c-2.5-1.3-4.9-3-7-5l-7.5,2.6l-6.9-11.2l5.7-5.6c-0.8-2.7-1.3-5.6-1.4-8.5l-7.2-3.5l3-12.8l8,0.1
	c1.3-2.5,3-4.9,5-7l-2.6-7.5l11.2-6.9l5.6,5.7c2.7-0.8,5.6-1.3,8.5-1.4l3.5-7.1l12.8,3l-0.1,8c2.5,1.3,4.9,3,7,5l7.5-2.6l6.9,11.2
	l-5.7,5.5C526.5,316.9,527,319.8,527.1,322.7L527.1,322.7z M508.6,326.3C508.6,326.3,508.6,326.3,508.6,326.3
	c1.8-7.7-2.9-15.3-10.5-17c-7.6-1.8-15.2,2.9-17,10.5c-1.8,7.6,2.9,15.2,10.5,17S506.8,333.9,508.6,326.3L508.6,326.3z"/>
<path class="st2" d="M504,215.8l4.9,1.5l-0.6,8.4l-5,0.7c-0.6,1.7-1.4,3.4-2.5,4.9l2.4,4.5l-6.4,5.5l-4.1-3
	c-1.7,0.8-3.4,1.4-5.2,1.7l-1.5,4.9l-8.4-0.6l-0.7-5c-1.7-0.6-3.4-1.4-4.9-2.5l-4.5,2.4l-5.5-6.4l3-4.1c-0.8-1.7-1.4-3.4-1.7-5.2
	l-4.8-1.5l0.7-8.4l5-0.7c0.6-1.7,1.4-3.4,2.5-4.9l-2.4-4.5l6.4-5.5l4.1,3c1.7-0.8,3.4-1.4,5.2-1.7l1.5-4.9l8.4,0.7l0.7,5
	c1.7,0.6,3.4,1.4,4.9,2.5l4.5-2.4l5.5,6.4l-3,4.1C503.2,212.3,503.8,214,504,215.8L504,215.8z M492.7,219.9c0.4-5-3.3-9.3-8.3-9.7
	c-4.9-0.4-9.3,3.3-9.7,8.3c-0.4,5,3.3,9.3,8.3,9.7C488,228.6,492.3,224.9,492.7,219.9C492.7,219.9,492.7,219.9,492.7,219.9z"/>
<path class="st2" d="M283.2,306.1l4.2,1.3l-0.6,7.2l-4.3,0.6c-0.5,1.5-1.2,2.9-2.1,4.2l2,3.9l-5.5,4.7l-3.5-2.6
	c-1.4,0.7-2.9,1.2-4.5,1.5l-1.3,4.2l-7.2-0.6l-0.6-4.3c-1.5-0.5-2.9-1.2-4.2-2.1l-3.9,2l-4.7-5.5l2.6-3.5c-0.7-1.4-1.2-2.9-1.5-4.5
	l-4.2-1.3l0.6-7.2l4.3-0.6c0.5-1.5,1.2-2.9,2.1-4.2l-2-3.9l5.5-4.7l3.5,2.6c1.4-0.7,2.9-1.2,4.5-1.5l1.3-4.2l7.2,0.6l0.6,4.3
	c1.5,0.5,2.9,1.2,4.2,2.1l3.9-2l4.7,5.5l-2.6,3.5C282.4,303,282.8,304.6,283.2,306.1L283.2,306.1z M273.4,309.6
	c0.3-4.2-2.8-8-7.1-8.3c0,0,0,0,0,0c-4.3-0.3-8,2.9-8.3,7.1c-0.3,4.3,2.9,8,7.1,8.3C269.3,317.1,273.1,313.9,273.4,309.6
	L273.4,309.6z"/>
<path class="st6" d="M321.8,317c-2.9,0-5.8-0.8-8.3-2.2c-8-4.6-10.8-14.8-6.2-22.8l24.9-43.1l24.9-43.1c1.5-2.5,3.6-4.6,6.1-6.1
	c8-4.6,18.2-1.9,22.8,6.1l24.9,43.1l24.9,43.1c1.4,2.5,2.2,5.4,2.2,8.3c0,9.2-7.4,16.7-16.7,16.7h-49.7H321.8z"/>
<path class="st3" d="M317.2,300.2c0,1.4,0.4,2.7,1.2,3.8c0.5,0.7,1.1,1.3,1.9,1.8c0.8,0.5,1.8,0.8,2.8,0.9l35.9,0l53.2,0h7.6
	c2.6,0,4.8-1.7,5.7-4.1c0.4-1.2,0.5-2.5,0.2-3.8c-0.4-1.2-0.9-2.4-1.6-3.5c-1.3-2.3-2.6-4.7-3.9-7.1l-16.2-29.6
	c-5.5-10.1-11-20-16.2-29.6l-7.7-14.1c-0.6-1.1-1.2-2.3-1.9-3.4c-0.6-1.1-1.5-2-2.6-2.6c-2.2-1.2-4.8-1.4-7.1-0.3
	c-1.1,0.5-2.1,1.3-2.8,2.2c-0.7,1-1.3,2.1-1.8,3.1c-1.2,2.1-2.3,4.2-3.5,6.3l-6.6,12.1L341.7,254c-7.3,13.3-13.2,24-17.3,31.4
	l-4.7,8.5l-1.2,2.2c-0.3,0.5-0.4,0.8-0.4,0.8s0.1-0.2,0.4-0.8s0.7-1.2,1.2-2.2l4.6-8.6c4-7.5,9.9-18.2,17.1-31.5
	c3.6-6.6,7.6-13.9,11.9-21.7c2.1-3.9,4.3-7.9,6.6-12.1c1.1-2.1,2.3-4.2,3.5-6.3c0.5-1.1,1.2-2.2,1.9-3.2c0.8-1,1.8-1.8,3-2.4
	c2.4-1.1,5.2-1,7.5,0.3c1.2,0.7,2.1,1.6,2.8,2.8c0.7,1.1,1.3,2.3,1.9,3.4c2.5,4.6,5.1,9.3,7.7,14.1l16.2,29.6l16.1,29.6
	c1.3,2.4,2.6,4.8,3.9,7.1l1,1.8c0.1,0.3,0.3,0.6,0.4,0.9s0.2,0.7,0.3,1c0.3,1.3,0.2,2.7-0.2,4c-0.9,2.6-3.4,4.4-6.1,4.4h-7.6
	l-53.2-0.1c-15.1,0-27.4,0-35.9-0.1c-1-0.1-2-0.4-2.9-0.9c-0.7-0.5-1.4-1.1-1.9-1.9c-1.3-1.9-1.5-4.3-0.7-6.4
	c0.2-0.5,0.4-0.8,0.4-0.8C317.5,297.9,317.2,299,317.2,300.2z"/>
<path class="st8" d="M371.1,295.5c-5,0-8.5-3.4-8.5-7.9s3.4-7.7,8.5-7.7s8.5,3.3,8.5,7.7C379.6,292,376.1,295.5,371.1,295.5z
	 M376.8,275.8h-11.3l-2.8-33.3h16.9L376.8,275.8z"/>
<path class="st8" d="M369.9,200.4c0.8-0.3,1.6-0.5,2.4-0.6c2.7-0.2,5.4,0.7,7.6,2.4c2.1,1.7,3.7,3.9,4.8,6.4
	c0.3,0.7,0.6,1.5,0.9,2.2c0.1,0.3,0.2,0.6,0.2,0.9c-0.1,0.1-0.5-1.1-1.4-2.9c-1.1-2.4-2.7-4.4-4.7-6.1c-2.1-1.6-4.6-2.5-7.2-2.4
	c-1.1,0.1-2.1,0.3-3.2,0.7C369.2,200.8,369.4,200.6,369.9,200.4z"/>
<path class="st8" d="M388.5,216.9c-0.5-0.7-0.9-1.5-1.1-2.4c0.1-0.1,0.8,0.9,1.5,2.1c0.5,0.7,0.9,1.5,1.1,2.4
	C389.4,218.5,388.8,217.7,388.5,216.9z"/>
<path class="st1" d="M73.6,385.5l3.8,1.5l5.4-11.6l14-0.7l10.4,9.5l0.7,14l-9.2,10.1l3.8,1.5c8.5,0.2,16.7-4.3,22.8-11.1
	c7.9-8.8,10.1-21.4,5.4-32.2l7.3-8l2.4-2.6l77-84.5c11.3,3.6,23.6,0.3,31.6-8.5c6.2-6.9,11.9-17.5,10.8-26l-3.8-1.5l-9.2,10.1
	l-14,0.7l-10.4-9.5l-0.7-14l12.9-8.6l-3.7-1.5c-5.5-0.8-11.1,0-16.2,2.2c-15.3,6.6-22.4,24.4-15.8,39.8l-75.7,83.1l-1.3,1.5
	l-9.6,10.5c-11.3-3.6-23.7-0.3-31.7,8.5C73.9,365.5,71.3,375.8,73.6,385.5z"/>
<g class="st7">
	<path d="M73.6,385.5l3.8,1.5l5.4-11.6l14-0.7l10.4,9.5l0.7,14l-9.2,10.1l3.8,1.5c8.5,0.2,16.7-4.3,22.8-11.1
		c7.9-8.8,10.1-21.4,5.4-32.2l7.3-8l2.4-2.6l77-84.5c11.3,3.6,23.6,0.3,31.6-8.5c6.2-6.9,11.9-17.5,10.8-26l-3.8-1.5l-9.2,10.1
		l-14,0.7l-10.4-9.5l-0.7-14l12.9-8.6l-3.7-1.5c-5.5-0.8-11.1,0-16.2,2.2c-15.3,6.6-22.4,24.4-15.8,39.8l-75.7,83.1l-1.3,1.5
		l-9.6,10.5c-11.3-3.6-23.7-0.3-31.7,8.5C73.9,365.5,71.3,375.8,73.6,385.5z"/>
</g>
<path class="st1" d="M77.4,387l9.2-10.1l14-0.7l10.4,9.5l0.7,14l-9.2,10.1c5.5,0.8,11.1,0,16.2-2.2c15.3-6.6,22.4-24.4,15.8-39.7
	l7.3-8l2.4-2.6l77-84.5c5.3,1.7,11,1.9,16.4,0.6c16.2-3.9,26.2-20.3,22.2-36.5l-9.2,10.1l-14,0.7l-10.4-9.5l-0.7-14l9.2-10.1
	c-5.5-0.8-11.1,0-16.2,2.2c-15.3,6.6-22.4,24.4-15.8,39.8l-75.7,83.1l-1.3,1.5l-9.6,10.5c-11.3-3.6-23.7-0.3-31.6,8.5
	C77.6,367,75,377.3,77.4,387z"/>
<path class="st4" d="M123.8,331.7l12.5,2.8l19.3,6c3.8,1.2,14,1.9,17.7,1.3s3.7-7.5,3.7-7.5s4.6,0.7,7.6-2.2s-0.8-8.6-0.8-8.6
	c5.6,1,8.6,0.2,10-4.2s-1.9-8.4-1.9-8.4c5.9,1.3,9.1-5.7,8.5-8.3s-33.8-14.2-33.8-14.2l9.4-8l-25.7,3.2l-28.8,13.4L123.8,331.7z"/>
<path class="st5" d="M183.4,307.6c4.8,1.4,8.6,2.9,8.5,3.2s-4.1-0.4-9-1.9s-8.6-2.9-8.5-3.2S178.6,306.2,183.4,307.6z"/>
<path class="st5" d="M176.8,320.8c3.9,1.2,6.9,2.4,6.8,2.8s-3.3-0.2-7.2-1.4s-6.9-2.4-6.8-2.8C169.7,319,172.9,319.7,176.8,320.8z"
	/>
<path class="st5" d="M171.5,331.2c3.4,0.9,5.8,2.6,5.6,3s-2.8-0.8-6-1.6s-6-1.4-5.9-1.8C165.3,330.4,168.1,330.2,171.5,331.2z"/>
<path class="st5" d="M170.4,289.2c4.7,1.6,8.3,3.5,8.2,3.8s-4-0.9-8.6-2.5s-8.4-3-8.3-3.4C161.7,286.8,165.6,287.6,170.4,289.2z"/>
<polygon class="st4" points="136.9,332.1 68.3,359.7 64.7,317 127,294.4 "/>
<path class="st6" d="M86.2,271.4l-19.9,37.3l12.3-3.2l15.7,51.7c0,0-22.1,8-40.7,13c-31.1,8.3-45.3-6.7-45.9-27.8
	c-0.5-20.4,21.7-84.3,26.5-99.4S47,219.6,47,219.6L86.2,271.4z"/>
<path class="st3" d="M37.8,315.4c0.3-0.2,0.7-0.4,1.1-0.6c1.4-0.7,2.8-1.3,4.3-1.7c1.9-0.6,4.1-1.1,6.6-1.6l8.1-1.8
	c5.7-1.3,10.9-2.4,14.7-3.2l4.5-0.9c0.5-0.1,1.1-0.2,1.7-0.3c-0.5,0.2-1.1,0.4-1.6,0.5l-4.4,1.1c-3.7,0.9-8.9,2.1-14.7,3.4l-8.1,1.8
	c-2.5,0.5-4.7,1-6.6,1.5c-1.5,0.4-2.9,0.9-4.3,1.5c-1,0.4-1.5,0.7-1.5,0.7C37.6,315.6,37.7,315.5,37.8,315.4z"/>
<g class="st7">
	<path d="M22.7,320.5c0.8,0.2,1.6,0.1,2.4-0.3c13.1-5.3,26.8-9.3,40.8-11.9l1-0.5c-11.3,0.4-22.6,0.9-33.8,2.4
		c-2.5,0.2-4.9,0.9-7.2,1.9c-2.3,1.1-3.9,3.2-4.3,5.7C21.3,319,21.8,320,22.7,320.5z"/>
</g>
<g class="st7">
	<path d="M286.2,143.8c3.7,2,8.2,2.2,12.4,1.4c5.3-0.8,10.2-3.1,14.1-6.7c3.9-3.7,6.1-8.8,6-14.2c-0.1-1.9-0.6-4.1-2.3-5
		c-1.4-0.8-3.1-0.5-4.7-0.3c-10.5,1.8-23.1-1.3-33.6,0.5C276.4,126.8,279.6,140.2,286.2,143.8z"/>
</g>
<path class="st4" d="M312.2,138.6c-2.3-1.7,2.4-8.8,2.4-8.8l0.2-11c0,0-8.8,22.2-11.2,24.5s-8,0.6-8,0.6c-6.8,3.6-8.5-1.3-8.5-1.3
	s-0.9,0.6-3.1-1.1s-1.6-22.4-1.6-22.4l-9-0.4c0.1-2.7,0.7-5.3,1.8-7.7c1.2-2.7,3.5-4.8,6.3-5.8c1.6-0.5,3-1.4,4-2.7
	c1.8-2.8,10.7-2.4,10.7-2.4c1.5-0.4,3.1-0.8,4.6-1c2.3-0.3,6.4,3.9,6.4,3.9c5.5-1.6,6.7,0.1,9.2,2.7c1.1,1,2,2.1,2.9,3.3
	c0.7-0.5,1.6-0.6,2.4-0.2c2.6,1,4.4,3.4,4.5,6.2c0.3,4.1,0.6,10.4,0,12.7c-0.9,3.4-7.3,10.9-7.3,10.9S314.5,140.3,312.2,138.6z"/>
<path class="st5" d="M307.3,112.1c-0.3,1-0.6,2.2-1.1,3.6c-0.9,3.1-2.2,7.3-3.7,12s-2.7,8.9-4.2,11.8c-0.6,1.1-1.2,2.2-2,3.3
	c-0.2,0.3-0.4,0.5-0.7,0.8c-0.2,0.2-0.2,0.3-0.3,0.2s0.3-0.4,0.8-1.2c0.7-1.1,1.3-2.2,1.8-3.3c1.4-2.8,2.6-7.2,4.1-11.8
	s2.8-8.9,3.8-11.9l1.2-3.6c0.1-0.4,0.3-0.9,0.5-1.3C307.6,111.2,307.5,111.6,307.3,112.1z"/>
<path class="st5" d="M296.3,109.6c-0.2,1-0.5,2.2-0.9,3.8c-0.8,3.2-1.9,7.5-3.2,12.3s-2.4,9.1-3.3,12.3c-0.4,1.5-0.8,2.7-1.1,3.7
	c-0.1,0.5-0.3,0.9-0.5,1.3c0-0.5,0.1-0.9,0.3-1.4c0.2-1,0.5-2.2,0.9-3.7c0.8-3.2,1.9-7.5,3.2-12.3s2.5-9.1,3.3-12.3l1.1-3.7
	c0.1-0.5,0.3-0.9,0.5-1.3C296.6,108.6,296.5,109.1,296.3,109.6z"/>
</svg>
