<?xml version="1.0" encoding="utf-8"?>
<!-- Generator: Adobe Illustrator 26.5.0, SVG Export Plug-In . SVG Version: 6.00 Build 0)  -->
<svg version="1.1" id="Capa_1" xmlns="http://www.w3.org/2000/svg" xmlns:xlink="http://www.w3.org/1999/xlink" x="0px" y="0px"
	 viewBox="0 0 11.1 10" style="enable-background:new 0 0 11.1 10;" xml:space="preserve">
<style type="text/css">
	.st0{fill:#808181;}
</style>
<g>
	<path class="st0" d="M9.3,6.4v-1c0-0.1,0-0.3,0-0.4c0-0.4-0.4-0.8-0.8-0.9c0,0-0.1,0-0.1,0l0-0.4c0-0.3,0-0.5,0-0.8
		c0-0.4-0.1-0.8-0.2-1.1c-0.4-0.8-1.1-1.3-2-1.5c-0.1,0-0.2,0-0.3-0.1l-0.1,0l-0.5,0l-0.1,0c-0.1,0-0.1,0-0.2,0
		C4.2,0.3,3.6,0.7,3.2,1.3C2.9,1.7,2.7,2.2,2.7,2.6c0,0.3,0,0.6,0,1c0,0.1,0,0.3,0,0.4v0c-0.1,0-0.1,0-0.1,0C2,4.2,1.7,4.6,1.7,5
		c0,1.3,0,2.5,0,3.8c0,0.1,0,0.2,0,0.3c0.1,0.4,0.5,0.7,1,0.7l5.5,0c0.2,0,0.5-0.1,0.6-0.2c0.3-0.2,0.4-0.5,0.4-0.8
		C9.3,8,9.3,7.2,9.3,6.4z M3.3,2.7c0-1,0.8-1.9,1.9-2c1.2-0.1,2.2,0.5,2.5,1.6c0,0.1,0,0.3,0,0.4c0,0.3,0,0.6,0,0.9V4H3.3l0-0.4
		C3.3,3.4,3.3,3.1,3.3,2.7z M8.7,8.8c0,0.3-0.1,0.4-0.4,0.4H2.8c-0.3,0-0.4-0.1-0.4-0.4l0-1c0-0.9,0-1.8,0-2.8c0-0.1,0-0.2,0.1-0.3
		c0.1-0.1,0.2-0.1,0.3-0.1h0c0.7,0,1.3,0,2,0h0.7h0.7c0.7,0,1.3,0,2,0c0.1,0,0.2,0,0.3,0.1c0.1,0.1,0.1,0.2,0.1,0.3
		c0,0.9,0,1.8,0,2.8L8.7,8.8z"/>
	<path class="st0" d="M6.1,6C5.9,5.8,5.6,5.7,5.3,5.8C5,5.9,4.7,6.1,4.6,6.4C4.5,6.7,4.5,7,4.7,7.3c0,0,0,0.1,0,0.1
		c0,0.4,0.3,0.8,0.8,0.8h0c0.2,0,0.4-0.1,0.6-0.2c0.2-0.1,0.2-0.3,0.2-0.5c0,0,0,0,0-0.1c0.2-0.2,0.2-0.5,0.2-0.7
		C6.5,6.3,6.3,6.1,6.1,6z M5.8,7C5.7,7.1,5.7,7.1,5.7,7.2c0,0,0,0.1,0,0.1c0,0,0,0.1,0,0.1c0,0.1-0.1,0.1-0.1,0.1
		c-0.1,0-0.1,0-0.1-0.1c0,0,0-0.1,0-0.1c0-0.1,0-0.2-0.1-0.4C5.1,6.8,5.2,6.7,5.2,6.6c0.1-0.1,0.2-0.2,0.3-0.2
		c0.2,0,0.3,0.1,0.4,0.2C5.9,6.7,5.9,6.9,5.8,7z"/>
</g>
</svg>
