<svg id="Capa_1" data-name="Capa 1" xmlns="http://www.w3.org/2000/svg" viewBox="0 0 419.53 419.53">
    <defs>
        <style>
            .cls-2{fill:#99d0dd;}
        </style>
    </defs>
    <title>media</title>
        <g class="cls-1">
            <path class="cls-2" d="M256.05,378.32H70.38a2.22,2.22,0,0,1-2.22-2.22V116.23A2.22,2.22,0,0,1,70.38,114H191.94v4.44H72.6V373.88H253.83V179.51h4.44V376.1A2.22,2.22,0,0,1,256.05,378.32Z"/>
        </g>
        <g class="cls-1">
            <path class="cls-2" d="M163.27,114h-4.44V44.83A2.22,2.22,0,0,1,161,42.61H282.63v4.44H163.26Z"/>
        </g>
        <g class="cls-1">
            <path class="cls-2" d="M346.56,307.22l-88.28,0v-4.44l86.06,0V108.91h4.44V305A2.22,2.22,0,0,1,346.56,307.22Z"/>
        </g>
        <g class="cls-1">
            <path class="cls-2" d="M157.77,284.4l24.93-20.46a2.76,2.76,0,0,0,0-4.27l-24.93-20.46a2.76,2.76,0,0,0-4.52,2.14v40.92A2.76,2.76,0,0,0,157.77,284.4Z"/>
        </g>
        <g class="cls-1">
            <path class="cls-2" d="M162.76,306.85a45,45,0,1,1,45-45A45.1,45.1,0,0,1,162.76,306.85Zm0-85.65a40.6,40.6,0,1,0,40.6,40.6A40.65,40.65,0,0,0,162.76,221.2Z"/>
        </g>
        <g class="cls-1">
            <path class="cls-2" d="M262.26,90.49H198.47a2.22,2.22,0,0,1,0-4.44h63.78a2.22,2.22,0,0,1,0,4.44Z"/>
        </g>
        <g class="cls-1">
            <path class="cls-2" d="M262.26,118H198.47a2.22,2.22,0,0,1,0-4.44h63.78a2.22,2.22,0,0,1,0,4.44Z"/>
        </g>
        <g class="cls-1">
            <path class="cls-2" d="M307.8,145.6H225.14a2.22,2.22,0,1,1,0-4.44H307.8a2.22,2.22,0,0,1,0,4.44Z"/>
        </g>
        <g class="cls-1">
            <path class="cls-2" d="M308.69,173.16h-56a2.22,2.22,0,0,1,0-4.44h56a2.22,2.22,0,0,1,0,4.44Z"/>
        </g>
        <g class="cls-1">
            <path class="cls-2" d="M307.8,200.71H260.69a2.22,2.22,0,1,1,0-4.44H307.8a2.22,2.22,0,0,1,0,4.44Z"/>
        </g>
            <g class="cls-1">
        <path class="cls-2" d="M307.8,228.27H260.69a2.22,2.22,0,1,1,0-4.44H307.8a2.22,2.22,0,0,1,0,4.44Z"/>
        </g>
        <g class="cls-1">
            <path class="cls-2" d="M307.8,255.82H260.69a2.22,2.22,0,1,1,0-4.44H307.8a2.22,2.22,0,0,1,0,4.44Z"/>
        </g>
        <g class="cls-1">
            <path class="cls-2" d="M348.64,109l-64.75-.12a1.26,1.26,0,0,1-1.26-1.26l-.06-64.84Z"/>
        </g>
        <g class="cls-1">
            <path class="cls-2" d="M258.2,179.56l-65,0a1.26,1.26,0,0,1-1.26-1.26l-.07-64.16Z"/>
        </g>
    </svg>