<?xml version="1.0" encoding="utf-8"?>
<!-- Generator: Adobe Illustrator 26.5.0, SVG Export Plug-In . SVG Version: 6.00 Build 0)  -->
<svg version="1.1" id="Capa_1" xmlns="http://www.w3.org/2000/svg" xmlns:xlink="http://www.w3.org/1999/xlink" x="0px" y="0px"
	 viewBox="0 0 11.1 10" style="enable-background:new 0 0 11.1 10;" xml:space="preserve">
<style type="text/css">
	.st0{fill:#010202;}
</style>
<g>
	<path class="st0" d="M9.4,9c0-0.3,0-0.5-0.2-0.7C9.1,8.1,8.9,7.9,8.6,7.9c0.2,0,0.3,0,0.5,0c0.2,0,0.3-0.1,0.3-0.3
		c0-0.2-0.1-0.3-0.3-0.3c0,0-0.1,0-0.1,0c-1.8,0-3.7,0-5.5,0c-0.2,0-0.4-0.1-0.4-0.3c0-0.2,0.1-0.3,0.4-0.3c1.8,0,3.7,0,5.5,0
		c0.2,0,0.3-0.1,0.4-0.3c0.3-1.2,0.7-2.4,1-3.6c0.1-0.3,0.2-0.6,0.2-0.8c0,0,0,0,0-0.1c-0.1-0.2-0.2-0.3-0.4-0.3c-2.5,0-4.9,0-7.4,0
		c0,0-0.1,0-0.1,0C2.6,1.3,2.6,1.1,2.5,0.8c0-0.1,0-0.2-0.1-0.2c0-0.2-0.2-0.2-0.3-0.2c-0.4,0-1.2,0-1.6,0c-0.2,0-0.3,0.1-0.3,0.3
		C0.3,0.8,0.4,1,0.6,1c0.1,0,0.2,0,0.3,0c0.3,0,0.7,0,1.1,0L3,6.1c0,0-0.1,0-0.1,0c-0.4,0.2-0.6,0.6-0.5,1c0.1,0.4,0.4,0.7,0.8,0.7
		c0.2,0,0.4,0,0.6,0C3.3,8,3.1,8.5,3.1,8.9c0,0.5,0.4,0.9,0.9,0.9C4.5,9.8,4.9,9.5,5,9c0-0.1,0-0.3,0-0.4c0-0.1-0.1-0.2-0.1-0.3
		C4.7,8.2,4.6,8.1,4.5,8C4.4,8,4.3,7.9,4.2,7.9l4.1,0C7.8,8,7.5,8.4,7.5,8.9c0,0.5,0.4,0.9,0.9,0.9C8.9,9.8,9.3,9.4,9.4,9z M4.1,8.5
		c0.2,0,0.3,0.1,0.3,0.3C4.4,9,4.2,9.1,4,9.1C3.9,9.1,3.7,9,3.7,8.8C3.7,8.7,3.9,8.5,4.1,8.5z M8.5,9.1C8.3,9.1,8.2,9,8.2,8.8
		c0-0.2,0.1-0.3,0.3-0.3c0.2,0,0.3,0.1,0.3,0.3C8.8,9,8.7,9.1,8.5,9.1z M3.7,6C3.4,4.7,3.1,3.5,2.8,2.2c2.4,0,4.7,0,7.1,0
		C9.6,3.5,9.2,4.7,8.9,6C7.1,6,5.4,6,3.7,6z"/>
</g>
</svg>
