<?xml version="1.0" encoding="utf-8"?>
<!-- Generator: Adobe Illustrator 26.5.0, SVG Export Plug-In . SVG Version: 6.00 Build 0)  -->
<svg version="1.1" id="Capa_1" xmlns="http://www.w3.org/2000/svg" xmlns:xlink="http://www.w3.org/1999/xlink" x="0px" y="0px"
	 viewBox="0 0 471.6 409.7" style="enable-background:new 0 0 471.6 409.7;" xml:space="preserve">
<style type="text/css">
	.st0{fill:#F5F5F5;}
	.st1{fill:#E0E0E0;}
	.st2{fill:#37474F;}
	.st3{fill:#263238;}
	.st4{fill:#455A64;}
	.st5{fill:#0074A8;}
	.st6{fill:#BA68C8;}
	.st7{fill:#7FC5DF;}
	.st8{fill:#3D5561;}
	.st9{opacity:5.000000e-02;}
	.st10{fill:#EBEBEB;}
	.st11{fill:#FAFAFA;}
	.st12{fill:#294E7A;}
	.st13{opacity:0.4;fill:#FFFFFF;enable-background:new    ;}
	.st14{fill:#0F5584;}
	.st15{fill:#026596;}
	.st16{opacity:0.1;enable-background:new    ;}
	.st17{opacity:0.5;fill:#FFFFFF;enable-background:new    ;}
	.st18{opacity:7.000000e-02;}
	.st19{fill:#FFA8A7;}
	.st20{fill:#273E62;}
	.st21{fill:#2C313A;}
	.st22{fill:#EBADB3;}
	.st23{fill:#E6E6E6;}
	.st24{fill:#F28F8F;}
	.st25{opacity:0.8;fill:#FFFFFF;enable-background:new    ;}
	.st26{opacity:0.1;}
</style>
<g id="freepik--Floor--inject-47">
	<path id="freepik--floor--inject-47" class="st0" d="M205.2,137.5c145,0,262.5,60.1,262.5,134.2S350.2,406,205.2,406
		c-69.5,0-179.7-36.4-179.7-36.4l0-195.7C25.5,173.9,135.7,137.5,205.2,137.5z"/>
</g>
<path id="freepik--Shadow--inject-47" class="st1" d="M143.2,333.8l102.4-53.6c6-3.2,6-8.2-0.1-11.3l-78.4-39.2
	c-6.1-3.1-16-3-22,0.2l-95.7,49.8c-6,3.2-6.2,8.5-0.2,11.9l72.4,41.8C127.5,336.8,137.1,336.9,143.2,333.8z"/>
<path id="freepik--shadow--inject-47" class="st1" d="M161.1,343.8l82.5-47.6c3.3-1.7,7.2-1.7,10.4,0l53.1,30.7c2.9,1.7,2.9,4.4,0,6
	l-82.5,47.7c-3.3,1.7-7.2,1.7-10.4,0l-53.2-30.7C158.1,348.1,158.1,345.5,161.1,343.8z"/>
<path id="freepik--shadow--inject-47_00000091697301731110489980000001433747671575213215_" class="st1" d="M316.5,222.4
	c-26.6,15.3-26.6,40.2,0,55.6s69.6,15.3,96.2,0s26.6-40.2,0-55.6S343.1,207.1,316.5,222.4z"/>
<g>
	<path class="st2" d="M295.6,172.7c-8.5,3.9-8.5,10.3,0,14.3c8.5,3.9,22.3,3.9,30.8,0c8.5-3.9,8.5-10.3,0-14.3
		C318,168.8,304.2,168.8,295.6,172.7z"/>
	<g>
		<path id="freepik--shadow--inject-47_00000140733325271712977600000013153184994829657755_" class="st1" d="M288.8,167.6
			c-12.3,7.1-12.3,18.6,0,25.7c12.3,7.1,32.2,7.1,44.5,0s12.3-18.6,0-25.7S301.1,160.5,288.8,167.6z"/>
		<path class="st3" d="M332.9,179.9L332.9,179.9c0-2.6-2.1-5.2-6.4-7.1c-8.5-3.9-22.3-3.9-30.8,0c-4.3,2-6.4,4.6-6.4,7.1l0,0v2.4
			l0,0c0,2.6,2.2,5.1,6.4,7c8.5,3.9,22.3,3.9,30.8,0c4.2-1.9,6.3-4.5,6.4-7l0,0L332.9,179.9z"/>
		<path class="st2" d="M295.6,172.7c-8.5,3.9-8.5,10.3,0,14.3c8.5,3.9,22.3,3.9,30.8,0c8.5-3.9,8.5-10.3,0-14.3
			C318,168.8,304.2,168.8,295.6,172.7z"/>
		<path class="st4" d="M313.4,50.1h-4.7v128.7l0,0c0,0.4,0.2,0.7,0.7,0.9c1,0.4,2.3,0.4,3.3,0c0.4-0.1,0.7-0.5,0.7-0.9l0,0
			L313.4,50.1z"/>
		<path class="st5" d="M341.7,50.5L341.7,50.5l-7.5-35.7H288l-7.5,35.7l0,0c-2,5.7,0.8,11.8,8.5,16.2c12.2,7,32,7,44.3,0
			C340.9,62.3,343.7,56.1,341.7,50.5z"/>
		<path class="st6" d="M294.6,25.5c9.1,5.2,23.8,5.2,32.8,0s9.1-13.6,0-18.8s-23.8-5.2-32.8,0S285.6,20.3,294.6,25.5z"/>
		<path class="st7" d="M294.6,25.5c9.1,5.2,23.8,5.2,32.8,0s9.1-13.6,0-18.8s-23.8-5.2-32.8,0S285.6,20.3,294.6,25.5z"/>
		<path class="st5" d="M311.1,26.1c-5,0.1-9.9-1-14.2-3.3c-3.3-1.9-5.1-4.3-5.1-6.7s1.8-4.8,5.1-6.7c9-4.4,19.5-4.4,28.5,0
			c3.3,1.9,5.1,4.3,5.1,6.7s-1.8,4.8-5.1,6.7C320.9,25.1,316,26.2,311.1,26.1z"/>
	</g>
</g>
<path class="st4" d="M304.4,232.9c0.1-0.9,0.6-1.6,1.4-1.9c2.1-1.1,4.6-1.1,6.7,0c0.8,0.3,1.3,1.1,1.4,1.9l-1.4,27.4l0,0
	c-0.1,0.6-0.5,1.1-1,1.3c-1.5,0.8-3.3,0.8-4.7,0c-0.5-0.2-0.9-0.7-1-1.3l0,0L304.4,232.9z"/>
<path class="st3" d="M312.5,230.9c-2.1-1.1-4.6-1.1-6.7,0c-0.8,0.3-1.3,1.1-1.4,1.9l0.6,11.7c2.4,2.5,5.1,4.7,8,6.6l0.9-18.4
	C313.9,232,313.3,231.3,312.5,230.9z"/>
<path class="st4" d="M424.2,232.9c-0.1-0.9-0.6-1.6-1.4-1.9c-2.1-1.1-4.6-1.1-6.7,0c-0.8,0.3-1.3,1.1-1.4,1.9l1.4,27.4l0,0
	c0.1,0.6,0.5,1.1,1,1.3c1.5,0.8,3.3,0.8,4.7,0c0.5-0.2,0.9-0.7,1-1.3l0,0L424.2,232.9z"/>
<path class="st3" d="M422.9,230.9c-2.1-1.1-4.6-1.1-6.7,0c-0.8,0.3-1.3,1.1-1.4,1.9l1,18.8c2.8-1.8,5.5-4,7.9-6.3l0.6-12.4
	C424.2,232,423.7,231.3,422.9,230.9z"/>
<path class="st4" d="M359.3,253.2c-0.1-0.9-0.6-1.6-1.4-1.9c-2.1-1.1-4.6-1.1-6.7,0c-0.8,0.3-1.3,1.1-1.4,1.9l1.4,27.4l0,0
	c0.1,0.6,0.5,1.1,1,1.3c1.5,0.8,3.3,0.8,4.7,0c0.5-0.2,0.9-0.7,1-1.3l0,0L359.3,253.2z"/>
<path class="st3" d="M358.7,264.2l0.6-11c-0.1-0.9-0.6-1.6-1.4-1.9c-2.1-1.1-4.6-1.1-6.7,0c-0.8,0.3-1.3,1.1-1.4,1.9l0.6,11
	C353.1,264.3,355.9,264.3,358.7,264.2z"/>
<path class="st5" d="M432.7,215.7L432.7,215.7c-0.1-10-6.6-20.1-19.9-27.8c-26.6-15.3-69.6-15.3-96.2,0
	c-13.3,7.7-19.9,17.7-19.9,27.8h-0.1v5.4l0,0c0.1,9.9,6.8,19.8,19.9,27.4c26.6,15.3,69.6,15.3,96.2,0c13.1-7.6,19.8-17.5,19.9-27.4
	l0,0V215.7z"/>
<path class="st6" d="M316.5,187.9c-26.6,15.3-26.6,40.2,0,55.6s69.6,15.3,96.2,0s26.6-40.2,0-55.6S343.1,172.6,316.5,187.9z"/>
<g>
	<path class="st7" d="M316.5,187.9c-26.6,15.3-26.6,40.2,0,55.6s69.6,15.3,96.2,0s26.6-40.2,0-55.6S343.1,172.6,316.5,187.9z"/>
</g>
<polygon class="st4" points="371.7,227.5 346.7,241.9 312,221.9 337,207.5 "/>
<path class="st0" d="M346.5,241l24.2-14c-0.5-1.7-0.5-3.6,0.1-5.3l-24.1,13.9C346.4,237.4,346.4,239.2,346.5,241z"/>
<path class="st3" d="M347.8,233.9c-1.2,0.7-1.9,2-2,3.4v3.9c0,1.2,0.9,1.7,2,1.1l24-13.9v-1L348,241.1c-0.6,0.4-1.2,0.1-1.2-0.7
	v-3.6c0.1-0.8,0.5-1.6,1.2-2l23.7-13.6v-1.1L347.8,233.9z"/>
<path class="st8" d="M371.7,220.1l-34.7-20l-24,13.9c-1.2,0.7-1.9,2-2,3.4v3.9c-0.1,0.5,0.2,1,0.6,1.3l34.7,20
	c-0.4-0.3-0.6-0.8-0.6-1.3v-3.9c0.1-1.4,0.8-2.6,2-3.4L371.7,220.1z"/>
<path class="st2" d="M346.4,235.4c-0.3,0.6-0.5,1.2-0.6,1.9v3.9c0,0.5,0.2,1,0.6,1.3l-34.7-20c-0.4-0.3-0.6-0.8-0.6-1.3v-3.9
	c0-0.7,0.2-1.3,0.6-1.9L346.4,235.4z"/>
<g class="st9">
	<path d="M395.2,196.3c6,3.4,6,9,0,12.5s-15.6,3.5-21.6,0s-6-9,0-12.5S389.2,192.8,395.2,196.3z"/>
</g>
<path class="st10" d="M374.9,203.3c-5.2-5.3-8.2-18.5-3.2-22.7h25.8c5.1,4.2,2,17.4-3.2,22.7l-0.1,0.1l-0.2,0.2
	c-0.1,0.1-0.3,0.3-0.5,0.4l-0.1,0.1l-0.4,0.3c-0.2,0.2-0.4,0.3-0.7,0.4c-4.9,2.5-10.6,2.5-15.5,0l0,0c-0.2-0.1-0.5-0.3-0.7-0.4
	l-0.4-0.3l-0.1-0.1c-0.2-0.1-0.3-0.3-0.5-0.4l-0.2-0.2L374.9,203.3z"/>
<path class="st11" d="M395.3,178.9c5.9,3.4,5.9,8.9,0,12.3s-15.4,3.4-21.3,0s-5.9-8.9,0-12.3S389.4,175.5,395.3,178.9z"/>
<path class="st10" d="M391.1,181.3c3.6,2.1,3.6,5.4,0,7.5c-4.1,2.1-8.9,2.1-13,0c-3.6-2.1-3.6-5.4,0-7.5
	C382.2,179.2,387,179.2,391.1,181.3z"/>
<path class="st1" d="M378.1,184.8c4.1-2.1,8.9-2.1,13,0c0.9,0.5,1.6,1.2,2.1,2c-0.5,0.8-1.3,1.5-2.1,2c-4.1,2.1-8.9,2.1-13,0
	c-0.9-0.5-1.6-1.2-2.1-2C376.5,186,377.3,185.3,378.1,184.8z"/>
<path class="st6" d="M390.3,186.8c1.8-1.9,3.4-4,4.7-6.2c2.2-3.8,2.6-8.9,1.5-9.6s-5.7,4.5-5.7,4.5c0.4-2.2,0.6-4.3,0.5-6.5
	c-0.2-3.4-1-6.5-2-7.1s-3.2,3.7-4.1,6.8s-1.5,5.7-1.5,5.7c-0.4-2.4-0.9-4.8-1.7-7.2c-1.1-3.2-2.2-4-3-3.6s-1.3,1.8-1.6,6.1
	c-0.1,2.1,0,4.1,0.2,6.2c0,0-1.6-1.8-3.4-3.5c-2-1.9-2.8-2.1-3.4-1.8s-0.7,3.3,2.3,8.8c1.5,2.8,3.4,5.3,5.7,7.5
	C378.9,186.8,383.1,189.5,390.3,186.8z"/>
<g>
	<path class="st12" d="M390.3,186.8c1.8-1.9,3.4-4,4.7-6.2c2.2-3.8,2.6-8.9,1.5-9.6s-5.7,4.5-5.7,4.5c0.4-2.2,0.6-4.3,0.5-6.5
		c-0.2-3.4-1-6.5-2-7.1s-3.2,3.7-4.1,6.8s-1.5,5.7-1.5,5.7c-0.4-2.4-0.9-4.8-1.7-7.2c-1.1-3.2-2.2-4-3-3.6s-1.3,1.8-1.6,6.1
		c-0.1,2.1,0,4.1,0.2,6.2c0,0-1.6-1.8-3.4-3.5c-2-1.9-2.8-2.1-3.4-1.8s-0.7,3.3,2.3,8.8c1.5,2.8,3.4,5.3,5.7,7.5
		C378.9,186.8,383.1,189.5,390.3,186.8z"/>
</g>
<path class="st5" d="M58.5,218.4l79.7-41.6c0,0,5.6-27.3-13.3-57c0,0,5.6-53-3.8-70.6C114.3,35.7,106,37.6,106,37.6L15.4,78.4
	L58.5,218.4z"/>
<path class="st13" d="M106,37.5L15.4,78.4l3,9.7l99-44.7C111.6,36.3,106,37.5,106,37.5z"/>
<path class="st13" d="M106.3,122.3c0.2,1.4,1.4,1.9,2.7,1.2c1.3-0.8,2.1-2.3,2-3.9c-0.2-1.4-1.4-1.9-2.7-1.2
	C107,119.2,106.2,120.7,106.3,122.3z"/>
<path class="st13" d="M92.5,130.2c0.2,1.4,1.4,1.9,2.7,1.2c1.3-0.8,2.1-2.3,2-3.9c-0.2-1.4-1.4-1.9-2.7-1.2
	C93.2,127.2,92.4,128.7,92.5,130.2z"/>
<path class="st13" d="M78.7,138.2c0.2,1.4,1.4,1.9,2.7,1.2c1.3-0.8,2.1-2.3,2-3.9c-0.2-1.4-1.4-1.9-2.7-1.2
	C79.4,135.1,78.6,136.6,78.7,138.2z"/>
<path class="st13" d="M64.9,146.2c0.2,1.4,1.4,1.9,2.7,1.2c1.3-0.8,2.1-2.3,2-3.9c-0.2-1.4-1.4-1.9-2.7-1.2
	C65.6,143.1,64.8,144.6,64.9,146.2z"/>
<path class="st4" d="M139.2,297.8c-0.1-0.9-0.6-1.6-1.4-1.9c-2.1-1.1-4.6-1.1-6.7,0c-0.8,0.4-1.3,1.1-1.4,1.9l1.4,27.4l0,0
	c0.1,0.6,0.5,1.1,1,1.3c1.5,0.8,3.2,0.8,4.7,0c0.5-0.2,0.9-0.7,1-1.3l0,0L139.2,297.8z"/>
<path class="st2" d="M131.1,295.9c-0.8,0.4-1.3,1.1-1.4,1.9l0.5,10c2.7,1.1,5.7,1.2,8.5,0.2l0.5-10.2c-0.1-0.8-0.6-1.6-1.4-1.9
	C135.7,294.8,133.3,294.8,131.1,295.9z"/>
<path class="st4" d="M219.9,251.2c-0.1-0.9-0.6-1.6-1.4-1.9c-2.1-1.1-4.6-1.1-6.7,0c-0.8,0.3-1.3,1.1-1.4,1.9l1.4,27.4l0,0
	c0.1,0.6,0.5,1.1,1,1.3c1.5,0.8,3.3,0.8,4.7,0c0.5-0.2,0.9-0.7,1-1.3l0,0L219.9,251.2z"/>
<path class="st2" d="M211.8,249.3c-0.8,0.3-1.3,1.1-1.4,1.9l0.8,15.2l8.2-5l0.5-10.2c-0.1-0.9-0.6-1.6-1.4-1.9
	C216.4,248.2,213.9,248.2,211.8,249.3z"/>
<path class="st4" d="M63.3,254c-0.1-0.9-0.6-1.6-1.4-1.9c-2.1-1.1-4.6-1.1-6.7,0c-0.8,0.3-1.3,1.1-1.4,1.9l1.4,27.4l0,0
	c0.1,0.6,0.5,1.1,1,1.3c1.5,0.8,3.3,0.8,4.7,0c0.5-0.2,0.9-0.7,1-1.3l0,0L63.3,254z"/>
<path class="st2" d="M55.1,252c-0.8,0.3-1.3,1.1-1.4,1.9l0.5,10l8.2,4.6l0.7-14.6c-0.1-0.9-0.6-1.6-1.4-1.9
	C59.8,251,57.3,251,55.1,252z"/>
<path class="st6" d="M6.3,95.1l41.2,156c1.1,3.5,3.5,6.6,6.6,8.6l70.9,40.9l4.3,2.5l0.2,0.1c3,1.5,6.5,1.7,9.7,0.5
	c0.2-0.1,0.4-0.2,0.6-0.3l79.8-46.1c3-1.8,5-5,5.2-8.5v-27.6L125,273.1l-80.7-46.6L6.3,95.1"/>
<path class="st14" d="M6.3,95.1l41.2,156c1.1,3.5,3.5,6.6,6.6,8.6l70.9,40.9l4.3,2.5l0.2,0.1c3,1.5,6.5,1.7,9.7,0.5
	c0.2-0.1,0.4-0.2,0.6-0.3l79.8-46.1c3-1.8,5-5,5.2-8.5v-27.6L125,273.1l-80.7-46.6L6.3,95.1"/>
<path class="st6" d="M224.6,223.8v24.9c-0.2,3.5-2.1,6.7-5.2,8.5l-79.8,46.2c-0.2,0.1-0.4,0.2-0.6,0.3c-3,1.2-6.4,1.1-9.4-0.3
	c-0.1,0-0.2-0.1-0.3-0.2l-0.2-0.1l-2.5-30.4L224.6,223.8z"/>
<path class="st15" d="M224.6,223.8v24.9c-0.2,3.5-2.1,6.7-5.2,8.5l-79.8,46.2c-0.2,0.1-0.4,0.2-0.6,0.3c-3,1.2-6.4,1.1-9.4-0.3
	c-0.1,0-0.2-0.1-0.3-0.2l-0.2-0.1l-2.5-30.4L224.6,223.8z"/>
<path class="st5" d="M229.4,210.7v4.4c-0.3,5.3-3.2,10.1-7.8,12.8l-88.9,46.7c-4.9,2.2-10.5,2.1-15.4-0.3l-51.2-29.6
	c-4.5-2.9-7.3-7.8-7.6-13.1v-4.4c0.3-5.3,3.2-10.1,7.8-12.8l84.1-43.9c4.9-2.2,10.6-2.3,15.6-0.1l55.5,27.8
	C226.1,200.6,229.1,205.4,229.4,210.7z"/>
<path class="st16" d="M127,276.1c-3.3,0.3-6.7-0.3-9.6-1.8l-51.2-29.6c-4.5-2.9-7.3-7.8-7.6-13.1v-4.4c0-4.4,2.9-9.6,6.7-12.1
	c-3.2,2.3-2.9,5.6,0.9,7.8l51.2,29.7c2.4,1.3,5.1,1.9,7.8,1.9L127,276.1z"/>
<path class="st6" d="M132.7,252.6l88.9-46.6c4.3-2.2,4.2-5.8-0.1-8L166,170.2c-5-2.2-10.7-2.1-15.6,0.1l-84.1,43.9
	c-4.3,2.2-4.4,6-0.2,8.4l51.3,29.6C122.2,254.8,127.8,254.9,132.7,252.6z"/>
<path class="st7" d="M132.7,252.6l88.9-46.6c4.3-2.2,4.2-5.8-0.1-8L166,170.2c-5-2.2-10.7-2.1-15.6,0.1l-84.1,43.9
	c-4.3,2.2-4.4,6-0.2,8.4l51.3,29.6C122.2,254.8,127.8,254.9,132.7,252.6z"/>
<path class="st6" d="M106,37.5c0,0,13.1-8.9,26.9-0.9s9.3,34.8,7.8,52.1s-2,47.4,10.1,58.4s51.8-3.6,69.1-3.6l-15.2,56.2
	c-16.8-9.2-43.7-18.6-66.4-23c0,0,0.7-35.1-15.3-55.1c0,0,5.9-14,2-42.1C121.4,53.5,116.5,43.6,106,37.5z"/>
<path class="st15" d="M106,37.5c0,0,13.1-8.9,26.9-0.9s9.3,34.8,7.8,52.1s-2,47.4,10.1,58.4s51.8-3.6,69.1-3.6l-15.2,56.2
	c-16.8-9.2-43.7-18.6-66.4-23c0,0,0.7-35.1-15.3-55.1c0,0,5.9-14,2-42.1C121.4,53.5,116.5,43.6,106,37.5z"/>
<path class="st5" d="M204.6,199.8c-0.8-5-4-34,1.4-46.6c4.7-11,17-11.6,20.9-6.9c3.7,4.4,0.4,10.4-5.8,18.4
	c-5.2,6.8-7.1,13.1-7.1,29.6L204.6,199.8z"/>
<path class="st17" d="M219.9,148.2c1.2-0.1,2.5,0.3,3.4,1.1c1.4,1.7-0.4,5.6-5.9,12.6c-5.7,7.5-7.8,14.8-8,29c0,0.4-0.2,0.9-0.6,1.1
	l-0.4,0.2c-1.2-13-1.3-29.5,1.9-37.1C212.5,150,216.7,148.2,219.9,148.2 M219.9,147c-3.6,0-8.2,2-10.6,7.6c-3.6,8.4-3,26.5-2,37.7
	c0.1,0.6,0.6,1.1,1.2,1.1c0.2,0,0.4-0.1,0.6-0.2l0.4-0.2c0.7-0.4,1.2-1.2,1.2-2.1c0.3-14.1,2.2-21.1,7.8-28.3
	c6-7.9,7.7-11.8,5.8-14.1C223.1,147.5,221.5,146.9,219.9,147L219.9,147z"/>
<path class="st4" d="M224.6,347.1c-0.1-0.9-0.6-1.6-1.4-1.9c-2.1-1.1-4.6-1.1-6.7,0c-0.8,0.3-1.3,1.1-1.4,1.9l1.4,27.4l0,0
	c0.1,0.6,0.5,1.1,1,1.3c1.5,0.8,3.3,0.8,4.8,0c0.5-0.2,0.9-0.7,1-1.3l0,0L224.6,347.1z"/>
<path class="st2" d="M216.5,345.2c-0.8,0.3-1.3,1.1-1.4,1.9l1,19.2c2.4,1,5.1,1,7.6,0l1-19.2c-0.1-0.9-0.6-1.6-1.4-1.9
	C221.2,344.1,218.6,344.1,216.5,345.2z"/>
<path class="st4" d="M305.3,300.6c-0.1-0.9-0.6-1.6-1.4-1.9c-2.1-1.1-4.6-1.1-6.7,0c-0.8,0.3-1.3,1.1-1.4,1.9l1.4,27.4l0,0
	c0.1,0.6,0.5,1.1,1,1.3c1.5,0.8,3.3,0.8,4.8,0c0.5-0.2,0.9-0.7,1-1.3l0,0L305.3,300.6z"/>
<path class="st2" d="M297.1,298.6c-0.8,0.3-1.3,1.1-1.4,1.9l1.2,24.1l7.3-4.2l1-19.9c-0.1-0.9-0.6-1.6-1.4-1.9
	C301.7,297.5,299.2,297.5,297.1,298.6z"/>
<path class="st4" d="M172.4,317c-0.1-0.8-0.6-1.6-1.4-1.9c-2.1-1.1-4.6-1.1-6.7,0c-0.8,0.4-1.3,1.1-1.4,1.9l1.4,27.4l0,0
	c0.1,0.6,0.5,1.1,1,1.3c1.5,0.8,3.2,0.8,4.7,0c0.5-0.2,0.9-0.7,1-1.3l0,0L172.4,317z"/>
<path class="st2" d="M164.3,315c-0.8,0.4-1.3,1.1-1.4,1.9l1,20l7.3,4l1.2-24c-0.1-0.8-0.6-1.6-1.4-1.9
	C168.9,314,166.4,314,164.3,315z"/>
<path class="st6" d="M158.1,309.1v15.7c0.2,3.6,2.1,6.8,5.1,8.8l51.6,29.8c3.2,1.6,6.9,1.6,10.1,0l80-46.2c3-1.9,4.9-5.2,5.1-8.8
	v-15.7c-0.2-3.6-2.1-6.8-5.1-8.8l-51.6-29.8c-3.2-1.6-6.9-1.6-10.1,0l-80,46.2C160.2,302.3,158.3,305.6,158.1,309.1z"/>
<path class="st14" d="M219.9,337.2v27.4c-1.8,0-3.5-0.4-5.1-1.2l-51.6-29.8c-3-1.9-4.9-5.2-5.1-8.8v-15.7c0.2-3.3,1.9-6.4,4.6-8.4
	c-2.3,1.6-2.1,4,0.5,5.5l51.6,29.8C216.4,336.8,218.1,337.2,219.9,337.2z"/>
<path class="st15" d="M310,292.7v15.7c-0.2,3.6-2.1,6.8-5.1,8.8l-80,46.2c-1.6,0.8-3.3,1.2-5.1,1.2v-27.4c1.8,0,3.5-0.4,5.1-1.2
	l80-46.2c2.6-1.5,2.8-3.9,0.5-5.5C308.2,286.2,309.9,289.3,310,292.7z"/>
<path class="st5" d="M163.2,300.4l80-46.2c3.2-1.6,6.9-1.6,10.1,0l51.6,29.8c2.8,1.6,2.8,4.2,0,5.8l-80,46.2
	c-3.2,1.6-6.9,1.6-10.1,0l-51.6-29.8C160.4,304.6,160.4,302,163.2,300.4z"/>
<g id="freepik--shadow--inject-47_00000168804790492447368070000008196770181924026776_" class="st18">
	<path d="M210.4,223.2c-3.6-6.6-7.4-13.3-13.1-18.2c-5.1-4.4-11.4-7.1-17.7-9.6c-19.4-7.8-40.1-15.4-53.3-31.6
		c-8.2-10.1-12.7-22.6-15.5-35.3c-1.4-6.3-2.4-12.8-4.9-18.8s-6.7-11.6-12.7-14.2c-2.8-1.2-5.6-1.4-8.5-1.9
		c-1.2-0.2-2.4-0.8-3.7-0.9c-1.5-0.2-3-0.2-4.4,0.1c-2.7,0.5-5.3,1.3-7.8,2.4c-1.4,0.5-2.7,1.2-3.9,2.1c-3.2,2.6-3.6,7.3-1,10.4
		c0.4,0.5,0.9,0.9,1.4,1.3c-3.7,4.2-3.2,10.6,1,14.3c0.5,0.5,1.1,0.9,1.7,1.2c0.4,0.2,0.8,0.5,1,0.9c0.2,0.6,0,1.3-0.4,1.8
		c-1.9,3.2-4,6.2-5.9,9.4c-1.8,2.9-4.1,6.7-4.1,10.2c-0.6,4.5,0.7,8.9,1.9,13.3l7.7,26.8c2.4,8.3,5.3,17.4,12.6,21.9
		c6.5,4,15.1,3.5,21.2,8.1c5.5,4.1,7.6,11.5,12.5,16.2s11.6,6.2,17.9,7.4c7.6,1.4,15.2,2.1,22.9,2.9c0.2,0,0.5,0.1,0.7,0.2
		c0.2,0.2,0.3,0.5,0.3,0.8c0.5,3.5,1.5,7,2.9,10.3c1.4,2.6,3,5,4.9,7.2c4.9,6,10.8,11.1,17.4,15.2c0.6,0.4,1.3,0.8,1.9,1.2
		l27.3-15.8l8.6-5c2.9-1.8,4.8-4.9,5-8.3L210.4,223.2z"/>
</g>
<g id="freepik--shadow--inject-47_00000149370625439597523890000017715317239415163804_">
	<g class="st18">
		<path d="M269.1,291.4c-1.7-0.3-3.4-0.6-5.1-1c-2.4-0.6-4.8-1.6-6.9-2.8c-10.8-5.8-18.8-15.7-28.3-23.4c-0.4-0.3-0.8-0.6-1.3-0.9
			l-11.8,6.8l4.4,4.2c0.8,0.7,1.5,1.5,2.1,2.3c0.9,1.4,0.7,2.6,0.9,4.1c0.3,1.9,1.2,3.6,2.7,4.9c2.2,2,5.4,3.3,7.9,4.6
			c2.4,1.4,4.7,3.1,6.7,5c5.9,5.2,13.7,7.6,21.5,6.4c2.4-0.3,4.7-1.2,6.8-2.5c1.6-1,4.8-3.6,3.8-5.8
			C272.1,292,270.5,291.6,269.1,291.4z"/>
	</g>
	<g class="st18">
		<path d="M235.1,316.7c2.4-0.3,4.7-1.2,6.8-2.5c1.6-1,4.8-3.6,3.8-5.8c-0.6-1.3-2.1-1.7-3.5-1.9c-1.7-0.3-3.4-0.6-5.1-1
			c-2.4-0.6-4.7-1.6-6.8-2.8c-10.9-5.8-18.8-15.7-28.3-23.4c-0.3-0.2-0.6-0.5-1-0.7l-11.7,6.8l4.1,3.9c0.8,0.7,1.5,1.5,2.1,2.3
			c0.9,1.4,0.7,2.6,0.9,4.1c0.3,1.9,1.2,3.6,2.7,4.9c2.2,2,5.4,3.3,7.9,4.6c2.4,1.4,4.7,3.1,6.7,5
			C219.5,315.5,227.4,317.8,235.1,316.7z"/>
	</g>
</g>
<path class="st19" d="M263.1,285.8c-5.7-3.3-10.8-7.6-15.1-12.6c-4.8-5.6-8.9-11.8-12.1-18.4c-7.4-14.9-22.3-45.3-25.5-50.2
	c-4.5-7-29.9-17.3-42.7-23.4c-9.6-4.6-19.5-8.6-29.6-12l-25.4-1.4c-0.6,8.7-1.2,15.4,2.8,23.7s12.3,13.5,25,18.9
	c10.5,4.5,40,9,43.1,9.9s6.1,0.4,7.7,5.9s1.4,8.1,7.8,14.7c8.2,8.5,22.3,19,27.6,28.4c0.8,2.2,1.2,4.5,1.1,6.8
	c-0.8,8.9,6.6,8.2,12,13c2.9,2.6,4.9,5.5,8.6,7c3.4,1.3,7.1,1.8,10.7,1.5c3.3-0.2,8.3-1.9,10-4.3
	C271.7,289.6,266.5,287.7,263.1,285.8z"/>
<path class="st6" d="M139.7,169.3c13.1,4.7,25.9,10.1,38.3,16.2c22.8,11,28.9,13.9,32.3,18.1S230,243,230,243s-2.9,10.2-15.6,12.2
	c0,0-14.3-11.8-17.4-15s-5-8.1-6.4-12.9s-2.7-5.3-19.5-8.2s-41-8-52-20.6s-10.6-24-10.6-24L139.7,169.3z"/>
<path class="st20" d="M139.7,169.3c13.1,4.7,25.9,10.1,38.3,16.2c22.8,11,28.9,13.9,32.3,18.1S230,243,230,243s-2.9,10.2-15.6,12.2
	c0,0-14.3-11.8-17.4-15s-5-8.1-6.4-12.9s-2.7-5.3-19.5-8.2s-41-8-52-20.6s-10.6-24-10.6-24L139.7,169.3z"/>
<path class="st16" d="M192.4,225c-1.1-7.1-10.2-11.1-18-14.8c-6.6-3.1-35.2-16.4-35.2-16.4c2.3-5.8,2-19.3,2-19.3l-28.5,9.2
	c0.5,2.7,1.4,5.4,2.6,7.9c3.9,8.3,12.4,13.5,25.1,18.9c5.8,2.5,17.2,5.6,26.8,8c1.3,0.2,2.6,0.5,3.9,0.7c16.8,2.9,18.1,3.4,19.5,8.2
	s3.3,9.8,6.4,12.9c0.4,0.4,1.1,1.1,1.9,1.8l0,0C193.3,234.9,193,229,192.4,225z"/>
<path class="st11" d="M269.3,293.3c2.7-3.8-3.3-6.1-6.2-7.8c-9.3-5.5-16.3-13.4-22.3-21.9c-1.1,2.2-2.8,3.9-4.9,5
	c-3.7,2-9.2,0.9-9.2,0.9c0.8,2.2,1.1,4.6,0.9,6.9c-0.8,8.9,6.9,8.3,12.2,13.1c2.9,2.6,4.9,5.5,8.6,7c3.4,1.3,7.1,1.8,10.7,1.5
	C262.3,297.7,267.2,296.1,269.3,293.3z"/>
<path class="st6" d="M227.5,273.5c0.1,0.9,0.1,1.8,0,2.7c-0.6,6.7,3.7,8,8.1,10.4C237.2,280.7,232.6,275.5,227.5,273.5z"/>
<path class="st20" d="M227.5,273.5c0.1,0.9,0.1,1.8,0,2.7c-0.6,6.7,3.7,8,8.1,10.4C237.2,280.7,232.6,275.5,227.5,273.5z"/>
<path class="st6" d="M264.4,286.2c-1.7,0.4-3.4,1.1-4.9,2.1c-4.1,2.8-5.8,4.1-6.9,9.3c2.1,0.4,4.3,0.5,6.4,0.3
	c3.3-0.2,8.2-1.8,10.2-4.6C271.6,290,267.5,287.8,264.4,286.2z"/>
<path class="st20" d="M264.4,286.2c-1.7,0.4-3.4,1.1-4.9,2.1c-4.1,2.8-5.8,4.1-6.9,9.3c2.1,0.4,4.3,0.5,6.4,0.3
	c3.3-0.2,8.2-1.8,10.2-4.6C271.6,290,267.5,287.8,264.4,286.2z"/>
<path class="st19" d="M235.5,300.4c-5.6-3.4-10.7-7.6-15.1-12.5c-4.8-5.4-8.9-11.4-12.2-17.8c-7.5-14.6-22.6-43.8-25.8-48.7
	c-6-9.3-47.9-25.8-47.9-25.8c2.1-4.5,6.7-15.6,6.6-20.2L89,184.6c1.5,11.3,3.9,19.5,7.9,25.6c5.5,8.2,9.4,13.5,22.4,17.7
	c10.9,3.5,33.4,6.8,36.6,7.7s6.1,0.4,7.7,5.9s1.4,8.1,7.8,14.7c8.2,8.5,22.3,18.8,27.6,28.2c0.8,2.2,1.1,4.6,0.9,6.9
	c-0.8,8.9,6.9,8.3,12.2,13.1c2.9,2.6,4.9,5.5,8.6,7c3.4,1.3,7.1,1.8,10.7,1.5c3.3-0.2,8.2-1.8,10.2-4.6
	C244.4,304.5,238.4,302.1,235.5,300.4z"/>
<path class="st6" d="M88.9,184.6c0,0,0.4,29.7,18.2,40s50.1,10.3,52.9,15.8s2.8,9.4,8.5,15.5c5.4,5.8,19.5,15.5,19.5,15.5
	s12.1-2.2,16-9.1c0,0-15.6-34-20.6-41.8s-49-24.8-49-24.8s6-7.4,6.8-21.2S88.9,184.6,88.9,184.6z"/>
<path class="st12" d="M88.9,184.6c0,0,0.4,29.7,18.2,40s50.1,10.3,52.9,15.8s2.8,9.4,8.5,15.5c5.4,5.8,19.5,15.5,19.5,15.5
	s12.1-2.2,16-9.1c0,0-15.6-34-20.6-41.8s-49-24.8-49-24.8s6-7.4,6.8-21.2S88.9,184.6,88.9,184.6z"/>
<path class="st11" d="M241.7,308.3c2.7-3.8-3.3-6.1-6.2-7.8c-9.3-5.5-16.3-13.4-22.4-21.9c-1,2.2-2.8,3.9-4.9,5
	c-3.7,2-9.2,0.9-9.2,0.9c0.8,2.2,1.1,4.6,0.9,6.9c-0.8,8.9,6.9,8.3,12.2,13.1c2.9,2.6,4.9,5.5,8.6,7c3.4,1.3,7.1,1.8,10.7,1.5
	C234.7,312.6,239.6,311.1,241.7,308.3z"/>
<path class="st6" d="M199.8,288.5c0.1,0.9,0.1,1.8,0,2.7c-0.6,6.7,3.7,8,8.1,10.4C209.6,295.7,205,290.5,199.8,288.5z"/>
<path class="st20" d="M199.8,288.5c0.1,0.9,0.1,1.8,0,2.7c-0.6,6.7,3.7,8,8.1,10.4C209.6,295.7,205,290.5,199.8,288.5z"/>
<path class="st6" d="M236.8,301.2c-1.7,0.4-3.4,1.1-4.9,2.1c-4.1,2.8-5.8,4.1-6.9,9.3c2.1,0.4,4.3,0.5,6.4,0.3
	c3.3-0.2,8.2-1.8,10.3-4.6C244,305,239.9,302.8,236.8,301.2z"/>
<path class="st20" d="M236.8,301.2c-1.7,0.4-3.4,1.1-4.9,2.1c-4.1,2.8-5.8,4.1-6.9,9.3c2.1,0.4,4.3,0.5,6.4,0.3
	c3.3-0.2,8.2-1.8,10.3-4.6C244,305,239.9,302.8,236.8,301.2z"/>
<path class="st21" d="M72.5,63.7c-6.5,11-3.8,25.1-3.8,25.1c-3.2,1.9-5.2,5.3-5.2,9.1c0.1,6.4,6.7,8.2,6.7,8.2
	c-2.1,2.2-2.9,5.3-2.2,8.2c1.3,4.7,8.2,11.6,18.4,8.2c5.9-1.9,10.8-6.1,13.6-11.7L72.5,63.7z"/>
<circle class="st3" cx="112.7" cy="107.5" r="7.6"/>
<path class="st22" d="M183.9,118.6c0,0-9.4,10.3-16.9,17.6c-7.9-4.9-21-15-27.9-20.2c-10.2-7.7-17.2-7.6-24.7-6.3
	c0,0,3.3,5.6,6.1,10c2.5,3.9,9.8,16.3,9.8,16.3s30.6,17.3,35.2,19.1s7.9,0.4,10.2-2.1c1-1.2,9-13.5,12-18.6c1.5-2.4,3.6-6,5.1-8.3
	L183.9,118.6z"/>
<path class="st22" d="M92.2,114.1L80.6,118c0,0,4.6,5.3,4.1,18.5c-0.2,6.1-2.2,9.7-4.4,13.3c-0.8,11.8,9.5,34.5,9.5,34.5
	s11.2,5.7,31.2-0.5c17.6-5.4,15.4-11,15.4-11l-7.2-10.2l0.6-10.8c-0.6-8-1.8-15.9-3.6-23.6c-2.8-10.7-11.9-18.5-11.9-18.5l-4.8,0.8
	L92.2,114.1z"/>
<path class="st8" d="M145.1,171.2l-10.2-5.4l-2.9-6.3l0.7-7.9c5.8-5.2,6.4-11.9,2.3-18.2c-3.4-5.2-8-9.8-12.9-14.8
	c-3-3.2-6.2-6-9.7-8.6c-2.1,0.1-4.1,0.5-6.1,1.2c0,0,3.7,4,3.9,7.7c0.2,4.7-7.3,6-12.4,5s-8-3.6-11.4-7.8l-5.9,2
	c5,4.7,7,15,5.9,23.9s-5.4,10.7-5.4,10.7l-0.2,4.9c0.7,4.8,1.7,9.6,3.1,14.3c1.8,6,4.1,13.1,4.1,13.1s0.9,10.1,2.2,13.2
	c1.2-0.7,3.2-1.6,4.1-4.8c6.2,4.2,28.4,7.1,40.1-2.4C145.9,181.6,145.1,171.2,145.1,171.2z"/>
<path class="st23" d="M122.9,163.7c-1,0-2-0.2-2.9-0.6c-1.3-0.5-2.3-2-3.2-4.4c-0.8-2.1-1.9-6.5-0.8-8.8c1.4-2.8,4.9-2.8,7.2-2.7
	h0.8v3.7h-0.9c-1.3,0-3.5-0.1-3.9,0.6c-0.5,1.4,1.1,7.4,2.3,8.2c1.1,0.3,2.3,0.3,3.4-0.1l1.2,3.5C125,163.6,124,163.7,122.9,163.7z"
	/>
<path class="st0" d="M123.1,143.5c0.3-1.1,1.4-2.2,3.4-3.1c5.4-2,11.3-2,16.7,0.1c2,0.9,3.1,2,3.4,3.1h0.1
	c0.8,7.5-0.6,16.1-3.3,20.9c0,0,0,0.1,0,0.1v0.1l0,0c-0.5,0.8-1.3,1.5-2.2,2c-4,2-8.7,2-12.7,0c-0.9-0.5-1.6-1.2-2.2-2.1l0,0v-0.1
	l-0.1-0.1C123.7,159.6,122.4,150.9,123.1,143.5L123.1,143.5z"/>
<path class="st11" d="M126.6,140.4c-4.6,2-4.6,5.2,0,7.3c5.4,2,11.3,2,16.7,0.1c4.6-2,4.6-5.2,0-7.2
	C137.9,138.4,132,138.4,126.6,140.4z"/>
<path class="st23" d="M128.1,141.6c-3.7,1.3-3.7,3.4,0,4.7c4.4,1.3,9.1,1.3,13.5,0.1c3.7-1.3,3.7-3.4,0-4.7
	C137.2,140.4,132.5,140.3,128.1,141.6z"/>
<path class="st2" d="M128.1,144.5c-0.7,0.2-1.3,0.5-1.9,0.9c0.6,0.4,1.2,0.7,1.9,1c4.4,1.3,9.1,1.3,13.5,0.1
	c0.7-0.2,1.3-0.5,1.9-0.9c-0.6-0.4-1.2-0.8-1.9-1C137.2,143.2,132.5,143.2,128.1,144.5z"/>
<path class="st22" d="M78.7,192.6c-5.9-11.9-9.6-22.3-15.2-44.8c-4.5-18.2,3.2-27,17.1-29.8c10.8,17.2,3.3,31.8,3.3,31.8l8.6,26.4
	c0,0,21.3-12.8,23.9-14.9c2.1-1.7,3.8-10,6.5-10.2c0.1,1.8,0.3,3.6,0.7,5.3c0,0,6.3,2.6,12.3,2s11.3-5.9,10.6-0.4
	c-0.3,2.2-0.8,6.3-3.7,9.3s-14.6,5.3-17.8,7.1c0,0-17.1,13.7-27.2,21.2C90.8,200.9,84.4,204.1,78.7,192.6z"/>
<path class="st21" d="M109.3,52.6c-21-7.6-35.7,3.5-39.1,16.8c-2.3,8.9,1.1,18.5,6.2,25c2.7,3.4,3.7,4.9,5.8,6.8s4.2,3.5,5.6,3.7
	l-0.3-6c3.1,1.5,6.6,2.3,10.1,2.1l5.4-0.2c12.8-0.5,18.1-12.8,23.2-27.7C131.2,58.4,119.1,56.1,109.3,52.6z"/>
<path class="st22" d="M115.2,61.5c3.1,1.7,7.3,9.2,7.7,25.4c0.4,13.7-3.9,17.3-6.1,18.4s-6.5,0.7-10.7,0.2l0.3,6.7L88.3,116
	l-0.9-19.7c0,0-2.3,2.5-6.7-0.9c-3.6-2.8-5-7.9-2.4-10.7c2.3-2.4,6.1-2.4,8.5-0.1c0.5,0.5,0.9,1,1.2,1.6c0,0,6.2-1.3,14.9-6.6
	S113.9,67.6,115.2,61.5z"/>
<circle class="st3" cx="118.4" cy="83.3" r="1.8"/>
<circle class="st3" cx="105.1" cy="84.4" r="1.8"/>
<path class="st24" d="M107.2,95.6l4,1.2c-0.3,1.1-1.4,1.8-2.5,1.5c0,0,0,0-0.1,0C107.5,98,106.9,96.8,107.2,95.6z"/>
<path class="st3" d="M120.7,78.6l-3.5-2.4c0.6-1,1.8-1.3,2.7-0.7c0.1,0,0.1,0.1,0.2,0.1C121.1,76.3,121.4,77.6,120.7,78.6z"/>
<polygon class="st24" points="112.2,80.9 112.2,92.1 117.7,90.4 "/>
<path class="st24" d="M106.1,105.5c-4.4-0.4-13.6-2.5-15.2-6c0.7,1.8,1.8,3.3,3.4,4.4c2.8,2.2,11.9,4.4,11.9,4.4L106.1,105.5z"/>
<path class="st6" d="M190.1,81.6c0,0-0.4-1.5,1.4-3.3s4.1-3.4,4.4-7.2l3,1.1l-3.3,8.5L190.1,81.6z"/>
<path class="st25" d="M190.1,81.6c0,0-0.4-1.5,1.4-3.3s4.1-3.4,4.4-7.2l3,1.1l-3.3,8.5L190.1,81.6z"/>
<path class="st6" d="M190.1,81.6c0,0-3.2-1-9.6,1.4s-11.4,5.1-24,6.9l3.6,1.3l32.3-7.3L190.1,81.6z"/>
<path class="st25" d="M190.1,81.6c0,0-3.2-1-9.6,1.4s-11.4,5.1-24,6.9l3.6,1.3l32.3-7.3L190.1,81.6z"/>
<polygon class="st6" points="156.6,89.9 151.1,129.4 154.7,130.7 160.1,91.2 "/>
<polygon class="st25" points="156.6,89.9 151.1,129.4 154.7,130.7 160.1,91.2 "/>
<polygon class="st16" points="156.6,89.9 151.1,129.4 154.7,130.7 160.1,91.2 "/>
<g class="st26">
	<path d="M196.2,73.1c-0.2,0.8-0.5,1.6-1,2.3c-0.5,0.7-1,1.4-1.6,2c-0.6,0.6-1.1,1.3-1.6,2c-0.2,0.4-0.4,0.7-0.5,1.1
		c-0.1,0.4-0.1,0.8,0,1.1l-0.4,0.1c-0.1-0.5,0-0.9,0.1-1.4c0.1-0.4,0.3-0.8,0.6-1.2c0.5-0.7,1.1-1.4,1.7-2c0.6-0.6,1.1-1.2,1.6-1.9
		C195.6,74.7,196,73.9,196.2,73.1z"/>
	<path d="M196,75.3c-0.2,0.5-0.5,1-0.8,1.4c-0.3,0.5-0.6,0.9-0.9,1.4c-0.3,0.4-0.6,0.9-0.8,1.4c-0.2,0.5-0.3,1-0.3,1.5h-0.4
		c0-0.6,0.1-1.2,0.4-1.7c0.3-0.5,0.5-1,0.9-1.4c0.3-0.4,0.7-0.9,1-1.3C195.5,76.3,195.8,75.8,196,75.3z"/>
	<path d="M169.1,88.1c1.8-0.5,3.5-1,5.2-1.7c1.7-0.6,3.4-1.4,5.1-2.1c1.7-0.7,3.4-1.3,5.2-1.6c0.9-0.2,1.8-0.3,2.7-0.3
		c0.5,0,0.9,0,1.4,0c0.5,0,1,0.2,1.4,0.4l-0.2,0.3c-0.4-0.2-0.8-0.3-1.2-0.4c-0.4-0.1-0.9-0.1-1.3-0.1c-0.9,0-1.8,0.1-2.7,0.3
		c-1.8,0.3-3.5,0.8-5.2,1.5c-1.7,0.7-3.4,1.4-5.1,2C172.7,87.1,170.9,87.6,169.1,88.1z"/>
	<path d="M177.8,86.5c1-0.3,2-0.7,2.9-1s1.9-0.7,2.9-1c1-0.3,2-0.5,3.1-0.7c1-0.2,2.1-0.2,3.1,0.1l-0.1,0.4c-1-0.2-2-0.3-3-0.1
		c-1,0.1-2,0.3-3,0.6c-1,0.3-2,0.6-3,0.9S178.8,86.2,177.8,86.5z"/>
</g>
<polygon class="st7" points="198.6,70.3 194.7,80.4 188.9,122.8 190.7,123.4 194.2,111.3 200.4,71 "/>
<polygon class="st5" points="196.5,81.1 200.4,71 194.2,111.3 190.7,123.4 "/>
<polygon class="st7" points="189.9,84.4 158,91.8 152.2,134.2 154,134.8 185.8,127.4 191.7,85.1 "/>
<polygon class="st14" points="159.8,92.5 154,134.8 185.8,127.4 191.7,85.1 "/>
<polygon class="st5" points="158,91.8 159.8,92.5 154,134.8 152.2,134.2 "/>
<path class="st6" d="M191.7,85.1l4.9-4l-5.8,42.3c-0.5,2.3-2.1,3.6-4.9,4L191.7,85.1z"/>
<path class="st15" d="M191.7,85.1l4.9-4l-5.8,42.3c-0.6,2.5-2.3,3.6-4.9,4L191.7,85.1z"/>
<path class="st4" d="M194.5,80.3c-1.1-0.4-3.1,0.1-4.4,1.2s-1.5,2.3-0.4,2.8l2,0.8l4.9-4l-1.8-0.7L194.5,80.3z"/>
<path class="st7" d="M194.7,80.4c-0.1,1.6-1.9,2.9-4.9,4l1.8,0.7c2.6-0.7,4.2-2.1,4.9-4L194.7,80.4z"/>
<path class="st22" d="M192.8,126c4.4-7.3,3.3-17.8,0.8-21.1c-1.6-2.2-10.3,0.9-10.8,9.7c-0.5,8.6-1,11.5-3.9,14.4L192.8,126z"/>
<path class="st6" d="M43.9,237.3l72.9,36.6l-1.3-22.7l9.5-5.5c-0.7-17.6-5.5-35.6-17.9-39.6c-15.6-4.9-35.8-6.5-47.9-17.5
	S47.5,147.6,49,130.3s6-44.1-7.8-52.1s-26.9,0.9-26.9,0.9C8.4,82.9,1.6,85.7,2.1,90.4c0.1,2.4,1.9,4.4,4.2,4.7L43.9,237.3z"/>
<path class="st14" d="M43.9,237.3l72.9,36.6l-1.3-22.7l9.5-5.5c-0.7-17.6-5.5-35.6-17.9-39.6c-15.6-4.9-35.8-6.5-47.9-17.5
	S47.5,147.6,49,130.3s6-44.1-7.8-52.1s-26.9,0.9-26.9,0.9C8.4,82.9,1.6,85.7,2.1,90.4c0.1,2.4,1.9,4.4,4.2,4.7L43.9,237.3z"/>
<path class="st6" d="M32.2,94.2c5.5,6.6,8.4,17.1,7.3,42.9s-0.6,46.6,9.5,59.3c12,15,53.1,27,53.1,27l16-7.3
	c-2.7-4.8-6.4-8.4-11.1-9.9c-15.6-4.9-35.8-6.5-47.9-17.5S47.5,147.6,49,130.3s6-44.1-7.8-52.1s-26.9,0.9-26.9,0.9
	C8.4,82.9,1.6,85.7,2.1,90.4c0.1,2.4,1.9,4.4,4.2,4.7C14,92.5,26.7,87.6,32.2,94.2z"/>
<path class="st15" d="M32.2,94.2c5.5,6.6,8.4,17.1,7.3,42.9s-0.6,46.6,9.5,59.3c12,15,53.1,27,53.1,27l16-7.3
	c-2.7-4.8-6.4-8.4-11.1-9.9c-15.6-4.9-35.8-6.5-47.9-17.5S47.5,147.6,49,130.3s6-44.1-7.8-52.1s-26.9,0.9-26.9,0.9
	C8.4,82.9,1.6,85.7,2.1,90.4c0.1,2.4,1.9,4.4,4.2,4.7C14,92.5,26.7,87.6,32.2,94.2z"/>
<path class="st5" d="M115.5,251.2l9.5-5.5c0-10.5-2.7-33.4-16-38.9c-10.6-4.4-15.7,2.1-15.6,6c0.1,4.5,3.4,7.4,8.7,10.5
	C109.1,227.5,115.5,234.8,115.5,251.2z"/>
<path class="st17" d="M102.3,210c1.7,0.1,3.3,0.4,4.8,1.1c8.8,3.6,12.5,18.8,13.1,31.7c0,0.1,0,0.3-0.2,0.3l-0.4,0.2
	c-1.5-11.2-6.5-19-15.2-24c-5.8-3.3-6.3-5.2-6.4-6.6c0.1-0.6,0.4-1.1,0.8-1.4C99.8,210.4,101,210,102.3,210 M102.3,208.9
	c-1.6-0.1-3.2,0.5-4.4,1.6c-0.6,0.6-1,1.4-1.1,2.3c0.1,2.2,1.3,4.3,7,7.6c8.6,5,13.4,12.9,14.8,24.2c0,0.3,0.3,0.5,0.5,0.5
	c0.1,0,0.2,0,0.2-0.1l1.3-0.7c0.5-0.3,0.8-0.8,0.8-1.4c-0.6-13.3-4.5-28.9-13.8-32.7C106,209.4,104.2,209,102.3,208.9L102.3,208.9z"
	/>
</svg>
