<?xml version="1.0" encoding="utf-8"?>
<!-- Generator: Adobe Illustrator 26.5.0, SVG Export Plug-In . SVG Version: 6.00 Build 0)  -->
<svg version="1.1" id="Capa_1" xmlns="http://www.w3.org/2000/svg" xmlns:xlink="http://www.w3.org/1999/xlink" x="0px" y="0px"
	 viewBox="0 0 531.5 419.7" style="enable-background:new 0 0 531.5 419.7;" xml:space="preserve">
<style type="text/css">
	.st0{fill:#F5F5F5;}
	.st1{fill:#E0E0E0;}
	.st2{fill:#37474F;}
	.st3{fill:#263238;}
	.st4{fill:#455A64;}
	.st5{fill:#0074A8;}
	.st6{fill:#BA68C8;}
	.st7{fill:#7FC5DF;}
	.st8{fill:#3D5561;}
	.st9{opacity:5.000000e-02;}
	.st10{fill:#EBEBEB;}
	.st11{fill:#FAFAFA;}
	.st12{fill:#294E7A;}
	.st13{opacity:0.4;fill:#FFFFFF;enable-background:new    ;}
	.st14{fill:#0F5584;}
	.st15{fill:#026596;}
	.st16{opacity:0.1;enable-background:new    ;}
	.st17{opacity:0.5;fill:#FFFFFF;enable-background:new    ;}
	.st18{opacity:7.000000e-02;}
	.st19{fill:#FFA8A7;}
	.st20{fill:#273E62;}
	.st21{fill:#2C313A;}
	.st22{fill:#EBADB3;}
	.st23{fill:#E6E6E6;}
	.st24{fill:#F28F8F;}
	.st25{opacity:0.8;fill:#FFFFFF;enable-background:new    ;}
	.st26{opacity:0.1;}
</style>
<g id="freepik--Floor--inject-47">
	<path id="freepik--floor--inject-47" class="st0" d="M266.1,145.3c145,0,262.5,60.1,262.5,134.2S411.1,413.7,266.1,413.7
		c-69.5,0-132.7-13.8-179.7-36.4c-51-24.5-82.8-59.3-82.8-97.8s31.8-73.4,82.8-97.8C133.4,159.1,196.6,145.3,266.1,145.3z"/>
</g>
<path id="freepik--Shadow--inject-47" class="st1" d="M204.1,341.5l102.4-53.6c6-3.2,6-8.2-0.1-11.3l-78.4-39.2
	c-6.1-3.1-16-3-22,0.2l-95.7,49.8c-6.1,3.2-6.2,8.5-0.2,11.9l72.4,41.8C188.4,344.5,198.1,344.7,204.1,341.5z"/>
<path id="freepik--shadow--inject-47" class="st1" d="M222,351.5l82.5-47.6c3.3-1.7,7.2-1.7,10.4,0l53.1,30.7c2.9,1.7,2.9,4.4,0,6
	l-82.5,47.7c-3.3,1.7-7.2,1.7-10.4,0L222,357.5C219.1,355.9,219.1,353.2,222,351.5z"/>
<path id="freepik--shadow--inject-47_00000091697301731110489980000001433747671575213215_" class="st1" d="M377.4,230.1
	c-26.6,15.3-26.6,40.2,0,55.6s69.6,15.3,96.2,0s26.6-40.2,0-55.6S404,214.8,377.4,230.1z"/>
<g>
	<path class="st2" d="M356.5,180.5c-8.5,3.9-8.5,10.3,0,14.3s22.3,3.9,30.8,0s8.5-10.3,0-14.3C378.9,176.5,365.1,176.6,356.5,180.5z
		"/>
	<g>
		<path id="freepik--shadow--inject-47_00000140733325271712977600000013153184994829657755_" class="st1" d="M349.7,175.3
			c-12.3,7.1-12.3,18.6,0,25.7s32.2,7.1,44.5,0s12.3-18.6,0-25.7S362,168.2,349.7,175.3z"/>
		<path class="st3" d="M393.8,187.6L393.8,187.6c0-2.6-2.1-5.2-6.4-7.1c-8.5-3.9-22.3-3.9-30.8,0c-4.3,2-6.4,4.6-6.4,7.1l0,0v2.4
			l0,0c0,2.6,2.2,5.1,6.4,7c8.5,3.9,22.3,3.9,30.8,0c4.2-1.9,6.3-4.5,6.4-7l0,0L393.8,187.6z"/>
		<path class="st2" d="M356.5,180.5c-8.5,3.9-8.5,10.3,0,14.3s22.3,3.9,30.8,0s8.5-10.3,0-14.3C378.9,176.5,365.1,176.6,356.5,180.5
			z"/>
		<path class="st4" d="M374.4,57.8h-4.7v128.7l0,0c0,0.4,0.2,0.7,0.7,0.9c1,0.4,2.3,0.4,3.3,0c0.4-0.1,0.7-0.5,0.7-0.9l0,0
			L374.4,57.8z"/>
		<path class="st5" d="M402.6,58.2L402.6,58.2l-7.5-35.7h-46.2l-7.5,35.7l0,0c-2,5.7,0.8,11.8,8.5,16.2c12.2,7,32,7,44.3,0
			C401.8,70,404.7,63.9,402.6,58.2z"/>
		<path class="st6" d="M355.6,33.2c9.1,5.2,23.8,5.2,32.8,0s9.1-13.6,0-18.8s-23.8-5.2-32.8,0S346.5,28.1,355.6,33.2z"/>
		<path class="st7" d="M355.6,33.2c9.1,5.2,23.8,5.2,32.8,0s9.1-13.6,0-18.8s-23.8-5.2-32.8,0S346.5,28.1,355.6,33.2z"/>
		<path class="st5" d="M372,33.9c-5,0.1-9.9-1-14.2-3.3c-3.3-1.9-5.1-4.3-5.1-6.7s1.8-4.8,5.1-6.7c9-4.4,19.5-4.4,28.5,0
			c3.3,1.9,5.1,4.3,5.1,6.7s-1.8,4.8-5.1,6.7C381.8,32.8,376.9,34,372,33.9z"/>
	</g>
</g>
<path class="st4" d="M365.3,240.6c0.1-0.9,0.6-1.6,1.4-1.9c2.1-1.1,4.6-1.1,6.7,0c0.8,0.3,1.3,1.1,1.4,1.9l-1.4,27.4l0,0
	c-0.1,0.6-0.5,1.1-1,1.3c-1.5,0.8-3.3,0.8-4.7,0c-0.5-0.2-0.9-0.7-1-1.3l0,0L365.3,240.6z"/>
<path class="st3" d="M373.4,238.7c-2.1-1.1-4.6-1.1-6.7,0c-0.8,0.3-1.3,1.1-1.4,1.9l0.6,11.7c2.4,2.5,5.1,4.7,8,6.6l0.9-18.4
	C374.8,239.7,374.2,239,373.4,238.7z"/>
<path class="st4" d="M485.1,240.6c-0.1-0.9-0.6-1.6-1.4-1.9c-2.1-1.1-4.6-1.1-6.7,0c-0.8,0.3-1.3,1.1-1.4,1.9L477,268l0,0
	c0.1,0.6,0.5,1.1,1,1.3c1.5,0.8,3.3,0.8,4.7,0c0.5-0.2,0.9-0.7,1-1.3l0,0L485.1,240.6z"/>
<path class="st3" d="M483.8,238.7c-2.1-1.1-4.6-1.1-6.7,0c-0.8,0.3-1.3,1.1-1.4,1.9l1,18.8c2.8-1.8,5.5-4,7.9-6.3l0.6-12.4
	C485.1,239.8,484.6,239,483.8,238.7z"/>
<path class="st4" d="M420.2,260.9c-0.1-0.9-0.6-1.6-1.4-1.9c-2.1-1.1-4.6-1.1-6.7,0c-0.8,0.3-1.3,1.1-1.4,1.9l1.4,27.4l0,0
	c0.1,0.6,0.5,1.1,1,1.3c1.5,0.8,3.3,0.8,4.7,0c0.5-0.2,0.9-0.7,1-1.3l0,0L420.2,260.9z"/>
<path class="st3" d="M419.6,271.9l0.6-11c-0.1-0.9-0.6-1.6-1.4-1.9c-2.1-1.1-4.6-1.1-6.7,0c-0.8,0.3-1.3,1.1-1.4,1.9l0.6,11
	C414,272,416.8,272,419.6,271.9z"/>
<path class="st5" d="M493.6,223.5L493.6,223.5c-0.1-10-6.6-20.1-19.9-27.8c-26.6-15.3-69.6-15.3-96.2,0
	c-13.3,7.7-19.9,17.7-19.9,27.8h-0.1v5.4l0,0c0.1,9.9,6.8,19.8,19.9,27.4c26.6,15.3,69.6,15.3,96.2,0c13.1-7.6,19.8-17.5,19.9-27.4
	l0,0V223.5z"/>
<path class="st6" d="M377.4,195.7c-26.6,15.3-26.6,40.2,0,55.6s69.6,15.3,96.2,0s26.6-40.2,0-55.6S404,180.3,377.4,195.7z"/>
<g>
	<path class="st7" d="M377.4,195.7c-26.6,15.3-26.6,40.2,0,55.6s69.6,15.3,96.2,0s26.6-40.2,0-55.6S404,180.3,377.4,195.7z"/>
</g>
<polygon class="st4" points="432.6,235.3 407.6,249.6 372.9,229.6 397.9,215.2 "/>
<path class="st0" d="M407.4,248.7l24.2-14c-0.5-1.7-0.5-3.6,0.1-5.3l-24.1,13.9C407.4,245.1,407.3,246.9,407.4,248.7z"/>
<path class="st3" d="M408.7,241.7c-1.2,0.7-1.9,2-2,3.4v3.9c0,1.2,0.9,1.7,2,1.1l24-13.9v-1l-23.7,13.6c-0.6,0.4-1.2,0.1-1.2-0.7
	v-3.6c0.1-0.8,0.5-1.6,1.2-2l23.7-13.6v-1.1L408.7,241.7z"/>
<path class="st8" d="M432.6,227.8l-34.7-20l-24,13.9c-1.2,0.7-1.9,2-2,3.4v3.9c-0.1,0.5,0.2,1,0.6,1.3l34.7,20
	c-0.4-0.3-0.6-0.8-0.6-1.3V245c0.1-1.4,0.8-2.6,2-3.4L432.6,227.8z"/>
<path class="st2" d="M407.3,243.1c-0.3,0.6-0.5,1.2-0.6,1.9v3.9c0,0.5,0.2,1,0.6,1.3l-34.7-20c-0.4-0.3-0.6-0.8-0.6-1.3v-3.9
	c0-0.7,0.2-1.3,0.6-1.9L407.3,243.1z"/>
<g class="st9">
	<path d="M456.1,204c6,3.4,6,9,0,12.5s-15.6,3.5-21.6,0s-6-9,0-12.5S450.1,200.6,456.1,204z"/>
</g>
<path class="st10" d="M435.8,211c-5.2-5.3-8.2-18.5-3.2-22.7h25.8c5.1,4.2,2,17.4-3.2,22.7l-0.1,0.1l-0.2,0.2
	c-0.1,0.1-0.3,0.3-0.5,0.4l-0.1,0.1l-0.4,0.3c-0.2,0.2-0.4,0.3-0.7,0.4c-4.9,2.5-10.6,2.5-15.5,0l0,0c-0.2-0.1-0.5-0.3-0.7-0.4
	l-0.4-0.3l-0.1-0.1c-0.2-0.1-0.3-0.3-0.5-0.4l-0.2-0.2L435.8,211z"/>
<path class="st11" d="M456.2,186.6c5.9,3.4,5.9,8.9,0,12.3s-15.4,3.4-21.3,0s-5.9-8.9,0-12.3S450.3,183.2,456.2,186.6z"/>
<path class="st10" d="M452,189c3.6,2.1,3.6,5.4,0,7.5c-4.1,2.1-8.9,2.1-13,0c-3.6-2.1-3.6-5.4,0-7.5
	C443.1,186.9,447.9,186.9,452,189z"/>
<path class="st1" d="M439.1,192.6c4.1-2.1,8.9-2.1,13,0c0.9,0.5,1.6,1.2,2.1,2c-0.5,0.8-1.3,1.5-2.1,2c-4.1,2.1-8.9,2.1-13,0
	c-0.9-0.5-1.6-1.2-2.1-2C437.4,193.7,438.2,193,439.1,192.6z"/>
<path class="st6" d="M451.2,194.5c1.8-1.9,3.4-4,4.7-6.2c2.2-3.8,2.6-8.9,1.5-9.6s-5.7,4.5-5.7,4.5c0.4-2.2,0.6-4.3,0.5-6.5
	c-0.2-3.4-1-6.5-2-7.1s-3.2,3.7-4.1,6.8s-1.5,5.7-1.5,5.7c-0.4-2.4-0.9-4.8-1.7-7.2c-1.1-3.2-2.2-4-3-3.6s-1.3,1.8-1.6,6.1
	c-0.1,2.1,0,4.1,0.2,6.2c0,0-1.6-1.8-3.4-3.5c-2-1.9-2.8-2.1-3.4-1.8s-0.7,3.3,2.3,8.8c1.5,2.8,3.4,5.3,5.7,7.5
	C439.8,194.5,444,197.2,451.2,194.5z"/>
<g>
	<path class="st12" d="M451.2,194.5c1.8-1.9,3.4-4,4.7-6.2c2.2-3.8,2.6-8.9,1.5-9.6s-5.7,4.5-5.7,4.5c0.4-2.2,0.6-4.3,0.5-6.5
		c-0.2-3.4-1-6.5-2-7.1s-3.2,3.7-4.1,6.8s-1.5,5.7-1.5,5.7c-0.4-2.4-0.9-4.8-1.7-7.2c-1.1-3.2-2.2-4-3-3.6s-1.3,1.8-1.6,6.1
		c-0.1,2.1,0,4.1,0.2,6.2c0,0-1.6-1.8-3.4-3.5c-2-1.9-2.8-2.1-3.4-1.8s-0.7,3.3,2.3,8.8c1.5,2.8,3.4,5.3,5.7,7.5
		C439.8,194.5,444,197.2,451.2,194.5z"/>
</g>
<path class="st5" d="M119.4,226.1l79.7-41.6c0,0,5.6-27.3-13.3-57c0,0,5.6-53-3.8-70.6c-6.9-13.4-15.2-11.6-15.2-11.6L76.4,86.1
	L119.4,226.1z"/>
<path class="st13" d="M166.9,45.3L76.4,86.1l3,9.7l99-44.7C172.5,44,166.9,45.3,166.9,45.3z"/>
<path class="st13" d="M167.2,130c0.2,1.4,1.4,1.9,2.7,1.2c1.3-0.8,2.1-2.3,2-3.9c-0.2-1.4-1.4-1.9-2.7-1.2
	C167.9,126.9,167.1,128.4,167.2,130z"/>
<path class="st13" d="M153.4,138c0.2,1.4,1.4,1.9,2.7,1.2c1.3-0.8,2.1-2.3,2-3.9c-0.2-1.4-1.4-1.9-2.7-1.2
	C154.1,134.9,153.3,136.4,153.4,138z"/>
<path class="st13" d="M139.6,145.9c0.2,1.4,1.4,1.9,2.7,1.2c1.3-0.8,2.1-2.3,2-3.9c-0.2-1.4-1.4-1.9-2.7-1.2
	C140.3,142.9,139.5,144.4,139.6,145.9z"/>
<path class="st13" d="M125.8,153.9c0.2,1.4,1.4,1.9,2.7,1.2c1.3-0.8,2.1-2.3,2-3.9c-0.2-1.4-1.4-1.9-2.7-1.2
	C126.5,150.8,125.7,152.3,125.8,153.9z"/>
<path class="st4" d="M200.1,305.5c-0.1-0.9-0.6-1.6-1.4-1.9c-2.1-1.1-4.6-1.1-6.7,0c-0.8,0.4-1.3,1.1-1.4,1.9l1.4,27.4l0,0
	c0.1,0.6,0.5,1.1,1,1.3c1.5,0.8,3.2,0.8,4.7,0c0.5-0.2,0.9-0.7,1-1.3l0,0L200.1,305.5z"/>
<path class="st2" d="M192.1,303.6c-0.8,0.4-1.3,1.1-1.4,1.9l0.5,10c2.7,1.1,5.7,1.2,8.5,0.2l0.5-10.2c-0.1-0.8-0.6-1.6-1.4-1.9
	C196.7,302.5,194.2,302.5,192.1,303.6z"/>
<path class="st4" d="M280.8,258.9c-0.1-0.9-0.6-1.6-1.4-1.9c-2.1-1.1-4.6-1.1-6.7,0c-0.8,0.3-1.3,1.1-1.4,1.9l1.4,27.4l0,0
	c0.1,0.6,0.5,1.1,1,1.3c1.5,0.8,3.3,0.8,4.7,0c0.5-0.2,0.9-0.7,1-1.3l0,0L280.8,258.9z"/>
<path class="st2" d="M272.7,257c-0.8,0.3-1.3,1.1-1.4,1.9l0.8,15.2l8.2-5l0.5-10.2c-0.1-0.9-0.6-1.6-1.4-1.9
	C277.3,255.9,274.8,255.9,272.7,257z"/>
<path class="st4" d="M124.2,261.7c-0.1-0.9-0.6-1.6-1.4-1.9c-2.1-1.1-4.6-1.1-6.7,0c-0.8,0.3-1.3,1.1-1.4,1.9l1.4,27.4l0,0
	c0.1,0.6,0.5,1.1,1,1.3c1.5,0.8,3.3,0.8,4.7,0c0.5-0.2,0.9-0.7,1-1.3l0,0L124.2,261.7z"/>
<path class="st2" d="M116.1,259.8c-0.8,0.3-1.3,1.1-1.4,1.9l0.5,10l8.2,4.6l0.7-14.6c-0.1-0.9-0.6-1.6-1.4-1.9
	C120.7,258.7,118.2,258.7,116.1,259.8z"/>
<path class="st6" d="M67.2,102.8l41.2,156c1.1,3.5,3.5,6.6,6.6,8.6l70.9,40.9l4.3,2.5l0.2,0.1c3,1.5,6.5,1.7,9.7,0.5
	c0.2-0.1,0.4-0.2,0.6-0.3l79.8-46.1c3-1.8,5-5,5.2-8.5v-27.6l-99.7,52l-80.7-46.6L67.2,102.8"/>
<path class="st14" d="M67.2,102.8l41.2,156c1.1,3.5,3.5,6.6,6.6,8.6l70.9,40.9l4.3,2.5l0.2,0.1c3,1.5,6.5,1.7,9.7,0.5
	c0.2-0.1,0.4-0.2,0.6-0.3l79.8-46.1c3-1.8,5-5,5.2-8.5v-27.6l-99.7,52l-80.7-46.6L67.2,102.8"/>
<path class="st6" d="M285.5,231.6v24.9c-0.2,3.5-2.1,6.7-5.2,8.5l-79.8,46.2c-0.2,0.1-0.4,0.2-0.6,0.3c-3,1.2-6.4,1.1-9.4-0.3
	c-0.1,0-0.2-0.1-0.3-0.2l-0.2-0.1l-2.5-30.4L285.5,231.6z"/>
<path class="st15" d="M285.5,231.6v24.9c-0.2,3.5-2.1,6.7-5.2,8.5l-79.8,46.2c-0.2,0.1-0.4,0.2-0.6,0.3c-3,1.2-6.4,1.1-9.4-0.3
	c-0.1,0-0.2-0.1-0.3-0.2l-0.2-0.1l-2.5-30.4L285.5,231.6z"/>
<path class="st5" d="M290.3,218.4v4.4c-0.3,5.3-3.2,10.1-7.8,12.8l-88.9,46.6c-4.9,2.2-10.5,2.1-15.4-0.3l-51.2-29.6
	c-4.5-2.9-7.3-7.8-7.6-13.1v-4.4c0.3-5.3,3.2-10.1,7.8-12.8l84.1-43.9c4.9-2.2,10.6-2.3,15.6-0.1l55.5,27.8
	C287,208.4,290,213.1,290.3,218.4z"/>
<path class="st16" d="M187.9,283.8c-3.3,0.3-6.7-0.3-9.6-1.8l-51.2-29.6c-4.5-2.9-7.3-7.8-7.6-13.1v-4.4c0-4.4,2.9-9.6,6.7-12.1
	c-3.2,2.3-2.9,5.6,0.9,7.8l51.2,29.7c2.4,1.3,5.1,1.9,7.8,1.9L187.9,283.8z"/>
<path class="st6" d="M193.6,260.4l88.9-46.6c4.3-2.2,4.2-5.8-0.1-8l-55.5-27.8c-5-2.2-10.7-2.1-15.6,0.1L127.2,222
	c-4.3,2.2-4.4,6-0.2,8.4l51.3,29.6C183.1,262.5,188.7,262.6,193.6,260.4z"/>
<path class="st7" d="M193.6,260.4l88.9-46.6c4.3-2.2,4.2-5.8-0.1-8l-55.5-27.8c-5-2.2-10.7-2.1-15.6,0.1L127.2,222
	c-4.3,2.2-4.4,6-0.2,8.4l51.3,29.6C183.1,262.5,188.7,262.6,193.6,260.4z"/>
<path class="st6" d="M166.9,45.3c0,0,13.1-8.9,26.9-0.9s9.3,34.8,7.8,52.1s-2,47.4,10.1,58.4s51.8-3.6,69.1-3.6l-15.2,56.2
	c-16.8-9.2-43.7-18.6-66.4-23c0,0,0.7-35.1-15.3-55.1c0,0,5.9-14,2-42.1C182.3,61.2,177.4,51.4,166.9,45.3z"/>
<path class="st15" d="M166.9,45.3c0,0,13.1-8.9,26.9-0.9s9.3,34.8,7.8,52.1s-2,47.4,10.1,58.4s51.8-3.6,69.1-3.6l-15.2,56.2
	c-16.8-9.2-43.7-18.6-66.4-23c0,0,0.7-35.1-15.3-55.1c0,0,5.9-14,2-42.1C182.3,61.2,177.4,51.4,166.9,45.3z"/>
<path class="st5" d="M265.5,207.5c-0.8-5-4-34,1.4-46.6c4.7-11,17-11.6,20.9-6.9c3.7,4.4,0.4,10.4-5.8,18.4
	c-5.2,6.8-7.1,13.1-7.1,29.6L265.5,207.5z"/>
<path class="st17" d="M280.8,155.9c1.2-0.1,2.5,0.3,3.5,1.1c1.4,1.7-0.4,5.6-5.9,12.6c-5.7,7.5-7.8,14.8-8,29c0,0.4-0.2,0.9-0.6,1.1
	l-0.4,0.2c-1.2-13-1.3-29.5,1.9-37.1C273.4,157.7,277.6,155.9,280.8,155.9 M280.8,154.8c-3.6,0-8.2,2-10.6,7.6
	c-3.6,8.4-3,26.5-2,37.7c0.1,0.6,0.6,1.1,1.2,1.1c0.2,0,0.4-0.1,0.6-0.2l0.4-0.2c0.7-0.4,1.2-1.2,1.2-2.1
	c0.3-14.1,2.2-21.1,7.8-28.3c6-7.9,7.7-11.8,5.8-14.1C284,155.2,282.4,154.7,280.8,154.8L280.8,154.8z"/>
<path class="st4" d="M285.5,354.8c-0.1-0.9-0.6-1.6-1.4-1.9c-2.1-1.1-4.6-1.1-6.7,0c-0.8,0.3-1.3,1.1-1.4,1.9l1.4,27.4l0,0
	c0.1,0.6,0.5,1.1,1,1.3c1.5,0.8,3.3,0.8,4.8,0c0.5-0.2,0.9-0.7,1-1.3l0,0L285.5,354.8z"/>
<path class="st2" d="M277.4,352.9c-0.8,0.3-1.3,1.1-1.4,1.9l1,19.2c2.4,1,5.1,1,7.6,0l1-19.2c-0.1-0.9-0.6-1.6-1.4-1.9
	C282.1,351.8,279.5,351.8,277.4,352.9z"/>
<path class="st4" d="M366.2,308.3c-0.1-0.9-0.6-1.6-1.4-1.9c-2.1-1.1-4.6-1.1-6.7,0c-0.8,0.3-1.3,1.1-1.4,1.9l1.4,27.4l0,0
	c0.1,0.6,0.5,1.1,1,1.3c1.5,0.8,3.3,0.8,4.8,0c0.5-0.2,0.9-0.7,1-1.3l0,0L366.2,308.3z"/>
<path class="st2" d="M358.1,306.3c-0.8,0.3-1.3,1.1-1.4,1.9l1.2,24.1l7.3-4.2l1-19.9c-0.1-0.9-0.6-1.6-1.4-1.9
	C362.6,305.3,360.2,305.3,358.1,306.3z"/>
<path class="st4" d="M233.3,324.7c-0.1-0.8-0.6-1.6-1.4-1.9c-2.1-1.1-4.6-1.1-6.7,0c-0.8,0.4-1.3,1.1-1.4,1.9l1.4,27.4l0,0
	c0.1,0.6,0.5,1.1,1,1.3c1.5,0.8,3.2,0.8,4.7,0c0.5-0.2,0.9-0.7,1-1.3l0,0L233.3,324.7z"/>
<path class="st2" d="M225.2,322.8c-0.8,0.4-1.3,1.1-1.4,1.9l1,20l7.3,4l1.2-24c-0.1-0.8-0.6-1.6-1.4-1.9
	C229.8,321.7,227.3,321.7,225.2,322.8z"/>
<path class="st6" d="M219.1,316.9v15.7c0.2,3.6,2.1,6.8,5.1,8.8l51.6,29.8c3.2,1.6,6.9,1.6,10.1,0l80-46.2c3-1.9,4.9-5.2,5.1-8.8
	v-15.7c-0.2-3.6-2.1-6.8-5.1-8.8l-51.6-29.8c-3.2-1.6-6.9-1.6-10.1,0l-80,46.2C221.2,310,219.3,313.3,219.1,316.9z"/>
<path class="st14" d="M280.8,344.9v27.4c-1.8,0-3.5-0.4-5.1-1.2l-51.6-29.8c-3-1.9-4.9-5.2-5.1-8.8v-15.7c0.2-3.3,1.9-6.4,4.6-8.4
	c-2.3,1.6-2.1,4,0.5,5.5l51.6,29.8C277.3,344.5,279,345,280.8,344.9z"/>
<path class="st15" d="M370.9,300.4v15.7c-0.2,3.6-2.1,6.8-5.1,8.8l-80,46.2c-1.6,0.8-3.3,1.2-5.1,1.2v-27.4c1.8,0,3.5-0.4,5.1-1.2
	l80-46.2c2.6-1.5,2.8-3.9,0.5-5.5C369.1,294,370.8,297.1,370.9,300.4z"/>
<path class="st5" d="M224.2,308.1l80-46.2c3.2-1.6,6.9-1.6,10.1,0l51.6,29.8c2.8,1.6,2.8,4.2,0,5.8l-80,46.2
	c-3.2,1.6-6.9,1.6-10.1,0l-51.6-29.8C221.4,312.3,221.4,309.7,224.2,308.1z"/>
<g id="freepik--shadow--inject-47_00000168804790492447368070000008196770181924026776_" class="st18">
	<path d="M271.3,230.9c-3.6-6.6-7.4-13.3-13.1-18.2c-5.1-4.4-11.4-7.1-17.7-9.6c-19.4-7.8-40.1-15.4-53.3-31.6
		c-8.2-10.1-12.7-22.6-15.5-35.3c-1.4-6.4-2.4-12.8-4.9-18.9s-6.7-11.6-12.7-14.2c-2.8-1.2-5.6-1.4-8.5-1.9
		c-1.2-0.2-2.4-0.8-3.7-0.9c-1.5-0.2-3-0.2-4.4,0.1c-2.7,0.5-5.3,1.3-7.8,2.4c-1.4,0.5-2.7,1.2-3.9,2.1c-3.2,2.6-3.6,7.3-1,10.4
		c0.4,0.5,0.9,0.9,1.4,1.3c-3.7,4.2-3.2,10.6,1,14.3c0.5,0.5,1.1,0.9,1.7,1.2c0.4,0.2,0.8,0.5,1,0.9c0.2,0.6,0,1.3-0.4,1.8
		c-1.9,3.2-4,6.2-5.9,9.4c-1.8,2.9-4.1,6.7-4.1,10.2c-0.6,4.5,0.7,8.9,1.9,13.3l7.6,26.8c2.4,8.3,5.3,17.4,12.6,21.9
		c6.5,4,15.1,3.5,21.2,8.1c5.5,4.1,7.6,11.5,12.5,16.2s11.6,6.2,17.9,7.4c7.6,1.4,15.2,2.1,22.9,2.9c0.2,0,0.5,0.1,0.7,0.2
		c0.2,0.2,0.3,0.5,0.3,0.8c0.5,3.5,1.5,7,2.9,10.3c1.4,2.6,3,5,4.9,7.2c4.9,6,10.8,11.1,17.4,15.2c0.6,0.4,1.3,0.8,1.9,1.2
		l27.3-15.8l8.6-5c2.9-1.8,4.8-4.9,5-8.3L271.3,230.9z"/>
</g>
<g id="freepik--shadow--inject-47_00000149370625439597523890000017715317239415163804_">
	<g class="st18">
		<path d="M330.1,299.1c-1.7-0.3-3.4-0.6-5.1-1c-2.4-0.6-4.8-1.6-6.9-2.8c-10.9-5.8-18.8-15.7-28.3-23.4c-0.4-0.3-0.8-0.6-1.3-0.9
			l-11.8,6.8l4.4,4.2c0.8,0.7,1.5,1.5,2.1,2.3c0.9,1.4,0.7,2.6,0.9,4.1c0.3,1.9,1.2,3.6,2.7,4.9c2.2,2,5.4,3.3,7.9,4.6
			c2.4,1.4,4.7,3.1,6.7,5c5.9,5.2,13.7,7.6,21.5,6.4c2.4-0.3,4.7-1.2,6.8-2.5c1.6-1,4.8-3.6,3.8-5.8
			C333,299.8,331.4,299.4,330.1,299.1z"/>
	</g>
	<g class="st18">
		<path d="M296.1,324.4c2.4-0.3,4.7-1.2,6.8-2.5c1.6-1,4.8-3.6,3.8-5.8c-0.6-1.3-2.1-1.7-3.5-1.9c-1.7-0.3-3.4-0.6-5.1-1
			c-2.4-0.6-4.7-1.6-6.8-2.8c-10.9-5.8-18.8-15.7-28.3-23.4c-0.3-0.2-0.6-0.5-1-0.7l-11.7,6.8l4.1,3.9c0.8,0.7,1.5,1.5,2.1,2.3
			c0.9,1.4,0.7,2.6,0.9,4.1c0.3,1.9,1.2,3.6,2.7,4.9c2.2,2,5.4,3.3,7.9,4.6c2.4,1.4,4.7,3.1,6.7,5
			C280.4,323.2,288.3,325.6,296.1,324.4z"/>
	</g>
</g>
<path class="st19" d="M324.1,293.5c-5.7-3.3-10.8-7.6-15.1-12.6c-4.8-5.6-8.9-11.8-12.1-18.4c-7.4-14.9-22.3-45.3-25.5-50.2
	c-4.5-7-30-17.3-42.7-23.4c-9.6-4.6-19.5-8.6-29.6-12l-25.4-1.4c-0.6,8.7-1.2,15.4,2.8,23.7s12.3,13.5,25,18.9
	c10.5,4.5,40,9,43.1,9.9s6.1,0.4,7.7,5.9s1.4,8.1,7.8,14.7c8.2,8.5,22.3,19,27.6,28.4c0.8,2.2,1.2,4.5,1.1,6.8
	c-0.8,8.9,6.6,8.2,12,13c2.9,2.6,4.9,5.5,8.6,7c3.4,1.3,7.1,1.8,10.7,1.5c3.3-0.2,8.3-1.9,10-4.3
	C332.6,297.3,327.4,295.5,324.1,293.5z"/>
<path class="st6" d="M200.6,177c13.1,4.7,25.9,10.1,38.3,16.2c22.8,11,28.9,13.9,32.3,18.1s19.6,39.4,19.6,39.4S288,261,275.4,263
	c0,0-14.3-11.8-17.4-15c-3.1-3.2-5-8.1-6.5-12.9s-2.7-5.3-19.5-8.2s-41-8-52-20.6s-10.6-24-10.6-24L200.6,177z"/>
<path class="st20" d="M200.6,177c13.1,4.7,25.9,10.1,38.3,16.2c22.8,11,28.9,13.9,32.3,18.1s19.6,39.4,19.6,39.4S288,261,275.4,263
	c0,0-14.3-11.8-17.4-15c-3.1-3.2-5-8.1-6.5-12.9s-2.7-5.3-19.5-8.2s-41-8-52-20.6s-10.6-24-10.6-24L200.6,177z"/>
<path class="st16" d="M253.3,232.7c-1.1-7.1-10.2-11.1-18-14.8c-6.6-3.1-35.2-16.4-35.2-16.4c2.3-5.8,2-19.3,2-19.3l-28.5,9.2
	c0.5,2.7,1.4,5.4,2.6,7.9c3.9,8.3,12.4,13.5,25.1,18.9c5.8,2.5,17.2,5.6,26.8,8c1.3,0.2,2.6,0.5,3.9,0.7c16.8,2.9,18.1,3.4,19.5,8.2
	s3.3,9.8,6.5,12.9c0.4,0.4,1.1,1.1,1.9,1.8l0,0C254.2,242.7,253.9,236.7,253.3,232.7z"/>
<path class="st11" d="M330.2,301c2.7-3.8-3.3-6.1-6.2-7.8c-9.3-5.5-16.3-13.4-22.3-21.9c-1.1,2.2-2.8,3.9-4.9,5
	c-3.7,2-9.2,0.9-9.2,0.9c0.8,2.2,1.1,4.6,0.9,6.9c-0.8,8.9,6.9,8.3,12.2,13.1c2.9,2.6,4.9,5.5,8.6,7c3.4,1.3,7.1,1.8,10.7,1.5
	C323.2,305.4,328.1,303.8,330.2,301z"/>
<path class="st6" d="M288.4,281.3c0.1,0.9,0.1,1.8,0,2.7c-0.6,6.7,3.7,8,8.1,10.4C298.1,288.5,293.6,283.3,288.4,281.3z"/>
<path class="st20" d="M288.4,281.3c0.1,0.9,0.1,1.8,0,2.7c-0.6,6.7,3.7,8,8.1,10.4C298.1,288.5,293.6,283.3,288.4,281.3z"/>
<path class="st6" d="M325.4,293.9c-1.7,0.4-3.4,1.1-4.9,2.1c-4.1,2.8-5.8,4.1-6.9,9.3c2.1,0.4,4.3,0.5,6.4,0.3
	c3.3-0.2,8.2-1.8,10.2-4.6C332.6,297.8,328.4,295.6,325.4,293.9z"/>
<path class="st20" d="M325.4,293.9c-1.7,0.4-3.4,1.1-4.9,2.1c-4.1,2.8-5.8,4.1-6.9,9.3c2.1,0.4,4.3,0.5,6.4,0.3
	c3.3-0.2,8.2-1.8,10.2-4.6C332.6,297.8,328.4,295.6,325.4,293.9z"/>
<path class="st19" d="M296.4,308.1c-5.6-3.4-10.7-7.6-15.1-12.5c-4.8-5.4-8.9-11.4-12.2-17.8c-7.5-14.6-22.6-43.8-25.8-48.7
	c-6-9.3-47.9-25.8-47.9-25.8c2.1-4.5,6.7-15.6,6.6-20.2l-52.2,9.1c1.5,11.3,3.9,19.5,7.9,25.6c5.5,8.2,9.4,13.5,22.4,17.7
	c10.9,3.5,33.4,6.8,36.6,7.7s6.1,0.4,7.7,5.9s1.4,8.1,7.8,14.7c8.2,8.5,22.3,18.8,27.6,28.2c0.8,2.2,1.1,4.6,0.9,6.9
	c-0.8,8.9,6.9,8.3,12.2,13.1c2.9,2.6,4.9,5.5,8.6,7c3.4,1.3,7.1,1.8,10.7,1.5c3.3-0.2,8.2-1.8,10.2-4.6
	C305.3,312.2,299.3,309.9,296.4,308.1z"/>
<path class="st6" d="M149.9,192.3c0,0,0.4,29.7,18.2,40s50.1,10.3,52.9,15.8s2.8,9.4,8.5,15.5c5.4,5.8,19.5,15.5,19.5,15.5
	s12.1-2.2,16-9.1c0,0-15.7-34-20.6-41.8s-49-24.8-49-24.8s6-7.4,6.8-21.2S149.9,192.3,149.9,192.3z"/>
<path class="st12" d="M149.9,192.3c0,0,0.4,29.7,18.2,40s50.1,10.3,52.9,15.8s2.8,9.4,8.5,15.5c5.4,5.8,19.5,15.5,19.5,15.5
	s12.1-2.2,16-9.1c0,0-15.7-34-20.6-41.8s-49-24.8-49-24.8s6-7.4,6.8-21.2S149.9,192.3,149.9,192.3z"/>
<path class="st11" d="M302.6,316c2.7-3.8-3.3-6.1-6.2-7.8c-9.3-5.5-16.3-13.4-22.4-21.9c-1,2.2-2.8,3.9-4.9,5
	c-3.7,2-9.2,0.9-9.2,0.9c0.8,2.2,1.1,4.6,0.9,6.9c-0.8,8.9,6.9,8.3,12.2,13.1c2.9,2.6,4.9,5.5,8.6,7c3.4,1.3,7.1,1.8,10.7,1.5
	C295.6,320.4,300.5,318.8,302.6,316z"/>
<path class="st6" d="M260.7,296.3c0.1,0.9,0.1,1.8,0,2.7c-0.6,6.7,3.7,8,8.1,10.4C270.5,303.4,265.9,298.2,260.7,296.3z"/>
<path class="st20" d="M260.7,296.3c0.1,0.9,0.1,1.8,0,2.7c-0.6,6.7,3.7,8,8.1,10.4C270.5,303.4,265.9,298.2,260.7,296.3z"/>
<path class="st6" d="M297.7,308.9c-1.7,0.4-3.4,1.1-4.9,2.1c-4.1,2.8-5.8,4.1-6.9,9.3c2.1,0.4,4.3,0.5,6.4,0.3
	c3.3-0.2,8.2-1.8,10.3-4.6C304.9,312.8,300.8,310.5,297.7,308.9z"/>
<path class="st20" d="M297.7,308.9c-1.7,0.4-3.4,1.1-4.9,2.1c-4.1,2.8-5.8,4.1-6.9,9.3c2.1,0.4,4.3,0.5,6.4,0.3
	c3.3-0.2,8.2-1.8,10.3-4.6C304.9,312.8,300.8,310.5,297.7,308.9z"/>
<path class="st21" d="M133.4,71.4c-6.5,11-3.8,25.1-3.8,25.1c-3.2,1.9-5.2,5.3-5.2,9.1c0.1,6.4,6.7,8.2,6.7,8.2
	c-2.1,2.2-2.9,5.3-2.2,8.2c1.3,4.7,8.2,11.6,18.4,8.2c5.9-1.9,10.8-6.1,13.6-11.7L133.4,71.4z"/>
<circle class="st3" cx="173.6" cy="115.2" r="7.6"/>
<path class="st22" d="M244.8,126.3c0,0-9.4,10.3-16.9,17.6c-7.9-4.9-21-15-27.9-20.3c-10.2-7.7-17.2-7.6-24.7-6.3
	c0,0,3.3,5.6,6.1,10c2.5,3.9,9.8,16.3,9.8,16.3s30.6,17.3,35.2,19.1s7.9,0.4,10.2-2.1c1-1.2,9-13.5,12-18.6c1.5-2.4,3.6-6,5.1-8.4
	L244.8,126.3z"/>
<path class="st22" d="M153.1,121.8l-11.6,3.9c0,0,4.6,5.3,4.1,18.5c-0.2,6.1-2.2,9.7-4.4,13.3c-0.8,11.8,9.5,34.5,9.5,34.5
	s11.2,5.7,31.2-0.5c17.6-5.4,15.4-11,15.4-11l-7.2-10.2l0.6-10.8c-0.6-8-1.8-15.9-3.6-23.6c-2.8-10.7-11.9-18.5-11.9-18.5l-4.8,0.8
	L153.1,121.8z"/>
<path class="st8" d="M206.1,179l-10.2-5.4l-2.9-6.3l0.7-7.9c5.8-5.2,6.4-11.9,2.3-18.2c-3.4-5.2-8-9.8-12.9-14.8
	c-3-3.2-6.2-6-9.7-8.6c-2.1,0.1-4.1,0.5-6.1,1.2c0,0,3.7,4,3.9,7.7c0.2,4.7-7.3,6-12.4,5s-8-3.6-11.4-7.8l-5.9,2
	c5,4.7,7,15,5.9,23.9s-5.4,10.7-5.4,10.7l-0.2,4.9c0.7,4.8,1.7,9.6,3.1,14.3c1.9,6,4.1,13.1,4.1,13.1s0.9,10.1,2.2,13.2
	c1.2-0.7,3.2-1.6,4.1-4.8c6.2,4.2,28.4,7.1,40.1-2.4C206.9,189.4,206.1,179,206.1,179z"/>
<path class="st23" d="M183.8,171.5c-1,0-2-0.2-2.9-0.6c-1.3-0.5-2.3-2-3.2-4.4c-0.8-2.1-1.9-6.5-0.8-8.8c1.4-2.8,4.9-2.8,7.2-2.7
	h0.8v3.7H184c-1.3,0-3.5-0.1-3.9,0.6c-0.5,1.4,1.1,7.4,2.3,8.2c1.1,0.3,2.3,0.3,3.4-0.1l1.2,3.5
	C185.9,171.3,184.9,171.5,183.8,171.5z"/>
<path class="st0" d="M184.1,151.2c0.3-1.1,1.4-2.2,3.4-3.1c5.4-2,11.3-2,16.7,0.1c2,0.9,3.1,2,3.4,3.1h0.1
	c0.8,7.5-0.6,16.1-3.3,20.9c0,0,0,0.1,0,0.1v0.1l0,0c-0.5,0.8-1.3,1.5-2.2,2c-4,2-8.7,2-12.7,0c-0.9-0.5-1.6-1.2-2.2-2.1l0,0v-0.1
	l-0.1-0.1C184.6,167.3,183.3,158.6,184.1,151.2L184.1,151.2z"/>
<path class="st11" d="M187.5,148.1c-4.6,2-4.6,5.2,0,7.3c5.4,2,11.3,2,16.7,0.1c4.6-2,4.6-5.2,0-7.2
	C198.8,146.2,192.9,146.1,187.5,148.1z"/>
<path class="st23" d="M189.1,149.4c-3.7,1.3-3.7,3.4,0,4.7c4.4,1.3,9.1,1.3,13.5,0.1c3.7-1.3,3.7-3.4,0-4.7
	C198.1,148.1,193.5,148.1,189.1,149.4z"/>
<path class="st2" d="M189.1,152.2c-0.7,0.2-1.3,0.5-1.9,0.9c0.6,0.4,1.2,0.7,1.9,1c4.4,1.3,9.1,1.3,13.5,0.1
	c0.7-0.2,1.3-0.5,1.9-0.9c-0.6-0.4-1.2-0.8-1.9-1C198.1,150.9,193.5,150.9,189.1,152.2z"/>
<path class="st22" d="M139.6,200.4c-5.9-11.9-9.6-22.3-15.2-44.8c-4.5-18.2,3.2-27,17.1-29.8c10.8,17.3,3.3,31.8,3.3,31.8l8.6,26.4
	c0,0,21.3-12.8,23.9-14.9c2.1-1.7,3.8-10,6.5-10.2c0.1,1.8,0.3,3.6,0.7,5.3c0,0,6.3,2.6,12.3,2s11.3-5.9,10.6-0.4
	c-0.3,2.2-0.8,6.3-3.7,9.3s-14.6,5.3-17.8,7.1c0,0-17.1,13.7-27.2,21.2C151.7,208.6,145.3,211.9,139.6,200.4z"/>
<path class="st21" d="M170.2,60.3c-21-7.6-35.7,3.5-39.1,16.8c-2.3,8.9,1.1,18.5,6.2,25c2.7,3.4,3.7,4.9,5.8,6.8
	c2.1,1.9,4.2,3.5,5.6,3.7l-0.3-6c3.1,1.5,6.6,2.3,10.1,2.1l5.4-0.2c12.8-0.5,18.1-12.8,23.2-27.7C192.1,66.2,180.1,63.8,170.2,60.3z
	"/>
<path class="st22" d="M176.1,69.3c3.1,1.7,7.3,9.2,7.7,25.4c0.4,13.7-3.9,17.3-6.1,18.4s-6.5,0.7-10.7,0.2l0.3,6.7l-18.1,3.8
	l-0.9-19.7c0,0-2.3,2.5-6.7-0.9c-3.6-2.8-5-7.9-2.4-10.7c2.3-2.4,6.1-2.4,8.5-0.1c0.5,0.5,0.9,1,1.2,1.6c0,0,6.2-1.3,14.9-6.6
	C172.3,81.9,174.8,75.4,176.1,69.3z"/>
<circle class="st3" cx="179.3" cy="91" r="1.8"/>
<circle class="st3" cx="166" cy="92.1" r="1.8"/>
<path class="st24" d="M168.2,103.4l4,1.2c-0.3,1.1-1.4,1.8-2.5,1.5c0,0,0,0-0.1,0C168.4,105.7,167.8,104.5,168.2,103.4z"/>
<path class="st3" d="M181.7,86.3l-3.5-2.4c0.6-1,1.8-1.3,2.7-0.7c0.1,0,0.1,0.1,0.2,0.1C182,84,182.3,85.3,181.7,86.3z"/>
<polygon class="st24" points="173.1,88.6 173.1,99.8 178.6,98.1 "/>
<path class="st24" d="M167.1,113.2c-4.4-0.4-13.6-2.5-15.2-6c0.7,1.8,1.8,3.3,3.4,4.4c2.8,2.2,11.9,4.4,11.9,4.4L167.1,113.2z"/>
<path class="st6" d="M251.1,89.3c0,0-0.4-1.5,1.4-3.3s4.1-3.4,4.4-7.2l3,1.1l-3.3,8.5L251.1,89.3z"/>
<path class="st25" d="M251.1,89.3c0,0-0.4-1.5,1.4-3.3s4.1-3.4,4.4-7.2l3,1.1l-3.3,8.5L251.1,89.3z"/>
<path class="st6" d="M251.1,89.3c0,0-3.2-1-9.6,1.4s-11.4,5.1-24,6.9l3.6,1.3l32.3-7.3L251.1,89.3z"/>
<path class="st25" d="M251.1,89.3c0,0-3.2-1-9.6,1.4s-11.4,5.1-24,6.9l3.6,1.3l32.3-7.3L251.1,89.3z"/>
<polygon class="st6" points="217.5,97.6 212,137.1 215.6,138.5 221,99 "/>
<polygon class="st25" points="217.5,97.6 212,137.1 215.6,138.5 221,99 "/>
<polygon class="st16" points="217.5,97.6 212,137.1 215.6,138.5 221,99 "/>
<g class="st26">
	<path d="M257.1,80.8c-0.2,0.8-0.5,1.6-1,2.3c-0.5,0.7-1,1.4-1.6,2c-0.6,0.6-1.1,1.3-1.6,2c-0.2,0.4-0.4,0.7-0.5,1.1
		c-0.1,0.4-0.1,0.8,0,1.1l-0.4,0.1c-0.1-0.5,0-0.9,0.1-1.4c0.1-0.4,0.3-0.8,0.6-1.2c0.5-0.7,1.1-1.4,1.7-2c0.6-0.6,1.1-1.2,1.6-1.9
		C256.6,82.4,256.9,81.6,257.1,80.8z"/>
	<path d="M257,83c-0.2,0.5-0.5,1-0.8,1.4c-0.3,0.5-0.6,0.9-0.9,1.4c-0.3,0.4-0.6,0.9-0.8,1.4c-0.2,0.5-0.3,1-0.3,1.5h-0.4
		c0-0.6,0.1-1.2,0.4-1.7c0.3-0.5,0.5-1,0.9-1.4c0.3-0.4,0.7-0.9,1-1.3C256.4,84,256.7,83.5,257,83z"/>
	<path d="M230.1,95.8c1.8-0.5,3.5-1,5.2-1.7c1.7-0.6,3.4-1.4,5.1-2.1c1.7-0.7,3.4-1.3,5.2-1.6c0.9-0.2,1.8-0.3,2.7-0.3
		c0.5,0,0.9,0,1.4,0c0.5,0,1,0.2,1.4,0.4l-0.2,0.3c-0.4-0.2-0.8-0.3-1.2-0.4c-0.4-0.1-0.9-0.1-1.3-0.1c-0.9,0-1.8,0.1-2.7,0.3
		c-1.8,0.3-3.5,0.8-5.2,1.5c-1.7,0.7-3.4,1.4-5.1,2C233.6,94.8,231.8,95.4,230.1,95.8z"/>
	<path d="M238.7,94.2c1-0.3,2-0.7,2.9-1s1.9-0.7,2.9-1c1-0.3,2-0.5,3.1-0.7c1-0.2,2.1-0.2,3.1,0.1l-0.1,0.4c-1-0.2-2-0.3-3-0.1
		c-1,0.1-2,0.3-3,0.6c-1,0.3-2,0.6-3,0.9S239.7,93.9,238.7,94.2z"/>
</g>
<polygon class="st7" points="259.5,78.1 255.6,88.1 249.8,130.5 251.6,131.2 255.1,119 261.3,78.7 "/>
<polygon class="st5" points="257.4,88.8 261.3,78.7 255.1,119 251.6,131.2 "/>
<polygon class="st7" points="250.8,92.1 218.9,99.5 213.1,141.9 214.9,142.6 246.7,135.1 252.6,92.8 "/>
<polygon class="st14" points="220.7,100.2 214.9,142.6 246.7,135.1 252.6,92.8 "/>
<polygon class="st5" points="218.9,99.5 220.7,100.2 214.9,142.6 213.1,141.9 "/>
<path class="st6" d="M252.6,92.8l4.9-4l-5.8,42.3c-0.5,2.3-2.1,3.6-4.9,4L252.6,92.8z"/>
<path class="st15" d="M252.6,92.8l4.9-4l-5.8,42.3c-0.6,2.5-2.3,3.6-4.9,4L252.6,92.8z"/>
<path class="st4" d="M255.4,88c-1.1-0.4-3.1,0.1-4.4,1.2s-1.5,2.3-0.4,2.8l2,0.8l4.9-4l-1.8-0.7L255.4,88z"/>
<path class="st7" d="M255.6,88.1c-0.1,1.6-1.9,2.9-4.9,4l1.8,0.7c2.6-0.7,4.2-2.1,4.9-4L255.6,88.1z"/>
<path class="st22" d="M253.7,133.8c4.4-7.3,3.3-17.8,0.8-21.1c-1.6-2.2-10.3,0.9-10.8,9.7c-0.5,8.6-1,11.5-3.9,14.4L253.7,133.8z"/>
<path class="st6" d="M104.8,245l72.9,36.6l-1.3-22.7l9.5-5.5c-0.7-17.6-5.5-35.6-17.9-39.6c-15.6-4.9-35.8-6.5-47.9-17.5
	s-11.6-41.1-10.1-58.4s6-44.1-7.8-52.1s-26.9,0.9-26.9,0.9c-5.9,3.8-12.8,6.6-12.2,11.3c0.1,2.4,1.9,4.4,4.2,4.7L104.8,245z"/>
<path class="st14" d="M104.8,245l72.9,36.6l-1.3-22.7l9.5-5.5c-0.7-17.6-5.5-35.6-17.9-39.6c-15.6-4.9-35.8-6.5-47.9-17.5
	s-11.6-41.1-10.1-58.4s6-44.1-7.8-52.1s-26.9,0.9-26.9,0.9c-5.9,3.8-12.8,6.6-12.2,11.3c0.1,2.4,1.9,4.4,4.2,4.7L104.8,245z"/>
<path class="st6" d="M93.1,101.9c5.5,6.6,8.4,17.1,7.3,42.9c-1,25.8-0.6,46.6,9.5,59.3c12,15,53,27,53,27l16-7.3
	c-2.7-4.8-6.4-8.4-11.1-9.9c-15.6-4.9-35.8-6.5-47.9-17.5s-11.6-41.1-10.1-58.4s6-44.1-7.8-52.1s-26.9,0.9-26.9,0.9
	c-5.9,3.8-12.8,6.6-12.2,11.3c0.1,2.4,1.9,4.4,4.2,4.7C74.9,100.3,87.6,95.3,93.1,101.9z"/>
<path class="st15" d="M93.1,101.9c5.5,6.6,8.4,17.1,7.3,42.9c-1,25.8-0.6,46.6,9.5,59.3c12,15,53,27,53,27l16-7.3
	c-2.7-4.8-6.4-8.4-11.1-9.9c-15.6-4.9-35.8-6.5-47.9-17.5s-11.6-41.1-10.1-58.4s6-44.1-7.8-52.1s-26.9,0.9-26.9,0.9
	c-5.9,3.8-12.8,6.6-12.2,11.3c0.1,2.4,1.9,4.4,4.2,4.7C74.9,100.3,87.6,95.3,93.1,101.9z"/>
<path class="st5" d="M176.4,259l9.5-5.5c0-10.5-2.7-33.4-16-38.9c-10.6-4.4-15.7,2.1-15.6,6c0.1,4.5,3.4,7.4,8.7,10.5
	C170.1,235.2,176.4,242.5,176.4,259z"/>
<path class="st17" d="M163.3,217.8c1.7,0.1,3.3,0.4,4.8,1.1c8.8,3.6,12.5,18.8,13.1,31.7c0,0.1,0,0.3-0.2,0.3l-0.4,0.2
	c-1.5-11.2-6.5-19-15.2-24c-5.8-3.3-6.3-5.2-6.4-6.6c0.1-0.6,0.4-1.1,0.8-1.4C160.7,218.2,162,217.7,163.3,217.8 M163.3,216.6
	c-1.6-0.1-3.2,0.5-4.4,1.6c-0.6,0.6-1,1.4-1.1,2.3c0.1,2.2,1.3,4.3,7,7.6c8.6,5,13.4,12.9,14.8,24.2c0,0.3,0.3,0.5,0.5,0.5
	c0.1,0,0.2,0,0.2-0.1l1.3-0.7c0.5-0.3,0.8-0.8,0.8-1.4c-0.6-13.3-4.5-28.9-13.8-32.7C166.9,217.1,165.1,216.7,163.3,216.6
	L163.3,216.6z"/>
</svg>
