<?xml version="1.0" encoding="utf-8"?>
<!-- Generator: Adobe Illustrator 26.5.0, SVG Export Plug-In . SVG Version: 6.00 Build 0)  -->
<svg version="1.1" id="Capa_1" xmlns="http://www.w3.org/2000/svg" xmlns:xlink="http://www.w3.org/1999/xlink" x="0px" y="0px"
	 viewBox="0 0 151 23.5" style="enable-background:new 0 0 151 23.5;" xml:space="preserve">
<style type="text/css">
	.st0{fill:#0074a7;}
</style>
<g>
	<path class="st0" d="M76.8,22.7c46.3,0,73.6-2.6,73.6-9.8c0-7.2-30-9.4-32.4-9.6c-0.4,0-0.7,0.1-1,0.4c-0.3,0.2-0.4,0.5-0.4,0.9
		c0,0.3,0.1,0.6,0.4,0.9c0.3,0.2,0.6,0.4,1,0.4c1.7,0.1,31.5,1.6,31.5,7.2c0,5.8-34.8,7.4-72.7,7.4S4.1,18.7,4.1,12.9
		c0-5.5,29.8-7.1,31.5-7.2c0.4,0,0.7-0.1,1-0.4C36.8,5.2,37,4.9,37,4.6c0-0.3-0.1-0.6-0.4-0.9c-0.3-0.2-0.6-0.4-1-0.4
		C33.2,3.5,3.2,5.8,3.2,12.9C3.2,20.1,30.5,22.7,76.8,22.7z"/>
	<path class="st0" d="M39.3,1.4l4.1-0.1l0,0.6L40.3,2l0,1l3-0.1l0,0.6l-3,0.1l0,1.1l3.2-0.1l0,0.6l-4.2,0.1L39.3,1.4z"/>
	<path class="st0" d="M44.5,1.3L47,1.2c1.8-0.1,2.4,0.8,2.4,2c0,0.9-0.4,2-2,2.1l-2.8,0.1L44.5,1.3z M45.6,4.7L47,4.6
		c0.7,0,1.5-0.3,1.4-1.5c-0.1-1.3-1-1.4-1.6-1.3l-1.3,0L45.6,4.7z"/>
	<path class="st0" d="M50.4,1l1,0l0.2,4.1l-1,0L50.4,1z"/>
	<path class="st0" d="M54.1,1.6l-1.8,0.1l0-0.6l4.5-0.2l0,0.6l-1.8,0.1L55.3,5l-1,0L54.1,1.6z"/>
	<path class="st0" d="M57,2.9c0-1.2,0.7-2.2,2.7-2.2c2-0.1,2.8,0.9,2.9,2.1c0,1.2-0.7,2.2-2.7,2.2C57.9,5,57.1,4,57,2.9z M61.6,2.7
		c0-0.2-0.1-0.4-0.2-0.6C61.3,2,61.2,1.8,61,1.7c-0.3-0.3-0.8-0.4-1.3-0.4c-0.5,0-0.9,0.2-1.2,0.5c-0.3,0.3-0.5,0.7-0.5,1.1
		c0,0.4,0.2,0.8,0.6,1.1c0.3,0.3,0.8,0.4,1.3,0.4c0.5,0,0.9-0.2,1.2-0.5C61.4,3.5,61.6,3.1,61.6,2.7z"/>
	<path class="st0" d="M63.5,0.6l3-0.1c1.2,0,1.6,0.5,1.6,1.1c0,0.2,0,0.4-0.2,0.6c-0.1,0.2-0.3,0.3-0.6,0.4c0.6,0.1,0.7,0.5,0.7,1.1
		c0,0.3,0.1,0.6,0.2,0.9l-1.1,0c-0.1-0.2-0.1-0.4-0.1-0.6c0-0.6-0.1-1-0.8-1l-1.7,0l0,1.6l-1,0L63.5,0.6z M66.2,2.4
		c0.6,0,0.8-0.2,0.8-0.6c0-0.5-0.3-0.6-0.9-0.6l-1.7,0l0,1.2L66.2,2.4z"/>
	<path class="st0" d="M69.1,0.5l1,0l0.1,4.1l-1,0L69.1,0.5z"/>
	<path class="st0" d="M72.9,0.5h1.2l2.1,4.1h-1.1l-0.5-1h-2.2l-0.5,1h-1.1L72.9,0.5z M74.3,2.9l-0.8-1.7l-0.8,1.7H74.3z"/>
	<path class="st0" d="M76.9,0.5l1,0l0,3.4l2.9,0l0,0.7l-3.9,0L76.9,0.5z"/>
	<path class="st0" d="M84.1,0.6l1.4,0L87,3.9l1.7-3.1l1.4,0l-0.1,4.1l-0.9,0l0.1-3.4l0,0l-1.9,3.3l-0.8,0l-1.6-3.4h0l-0.1,3.4
		l-0.9,0L84.1,0.6z"/>
	<path class="st0" d="M91.4,0.8l4.1,0.1l0,0.6l-3.1-0.1l0,1l3,0.1l0,0.6l-3-0.1l0,1.1l3.2,0.1l0,0.6l-4.2-0.1L91.4,0.8z"/>
	<path class="st0" d="M96.5,0.9L99.1,1c1.8,0.1,2.3,1,2.2,2.2c0,0.9-0.6,2-2.2,1.9L96.4,5L96.5,0.9z M97.4,4.4l1.4,0.1
		c0.7,0,1.5-0.2,1.5-1.3c0.1-1.3-0.9-1.4-1.5-1.5l-1.3,0L97.4,4.4z"/>
	<path class="st0" d="M102.4,1.2l1,0l-0.2,4.1l-1,0L102.4,1.2z"/>
	<path class="st0" d="M108.4,2.9c-0.1-0.6-0.6-1-1.5-1.1c-0.9,0-1.6,0.5-1.7,1.5c0,0.2,0,0.4,0.1,0.6c0.1,0.2,0.2,0.4,0.3,0.5
		c0.1,0.1,0.3,0.3,0.5,0.3c0.2,0.1,0.4,0.1,0.6,0.1c0.3,0,0.7,0,1-0.2c0.3-0.2,0.5-0.4,0.5-0.7l1.1,0c-0.2,0.8-0.9,1.6-2.8,1.6
		c-1.7-0.1-2.5-1.1-2.4-2.3c0.1-1.2,0.9-2.1,2.8-2.1c1.6,0.1,2.4,0.9,2.5,1.7L108.4,2.9z"/>
	<path class="st0" d="M112.1,1.6l1.2,0.1l1.8,4.2L114,5.8l-0.4-1l-2.2-0.1l-0.6,1l-1.1-0.1L112.1,1.6z M113.3,4.1l-0.7-1.8L111.7,4
		L113.3,4.1z"/>
	<path class="st0" d="M27.7,8.8c2.1,0,3.4,1.9,3.4,3.5c0,1.5-1.1,3.2-3,3.2c-0.5,0-1-0.1-1.4-0.3c-0.4-0.2-0.8-0.5-1.1-0.8v0.5
		c0,0.4,0,0.8,0.1,1.1c0.2,0.4,0.9,0.5,0.9,0.9c0,0.4-0.5,0.4-0.8,0.4h-2.7c-0.3,0-0.7,0-0.8-0.4c0-0.4,0.6-0.4,0.8-0.7
		c0.2-0.2,0.2-0.9,0.2-1.3v-3.4c0-1.2-1-0.7-1-1.3c0-0.2,0.2-0.3,0.4-0.4l2-0.9c0.1,0,0.2-0.1,0.3-0.1c0.5,0,0.5,0.5,0.5,0.8v0.2
		C26.1,9.3,26.8,8.8,27.7,8.8 M27.4,9.8c-1.3,0-2,1.3-2,2.3c0,0.7,0.2,1.9,1.3,1.9c1.4,0,2.3-1.4,2.3-2.4
		C29.1,10.7,28.5,9.8,27.4,9.8z"/>
	<path class="st0" d="M34.3,15.4c-1.3,0-2.8-0.6-2.8-1.9c0-1.6,2.1-2.2,3.6-2.2c0.4,0,0.7,0,1.1,0c-0.3-0.7-0.7-1.4-1.7-1.4
		c-1,0-1.5,0.6-1.9,0.6c-0.1,0-0.2,0-0.2-0.1c-0.1-0.1-0.1-0.1-0.1-0.2c0-1,2.1-1.5,3-1.5c2,0,2.7,1,3.2,2.5l0.8,2.2
		c0.1,0.4,0.5,0.9,0.9,0.9c0.1,0,0.3-0.1,0.4-0.2c0.1,0.1,0.1,0.1,0.2,0.2c0,0.1,0.1,0.2,0.1,0.3c0,0.6-1.1,0.8-1.6,0.8
		c-0.4,0-0.7,0-1.1-0.2c-0.3-0.1-0.6-0.4-0.8-0.6C36.4,15.1,35.4,15.4,34.3,15.4 M36.5,12.6c-0.1-0.2-0.2-0.3-0.4-0.4
		c-0.2-0.1-0.4-0.1-0.6-0.1c-0.7,0-1.6,0.4-1.6,1.1c0,0.3,0.2,0.6,0.5,0.9c0.3,0.2,0.7,0.3,1.1,0.3c0.5,0,1.3-0.1,1.3-0.7
		C36.8,13.3,36.7,12.9,36.5,12.6"/>
	<path class="st0" d="M46.7,8.9c1.4,0,2,1,2.3,2.1l0.7,2.3c0.2,0.7,0.2,0.9,0.9,1.2c0.1,0,0.1,0.1,0.2,0.1c0,0.1,0.1,0.1,0.1,0.2
		c0,0.3-0.3,0.4-0.7,0.4h-3c-0.3,0-0.6-0.1-0.6-0.4c0-0.5,0.9-0.5,0.9-1c0-0.1,0-0.3-0.1-0.4l-0.6-1.9c-0.1-0.5-0.5-1.4-1.2-1.4
		c-0.9,0-1,0.9-1,1.5v1c0,0.5,0,0.9,0.1,1.4c0.1,0.4,0.8,0.5,0.8,0.9c0,0.3-0.5,0.4-0.7,0.4h-2.7c-0.3,0-0.7-0.1-0.7-0.4
		c0-0.5,1-0.2,1-1.9c0-0.4,0-0.9,0-1.4c0-1.2-1-0.7-1-1.2c0-0.1,0-0.2,0.1-0.2c0.1-0.1,0.1-0.1,0.2-0.2L44,9c0.1,0,0.2-0.1,0.3-0.1
		c0.3,0,0.4,0.3,0.4,0.6v0.4C45.3,9.4,45.8,8.9,46.7,8.9"/>
	<path class="st0" d="M53.9,15.4c-1.3,0-2.8-0.6-2.8-1.9c0-1.6,2.1-2.2,3.6-2.2c0.3,0,0.7,0,1.1,0c-0.3-0.7-0.7-1.4-1.7-1.4
		s-1.5,0.6-1.9,0.6c-0.1,0-0.2,0-0.2-0.1c-0.1-0.1-0.1-0.1-0.1-0.2c0-1,2.1-1.5,3-1.5c2,0,2.7,1,3.2,2.5l0.8,2.2
		c0.1,0.4,0.5,0.9,0.9,0.9c0.1,0,0.3-0.1,0.4-0.2c0.1,0.1,0.1,0.1,0.2,0.2c0,0.1,0.1,0.2,0.1,0.3c0,0.6-1.1,0.8-1.6,0.8
		c-0.4,0-0.7,0-1.1-0.2c-0.3-0.1-0.6-0.4-0.8-0.6C56,15.1,54.9,15.4,53.9,15.4 M55.7,12.6c-0.1-0.2-0.2-0.3-0.4-0.4
		c-0.2-0.1-0.4-0.1-0.6-0.1c-0.7,0-1.6,0.4-1.6,1.1c0,0.3,0.2,0.6,0.5,0.9c0.3,0.2,0.7,0.3,1,0.3c0.5,0,1.3-0.1,1.3-0.7
		C56,13.3,55.9,12.9,55.7,12.6z"/>
	<path class="st0" d="M70.3,8.9c1.1,0,1.8,0.6,2.1,1.5l1,2.9c0.1,0.3,0.2,0.6,0.4,0.8c0.2,0.2,0.4,0.3,0.6,0.4
		c0.1,0,0.2,0.1,0.2,0.1c0.1,0.1,0.1,0.1,0.1,0.2c0,0.3-0.3,0.4-0.6,0.4h-3.1c-0.3,0-0.8-0.1-0.8-0.4c0-0.4,1-0.5,1-0.9
		c0-0.2-0.1-0.5-0.2-0.7l-0.8-2.2c-0.2-0.4-0.5-0.8-1-0.8c-0.8,0-1,0.8-1,1.3v1c0,0.5,0,1,0.1,1.5c0.1,0.4,0.9,0.5,0.9,0.9
		c0,0.3-0.5,0.4-0.7,0.4H66c-0.3,0-0.7-0.1-0.7-0.4c0-0.6,1-0.2,1-1.9c0-0.2,0-0.5,0-0.7s0-0.4,0-0.6c0-0.7-0.1-1.5-1-1.5
		c-0.9,0-1.4,0.7-1.4,1.4c0,0.4,0,0.7,0,1.1c0,0.4,0,0.9,0.1,1.3c0.1,0.4,0.8,0.5,0.8,0.9c0,0.3-0.4,0.4-0.7,0.4h-2.7
		c-0.3,0-0.7-0.1-0.7-0.4c0-0.5,1-0.2,1-1.9c0-0.4,0-0.9,0-1.3c0-1.4-1.1-0.8-1.1-1.4c0-0.2,0.2-0.3,0.4-0.4l2.2-1
		c0.1,0,0.2-0.1,0.3-0.1c0.3,0,0.3,0.3,0.3,0.7v0.4c0.6-0.6,1.4-1,2.3-1c0.4,0,0.9,0.1,1.3,0.2c0.4,0.2,0.7,0.5,0.9,0.8
		C68.9,9.3,69.5,8.9,70.3,8.9"/>
	<path class="st0" d="M79.8,14.2c1.4,0,2.2-1.1,2.5-1.1c0.1,0,0.2,0,0.3,0.1c0.1,0.1,0.1,0.1,0.1,0.2c0,0.4-0.5,0.7-0.8,1
		c-1,0.6-2.2,1-3.5,1c-2.3,0-4-1.3-4-3.4c0-1.8,1.9-3.3,4-3.3c0.6,0,1.1,0.1,1.6,0.3c0.5,0.2,1,0.5,1.3,0.9c0.1,0.1,0.7,0.8,0.7,1.1
		c0,0.2-0.7,0.5-1,0.5l-3.6,1.4c0.2,0.4,0.5,0.7,0.9,1C78.8,14.1,79.3,14.3,79.8,14.2z M79.1,11.5c0.1-0.1,0.4-0.1,0.5-0.3
		c0,0,0-0.1,0-0.1c0-0.6-0.9-1.4-1.6-1.4c-0.2,0-0.3,0-0.5,0.1c-0.1,0.1-0.3,0.1-0.4,0.3c-0.1,0.1-0.2,0.2-0.2,0.4
		c-0.1,0.1-0.1,0.3-0.1,0.4c0,0.2,0.1,1.3,0.5,1.3c0.1,0,0.2,0,0.3-0.1L79.1,11.5z"/>
	<path class="st0" d="M89,8.8c0.3,0,0.9,0,0.9,0.3c0,0.1,0,0.2-0.1,0.3l-0.6,1.7c-0.1,0.2-0.2,0.4-0.4,0.4c-0.4,0-0.6-0.8-1.3-0.8
		c-1.1,0-1.3,0.9-1.3,1.6v0.8c0,0.3,0,0.7,0.2,1c0.2,0.3,0.9,0.3,0.9,0.8c0,0.3-0.4,0.4-0.7,0.4h-2.7c-0.4,0-0.8,0-0.8-0.4
		c0-0.4,0.6-0.4,0.8-0.7c0.2-0.2,0.2-0.9,0.2-1.3v-1.6c0-0.9-1-0.4-1-1c0-0.1,0-0.1,0.1-0.2c0-0.1,0.1-0.1,0.2-0.1l2.2-1.1
		c0.1-0.1,0.2-0.1,0.3-0.1c0.4,0,0.4,0.3,0.4,0.6c0,0.3,0,0.6,0,0.8C87,9.5,87.7,8.8,89,8.8z"/>
	<path class="st0" d="M93.3,12.3v0.5c0,0.4,0,0.8,0.1,1.1c0.1,0.4,0.9,0.4,0.9,0.9c0,0.4-0.4,0.5-0.8,0.5h-2.7c-0.4,0-0.8,0-0.8-0.4
		c0-0.4,0.6-0.4,0.8-0.7c0.2-0.2,0.2-0.9,0.2-1.3v-1.6c0-1.3-0.8-0.6-0.8-1.2c0-0.2,0.3-0.3,0.5-0.4l2-0.8c0.1,0,0.2-0.1,0.3-0.1
		c0.3,0,0.3,0.3,0.3,0.5V12.3z M91.4,8c-0.2,0-0.4-0.1-0.6-0.2c-0.2-0.1-0.2-0.3-0.3-0.5c0-0.7,1.3-1.2,2-1.2c0.2,0,0.4,0,0.5,0.2
		c0.2,0.1,0.2,0.3,0.3,0.4C93.3,7.5,92.1,8,91.4,8z"/>
	<path class="st0" d="M101.3,11.3c-0.1,0.1-0.2,0.3-0.4,0.3c-0.6,0-0.5-2-2.2-2c-1.3,0-1.7,1.4-1.7,2.3c0,1.2,0.7,2.6,2.4,2.6
		c1.4,0,2.2-1.2,2.6-1.3c0.1,0,0.2,0,0.2,0.1c0.1,0,0.1,0.1,0.1,0.2c0,0.4-0.4,0.8-0.7,1.1c-0.8,0.6-1.9,1-3,1
		c-2.3,0-4.3-1.2-4.3-3.2s2.3-3.4,4.5-3.4c0.9,0,1.7,0.2,2.5,0.5c0.2,0.1,0.5,0.2,0.5,0.4c0,0.1,0,0.2-0.1,0.3L101.3,11.3z"/>
	<path class="st0" d="M105.6,15.4c-1.3,0-2.8-0.6-2.8-1.9c0-1.6,2.1-2.2,3.6-2.2c0.4,0,0.7,0,1.1,0c-0.3-0.7-0.7-1.4-1.7-1.4
		s-1.5,0.6-1.9,0.6c-0.1,0-0.2,0-0.2-0.1s-0.1-0.1-0.1-0.2c0-1,2.1-1.5,3-1.5c2,0,2.7,1,3.2,2.5l0.8,2.2c0.1,0.4,0.5,0.9,0.9,0.9
		c0.1,0,0.3-0.1,0.4-0.2c0.1,0.1,0.1,0.1,0.2,0.2c0,0.1,0.1,0.2,0.1,0.3c0,0.6-1.1,0.8-1.6,0.8c-0.4,0-0.7,0-1.1-0.2
		c-0.3-0.1-0.6-0.4-0.8-0.6C107.7,15.1,106.7,15.4,105.6,15.4 M108.1,12.6c-0.1-0.2-0.2-0.3-0.4-0.4c-0.2-0.1-0.4-0.1-0.6-0.1
		c-0.7,0-1.6,0.4-1.6,1.1c0,0.3,0.2,0.6,0.5,0.9c0.3,0.2,0.7,0.3,1.1,0.3c0.5,0,1.3-0.1,1.3-0.7C108.4,13.3,108.3,12.9,108.1,12.6z"
		/>
	<path class="st0" d="M118,8.9c1.4,0,2,1,2.3,2.1l0.7,2.3c0.2,0.7,0.2,0.9,0.9,1.2c0.1,0,0.1,0.1,0.2,0.1c0,0.1,0.1,0.1,0.1,0.2
		c0,0.3-0.4,0.4-0.7,0.4h-3c-0.3,0-0.6-0.1-0.6-0.4c0-0.5,0.9-0.5,0.9-1c0-0.1,0-0.3-0.1-0.4l-0.6-1.9c-0.1-0.5-0.4-1.4-1.2-1.4
		c-0.9,0-1,0.9-1,1.5v1c0,0.5,0,0.9,0.1,1.4c0.1,0.4,0.8,0.5,0.8,0.9c0,0.3-0.4,0.4-0.7,0.4h-2.7c-0.3,0-0.7-0.1-0.7-0.4
		c0-0.5,1-0.2,1-1.9c0-0.4,0-0.9,0-1.4c0-1.2-1-0.7-1-1.2c0-0.1,0-0.2,0.1-0.2c0.1-0.1,0.1-0.1,0.2-0.2l2.3-1c0.1,0,0.2-0.1,0.3-0.1
		c0.3,0,0.4,0.3,0.4,0.6v0.4C116.6,9.4,117.1,8.9,118,8.9"/>
	<path class="st0" d="M125.2,15.4c-1.3,0-2.8-0.6-2.8-1.9c0-1.6,2.1-2.2,3.6-2.2c0.3,0,0.7,0,1.1,0c-0.3-0.7-0.7-1.4-1.7-1.4
		c-1,0-1.5,0.6-1.9,0.6c-0.1,0-0.2,0-0.2-0.1s-0.1-0.1-0.1-0.2c0-1,2.1-1.5,3-1.5c2,0,2.7,1,3.2,2.5l0.8,2.2
		c0.1,0.4,0.5,0.9,0.9,0.9c0.1,0,0.3-0.1,0.4-0.2c0.1,0.1,0.1,0.1,0.2,0.2c0,0.1,0.1,0.2,0.1,0.3c0,0.6-1.1,0.8-1.6,0.8
		c-0.4,0-0.7,0-1.1-0.2c-0.3-0.1-0.6-0.4-0.8-0.6C127.3,15.1,126.2,15.4,125.2,15.4 M127.3,12.6c-0.1-0.2-0.2-0.3-0.4-0.4
		s-0.4-0.1-0.6-0.1c-0.7,0-1.6,0.4-1.6,1.1c0,0.3,0.2,0.6,0.5,0.9c0.3,0.2,0.7,0.3,1,0.3c0.5,0,1.3-0.1,1.3-0.7
		C127.7,13.3,127.5,12.9,127.3,12.6"/>
</g>
</svg>
