<svg xmlns="http://www.w3.org/2000/svg" viewBox="0 0 150 150"><defs><style>.cls-1{fill:#3c3c3c;}.cls-2{fill:#fff;}</style></defs><title>snap</title><g id="Layer_2" data-name="Layer 2"><g id="Layer_1-2" data-name="Layer 1"><path class="cls-1" d="M128,128l-7.39.41-1.56,7.23-7.36-.75-2.67,6.9-7.15-1.89-3.72,6.4-6.77-3-4.67,5.74-6.22-4L75,150l-5.51-4.93-6.22,4-4.67-5.74-6.77,3-3.72-6.4L41,141.83l-2.67-6.9-7.36.75-1.56-7.23L22,128l-.41-7.39-7.23-1.56.75-7.36L8.17,109l1.89-7.15-6.4-3.72,3-6.77L.92,86.73l4-6.22L0,75l4.93-5.51-4-6.22,5.74-4.67-3-6.77,6.4-3.72L8.17,41l6.9-2.67-.75-7.36,7.23-1.56L22,22l7.39-.41,1.56-7.23,7.36.75L41,8.17l7.15,1.89,3.72-6.4,6.77,3L63.27.92l6.22,4L75,0l5.51,4.93,6.22-4,4.67,5.74,6.77-3,3.72,6.4L109,8.17l2.67,6.9,7.36-.75,1.56,7.23L128,22l.41,7.39,7.23,1.56-.75,7.36,6.9,2.67-1.89,7.15,6.4,3.72-3,6.77,5.74,4.67-4,6.22L150,75l-4.93,5.51,4,6.22-5.74,4.67,3,6.77-6.4,3.72,1.89,7.15-6.9,2.67.75,7.36-7.23,1.56Z"/><circle class="cls-2" cx="75" cy="75" r="59.5"/><path class="cls-2" d="M75,140a65,65,0,1,1,65-65A65.07,65.07,0,0,1,75,140ZM75,12a63,63,0,1,0,63,63A63.07,63.07,0,0,0,75,12Z"/></g></g></svg>