<?xml version="1.0" encoding="utf-8"?>
<!-- Generator: Adobe Illustrator 26.5.0, SVG Export Plug-In . SVG Version: 6.00 Build 0)  -->
<svg version="1.1" id="Capa_1" xmlns="http://www.w3.org/2000/svg" xmlns:xlink="http://www.w3.org/1999/xlink" x="0px" y="0px"
	 viewBox="0 0 33.6 37.8" style="enable-background:new 0 0 33.6 37.8;" xml:space="preserve">
<style type="text/css">
	.st0{fill:#808181;}
	.st1{fill:#FFFFFF;}
	.st2{fill:none;stroke:#DDE1E7;stroke-miterlimit:10;}
</style>
<g>
	<path fill='#808181' d="M-139.5,100.5v-1c0-0.1,0-0.3,0-0.4c0-0.4-0.4-0.8-0.8-0.9c0,0-0.1,0-0.1,0l0-0.4c0-0.3,0-0.5,0-0.8
		c0-0.4-0.1-0.8-0.2-1.1c-0.4-0.8-1.1-1.3-2-1.5c-0.1,0-0.2,0-0.3-0.1l-0.1,0l-0.5,0l-0.1,0c-0.1,0-0.1,0-0.2,0
		c-0.8,0.2-1.4,0.5-1.8,1.1c-0.3,0.4-0.5,0.9-0.5,1.3c0,0.3,0,0.6,0,1c0,0.1,0,0.3,0,0.4v0c-0.1,0-0.1,0-0.1,0
		c-0.5,0.1-0.8,0.5-0.8,1c0,1.3,0,2.5,0,3.8c0,0.1,0,0.2,0,0.3c0.1,0.4,0.5,0.7,1,0.7l5.5,0c0.2,0,0.5-0.1,0.6-0.2
		c0.3-0.2,0.4-0.5,0.4-0.8C-139.5,102.2-139.5,101.3-139.5,100.5z M-145.5,96.9c0-1,0.8-1.9,1.9-2c1.2-0.1,2.2,0.5,2.5,1.6
		c0,0.1,0,0.3,0,0.4c0,0.3,0,0.6,0,0.9v0.3h-4.5l0-0.4C-145.5,97.5-145.5,97.2-145.5,96.9z M-140.1,103c0,0.3-0.1,0.4-0.4,0.4h-5.4
		c-0.3,0-0.4-0.1-0.4-0.4l0-1c0-0.9,0-1.8,0-2.8c0-0.1,0-0.2,0.1-0.3c0.1-0.1,0.2-0.1,0.3-0.1h0c0.7,0,1.3,0,2,0h0.7h0.7
		c0.7,0,1.3,0,2,0c0.1,0,0.2,0,0.3,0.1c0.1,0.1,0.1,0.2,0.1,0.3c0,0.9,0,1.8,0,2.8L-140.1,103z"/>
	<path fill='#ffffff' d="M-142.7,100.1c-0.2-0.1-0.5-0.2-0.8-0.2c-0.3,0.1-0.6,0.3-0.7,0.6c-0.1,0.3-0.1,0.6,0.1,0.9c0,0,0,0.1,0,0.1
		c0,0.4,0.3,0.8,0.8,0.8h0c0.2,0,0.4-0.1,0.6-0.2c0.2-0.1,0.2-0.3,0.2-0.5c0,0,0,0,0-0.1c0.2-0.2,0.2-0.5,0.2-0.7
		C-142.3,100.5-142.5,100.2-142.7,100.1z M-143,101.1c-0.1,0.1-0.1,0.1-0.1,0.2c0,0,0,0.1,0,0.1c0,0,0,0.1,0,0.1
		c0,0.1-0.1,0.1-0.1,0.1c-0.1,0-0.1,0-0.1-0.1c0,0,0-0.1,0-0.1c0-0.1,0-0.2-0.1-0.4c-0.1-0.1-0.1-0.3-0.1-0.4
		c0.1-0.1,0.2-0.2,0.3-0.2c0.2,0,0.3,0.1,0.4,0.2C-142.9,100.9-142.9,101-143,101.1z"/>
</g>
<g>
	<polygon fill='#ffffff' points="32.3,36.8 1.5,19 32.3,1.3 	"/>
	<polyline fill='none' stroke='#DDE1E7' points="31.5,36.4 1.5,19 31.5,1.7 	"/>
</g>
</svg>
